<?xml version="1.0" encoding="iso-8859-1"?>
<!-- Generator: Adobe Illustrator 16.0.0, SVG Export Plug-In . SVG Version: 6.00 Build 0)  -->
<!DOCTYPE svg PUBLIC "-//W3C//DTD SVG 1.1//EN" "http://www.w3.org/Graphics/SVG/1.1/DTD/svg11.dtd">
<svg version="1.1" id="&#x5716;&#x5C64;_1" xmlns="http://www.w3.org/2000/svg" xmlns:xlink="http://www.w3.org/1999/xlink" x="0px"
	 y="0px" width="117px" height="92.325px" viewBox="0 0 117 92.325" style="enable-background:new 0 0 117 92.325;"
	 xml:space="preserve">
<g>
	<path d="M53.858,30.998l11.126,6.423c0.156,0.09,0.33,0.135,0.502,0.135c0.174,0,0.348-0.044,0.502-0.135l33.07-19.067
		c0.311-0.179,0.502-0.51,0.502-0.869c0-0.358-0.191-0.69-0.502-0.869L87.932,10.19c-0.312-0.179-0.693-0.179-1.005,0L53.858,29.259
		c-0.311,0.179-0.502,0.51-0.502,0.869S53.547,30.818,53.858,30.998z M87.428,12.218l9.12,5.265l-31.062,17.91l-9.119-5.265
		L87.428,12.218z"/>
	<path d="M116.999,17.104c0,0-0.19-0.69-0.501-0.869l-27.887-16.1c-0.312-0.18-0.692-0.18-1.004-0.001L4.741,47.918
		c-0.31,0.181-0.501,0.511-0.502,0.869v6.021H1.003C0.449,54.808,0,55.258,0,55.812v3.918c0,0.554,0.449,1.003,1.003,1.003
		c0.554,0,1.004-0.449,1.004-1.003v-2.914h2.231v18.408c0,0.358,0.191,0.688,0.501,0.869L32.624,92.19
		c0.155,0.09,0.329,0.135,0.502,0.135s0.346-0.045,0.501-0.135l17.056-9.836c0.253,1.307,0.916,2.314,1.917,2.893
		c0.578,0.334,1.218,0.492,1.886,0.492c2.148,0,4.583-1.645,6.165-4.386c1.088-1.888,1.525-3.862,1.343-5.519l34.28-19.767
		c0.236,1.31,0.888,2.379,1.937,2.986c0.579,0.333,1.22,0.491,1.888,0.491c2.147,0,4.582-1.646,6.164-4.387
		c1.11-1.925,1.543-3.943,1.329-5.619l8.908-5.134c0.312-0.179,0.502-0.51,0.502-0.87L116.999,17.104z M114.993,23.11L85.576,40.072
		v-4.271l29.417-16.961V23.11L114.993,23.11z M83.568,41.229l-7.226,4.167v-4.271l7.226-4.167V41.229z M74.335,46.552L48.187,61.629
		v-4.27l26.149-15.077L74.335,46.552L74.335,46.552z M46.18,62.788l-7.226,4.166v-4.27l7.226-4.167V62.788z M36.947,68.11
		l-2.818,1.625v-4.27l2.818-1.625V68.11z M36.947,80.907l-2.818,1.625V72.052l2.818-1.624V80.907z M32.122,69.734L6.246,54.795
		v-4.27l25.876,14.938V69.734L32.122,69.734z M6.246,57.113L29.38,70.468h-0.493c-0.554,0-1.003,0.448-1.003,1.003v3.918
		c0,0.555,0.449,1.004,1.003,1.004c0.554,0,1.003-0.449,1.003-1.004v-2.914h2.232v10.056L6.246,67.593V57.113z M34.129,84.85
		l2.818-1.626v4.733l-2.818,1.627V84.85z M38.954,69.271l2.609-1.505v17.529l-2.609,1.506V69.271z M43.57,66.608l2.609-1.504v17.529
		L43.57,84.14V66.608z M48.187,63.947l7.756-4.472v8.902l-7.756,4.473V63.947z M57.95,58.317l7.077-4.08v8.902L57.95,67.22V58.317
		L57.95,58.317z M67.034,53.081l7.302-4.211v8.902l-7.302,4.211V53.081z M76.343,47.711l2.608-1.503v17.531l-2.608,1.506V47.711z
		 M80.958,45.05l2.608-1.504v17.531l-2.608,1.506V45.05z M85.576,42.389l5.622-3.242v8.905l-5.622,3.239V42.389z M93.205,37.989
		l7.077-4.08v8.903l-7.077,4.08V37.989z M102.289,32.752l5.828-3.36v8.904l-5.828,3.36V32.752z M110.124,28.234l4.869-2.807v8.904
		l-4.869,2.807V28.234z M88.109,2.162l25.879,14.941L33.125,63.728L7.25,48.788L88.109,2.162z M6.246,69.911L32.122,84.85v4.732
		l-2.13-1.229v-2.508l-2.873-1.567v2.417l-16.567-9.565v-2.515l-2.873-1.567v2.425l-1.433-0.827V69.911L6.246,69.911z M58.911,80.35
		c-1.436,2.486-3.915,3.964-5.308,3.158c-0.838-0.483-1.002-1.594-1.025-2.213c-0.047-1.221,0.357-2.666,1.106-3.963
		c1.169-2.024,3.03-3.379,4.433-3.379c0.32,0,0.617,0.07,0.875,0.219C60.384,74.978,60.346,77.864,58.911,80.35z M59.996,72.436
		c-2.44-1.408-5.976,0.301-8.05,3.893c-0.697,1.207-1.143,2.496-1.307,3.734l-2.453,1.414v-6.311l26.149-15.078V66.4l-12.946,7.466
		C61.052,73.269,60.587,72.777,59.996,72.436z M104.521,54.157c-1.437,2.486-3.916,3.963-5.31,3.159s-1.354-3.69,0.081-6.177
		c1.438-2.486,3.917-3.962,5.309-3.158C105.994,48.786,105.957,51.67,104.521,54.157z M106.951,47.593
		c-0.331-0.562-0.779-1.023-1.346-1.35c-2.439-1.409-5.977,0.301-8.051,3.893c-0.697,1.208-1.125,2.452-1.298,3.625L85.575,59.92
		v-6.313l29.417-16.96v6.31L106.951,47.593z"/>
</g>
</svg>
