<?xml version="1.0" encoding="iso-8859-1"?>
<!-- Generator: Adobe Illustrator 16.0.0, SVG Export Plug-In . SVG Version: 6.00 Build 0)  -->
<!DOCTYPE svg PUBLIC "-//W3C//DTD SVG 1.1//EN" "http://www.w3.org/Graphics/SVG/1.1/DTD/svg11.dtd">
<svg version="1.1" id="&#x5716;&#x5C64;_1" xmlns="http://www.w3.org/2000/svg" xmlns:xlink="http://www.w3.org/1999/xlink" x="0px"
	 y="0px" width="31px" height="22.408px" viewBox="0 0 31 22.408" style="enable-background:new 0 0 31 22.408;"
	 xml:space="preserve">
<path style="fill:#3A559F;" d="M30.622,0.448C30.366,0.173,30.002,0,29.598,0H1.402C1,0,0.635,0.173,0.379,0.446
	C0.375,0.452,0.37,0.456,0.367,0.46C0.139,0.71,0,1.04,0,1.402v19.604c0,0.361,0.141,0.691,0.367,0.941
	c0.003,0.002,0.006,0.005,0.01,0.01c0.256,0.276,0.621,0.45,1.025,0.45h18.957v-8.796h-2.967v-3.59h2.967V7.007
	c0-2.191,1.775-3.97,3.969-3.97h3.1v3.228h-2.217c-0.697,0-1.262,0.564-1.262,1.262v2.496h3.423l-0.473,3.59h-2.95v8.796h5.648
	c0.402,0,0.769-0.174,1.023-0.448c0.004-0.005,0.008-0.009,0.012-0.014C30.86,21.698,31,21.368,31,21.007V1.402
	c0-0.362-0.141-0.692-0.367-0.942C30.631,0.456,30.627,0.452,30.622,0.448z"/>
</svg>
