<?xml version="1.0" encoding="iso-8859-1"?>
<!-- Generator: Adobe Illustrator 16.0.0, SVG Export Plug-In . SVG Version: 6.00 Build 0)  -->
<!DOCTYPE svg PUBLIC "-//W3C//DTD SVG 1.1//EN" "http://www.w3.org/Graphics/SVG/1.1/DTD/svg11.dtd">
<svg version="1.1" id="&#x5716;&#x5C64;_1" xmlns="http://www.w3.org/2000/svg" xmlns:xlink="http://www.w3.org/1999/xlink" x="0px"
	 y="0px" width="31px" height="22.408px" viewBox="0 0 31 22.408" style="enable-background:new 0 0 31 22.408;"
	 xml:space="preserve">
<path style="fill:#7F7F7F;" d="M31,21.005V1.402c0-0.362-0.14-0.692-0.365-0.94c-0.004-0.005-0.008-0.009-0.013-0.013
	C30.366,0.173,30.002,0,29.598,0H1.403C0.998,0,0.635,0.173,0.379,0.447C0.375,0.451,0.37,0.455,0.366,0.462
	C0.139,0.712,0,1.04,0,1.402v19.604c0,0.361,0.141,0.691,0.366,0.941c0.004,0.002,0.007,0.006,0.011,0.01
	c0.256,0.276,0.62,0.45,1.026,0.45h28.192c0.406,0,0.771-0.174,1.025-0.448c0.004-0.004,0.008-0.008,0.012-0.014
	C30.86,21.698,31,21.367,31,21.005z M6.877,15.274c-0.279-0.268-0.725-0.258-0.992,0.021l-4.48,4.668V2.443l8.41,8.76l-2.271,2.366
	c-0.269,0.277-0.26,0.725,0.021,0.99c0.136,0.132,0.312,0.197,0.485,0.197c0.185,0,0.369-0.074,0.506-0.217l2.232-2.326l3.236,3.373
	c0.392,0.407,0.916,0.631,1.479,0.631c0.562,0,1.086-0.224,1.478-0.631l3.235-3.373l8.438,8.791H2.348l4.549-4.74
	C7.164,15.988,7.154,15.544,6.877,15.274z M15.967,14.616c-0.125,0.13-0.291,0.2-0.467,0.2s-0.341-0.07-0.466-0.2L2.348,1.402
	h26.305L15.967,14.616z M21.186,11.203l8.41-8.76v17.521L21.186,11.203z"/>
</svg>
