<?xml version="1.0" encoding="iso-8859-1"?>
<!-- Generator: Adobe Illustrator 16.0.0, SVG Export Plug-In . SVG Version: 6.00 Build 0)  -->
<!DOCTYPE svg PUBLIC "-//W3C//DTD SVG 1.1//EN" "http://www.w3.org/Graphics/SVG/1.1/DTD/svg11.dtd">
<svg version="1.1" id="&#x5716;&#x5C64;_1" xmlns="http://www.w3.org/2000/svg" xmlns:xlink="http://www.w3.org/1999/xlink" x="0px"
	 y="0px" width="97.625px" height="81.074px" viewBox="0 0 97.625 81.074" style="enable-background:new 0 0 97.625 81.074;"
	 xml:space="preserve">
<g>
	<path d="M46.121,24.347l11.128,6.424c0.153,0.09,0.328,0.135,0.501,0.135s0.348-0.045,0.501-0.135l21.683-12.515
		c0.312-0.179,0.504-0.51,0.504-0.868c0-0.358-0.191-0.69-0.502-0.87l-11.129-6.424c-0.312-0.18-0.693-0.18-1.004-0.001
		L46.121,22.608c-0.311,0.179-0.502,0.51-0.502,0.869S45.81,24.167,46.121,24.347z M68.303,12.121l9.121,5.265L57.75,28.743
		l-9.12-5.264L68.303,12.121z"/>
	<path d="M70.412,57.413l-9.023,5.202c-0.336-0.598-0.8-1.088-1.394-1.43c-2.438-1.41-5.976,0.301-8.05,3.893
		c-0.696,1.207-1.143,2.494-1.307,3.734l-2.453,1.414v-6.311L70.152,51.25c0.01-0.779,0.022-1.561,0.041-2.341l-3.16,1.823v-8.904
		l3.211-1.852v-2.317L48.187,50.38v-4.271l22.058-12.718v-2.318l-37.12,21.404L7.25,37.539l43.77-25.24
		c-0.453-0.517-0.926-1.016-1.414-1.501L4.741,36.669c-0.31,0.179-0.501,0.51-0.502,0.868v6.021H1.003
		C0.449,43.559,0,44.008,0,44.563v3.916c0,0.556,0.449,1.004,1.003,1.004c0.554,0,1.003-0.448,1.003-1.004v-2.912h2.232v18.408
		c0,0.357,0.191,0.688,0.501,0.869l27.885,16.096c0.155,0.09,0.329,0.135,0.502,0.135s0.346-0.045,0.501-0.135l17.055-9.836
		c0.254,1.306,0.916,2.314,1.918,2.893c0.577,0.334,1.217,0.492,1.885,0.492c2.148,0,4.582-1.646,6.164-4.385
		c1.09-1.888,1.525-3.862,1.344-5.52l8.751-5.046C70.605,58.832,70.495,58.123,70.412,57.413z M57.95,47.066l7.077-4.08v8.904
		l-7.077,4.08V47.066z M48.187,52.697l7.754-4.473v8.902L48.187,61.6V52.697z M32.122,78.332l-2.13-1.229v-2.51l-2.873-1.566v2.418
		L10.552,65.88v-2.515l-2.873-1.567v2.425l-1.433-0.828V58.66l0,0L32.122,73.6V78.332z M32.122,71.281L6.246,56.344v-10.48
		L29.38,59.219h-0.493c-0.554,0-1.003,0.448-1.003,1.004v3.916c0,0.555,0.449,1.004,1.003,1.004c0.554,0,1.003-0.449,1.003-1.004
		v-2.914h2.231L32.122,71.281L32.122,71.281z M32.122,58.484L32.122,58.484L6.246,43.545v-4.269l25.876,14.938V58.484z
		 M36.946,76.708l-2.817,1.626V73.6l2.817-1.625V76.708z M36.947,69.656l-2.818,1.625V60.803l2.818-1.625V69.656z M36.947,56.859
		l-2.818,1.625v-4.271l2.818-1.624V56.859z M41.563,74.046l-2.609,1.505V58.021l2.609-1.506V74.046z M46.179,71.385l-2.609,1.504
		V55.359l2.609-1.504V71.385z M46.18,51.537l-7.226,4.166v-4.27l7.226-4.166V51.537z M58.911,69.1
		c-1.437,2.486-3.916,3.963-5.31,3.158c-0.836-0.482-1-1.594-1.024-2.212c-0.046-1.221,0.356-2.666,1.106-3.964
		c1.168-2.023,3.029-3.379,4.433-3.379c0.319,0,0.616,0.07,0.876,0.22C60.383,63.729,60.346,66.613,58.911,69.1z"/>
	<path d="M97.624,17.104c0,0-0.19-0.69-0.502-0.87l-27.886-16.1c-0.311-0.179-0.692-0.179-1.004,0L37.797,17.685
		c0.448,0.514,0.892,1.03,1.338,1.544l29.6-17.067l25.877,14.94L67.468,32.753c0.243,0.696,0.31,1.455,0.218,2.192L95.618,18.84
		v4.27l0,0L66.98,39.621c-0.004,0.775-0.01,1.551-0.014,2.324l4.855-2.799v8.904l-4.899,2.824c-0.003,0.772-0.003,1.547-0.004,2.319
		l28.698-16.546v6.31l-8.041,4.637c-0.332-0.563-0.781-1.023-1.346-1.352c-2.441-1.408-5.978,0.301-8.051,3.895
		c-0.697,1.207-1.127,2.45-1.298,3.623l-9.959,5.742c0.002,0.77,0.013,1.539,0.019,2.309l9.955-5.742
		c0.236,1.31,0.887,2.379,1.938,2.986c0.578,0.334,1.217,0.491,1.885,0.491c2.148,0,4.582-1.646,6.164-4.386
		c1.111-1.926,1.545-3.941,1.332-5.619l8.907-5.135c0.312-0.18,0.503-0.512,0.503-0.869L97.624,17.104z M85.145,54.156
		c-1.436,2.486-3.916,3.963-5.308,3.16c-1.392-0.805-1.354-3.69,0.081-6.178c1.436-2.486,3.916-3.961,5.309-3.158
		C86.62,48.785,86.581,51.671,85.145,54.156z M80.907,42.813l-7.076,4.08V37.99l7.076-4.08V42.813z M88.742,38.296l-5.827,3.358
		v-8.903l5.827-3.36V38.296z M95.618,34.331l-4.869,2.807v-8.904l4.869-2.808V34.331z"/>
</g>
</svg>
