<?xml version="1.0" encoding="iso-8859-1"?>
<!-- Generator: Adobe Illustrator 16.0.0, SVG Export Plug-In . SVG Version: 6.00 Build 0)  -->
<!DOCTYPE svg PUBLIC "-//W3C//DTD SVG 1.1//EN" "http://www.w3.org/Graphics/SVG/1.1/DTD/svg11.dtd">
<svg version="1.1" id="&#x5716;&#x5C64;_1" xmlns="http://www.w3.org/2000/svg" xmlns:xlink="http://www.w3.org/1999/xlink" x="0px"
	 y="0px" width="150.38px" height="29.602px" viewBox="0 0 150.38 29.602" style="enable-background:new 0 0 150.38 29.602;"
	 xml:space="preserve">
<g>
	<g>
		<g>
			<path style="fill:#3A4B40;" d="M60.405,11.148c-0.085-0.073-0.189-0.166-0.259-0.296c-0.086-0.166-0.151-0.336-0.215-0.5
				c-0.103-0.262-0.198-0.512-0.372-0.717c-0.243-0.287-0.489-0.559-0.822-0.727c-0.22-0.111-0.465-0.173-0.723-0.239
				c-0.195-0.049-0.397-0.1-0.598-0.175c-0.098-0.037-0.201-0.009-0.283,0.073c-0.068,0.073-0.277,0.287-0.624,0.23
				c-0.782-0.123-1.515,0.104-2.372,0.481c-0.082,0.036-0.166,0.069-0.252,0.1c-0.088,0.035-0.178,0.068-0.264,0.108
				c-0.244,0.115-0.494,0.175-0.735,0.232c-0.309,0.074-0.601,0.144-0.829,0.321c-0.201,0.153-0.451,0.157-0.628,0.011
				c-0.011,0.011-0.022,0.027-0.038,0.047l-0.023,0.031c-0.07,0.098-0.201,0.278-0.445,0.297c-0.197,0.015-0.365,0.154-0.558,0.314
				c-0.233,0.195-0.519,0.433-0.922,0.464c-0.443,0.511-1.038,0.633-1.563,0.743l-0.179,0.036c-0.853,0.186-1.393,0.662-1.65,1.458
				c-0.153,0.474-0.191,0.777,0.046,1.025c0.117,0.122,0.247,0.236,0.384,0.355c0.207,0.18,0.421,0.367,0.605,0.598
				c0.365-0.02,0.615,0.182,0.817,0.34l0.038,0.031c0.416,0.328,0.77,0.58,1.228,0.589c0.281,0.007,0.546,0.134,0.808,0.394
				c0.056,0.053,0.106,0.12,0.154,0.188c0.026,0.038,0.064,0.091,0.082,0.104c0.466,0.152,0.694,0.543,0.878,0.855
				c0.09,0.154,0.176,0.299,0.279,0.408c0.259,0.267,0.608,0.607,1.026,0.873c0.101,0.037,0.318,0.119,0.359,0.383
				c0.017,0.11,0.018,0.391-0.355,0.551c-0.063,0.027-0.123,0.094-0.192,0.172l-0.073,0.08c-0.236,0.248-0.513,0.376-0.843,0.392
				c-0.333,0.016-0.729,0.013-1.131-0.114c-0.652-0.204-1.326-0.187-2.04-0.166l-0.13,0.004c-0.012,0-0.026,0.002-0.041,0.004
				c-0.42,0.059-0.519-0.191-0.541-0.301c-0.008-0.037-0.016-0.05-0.016-0.05c-0.01-0.001-0.085-0.005-0.135-0.009
				c-0.07-0.006-0.141-0.011-0.207-0.025c-0.361-0.07-0.677-0.233-0.938-0.482c-0.445-0.422-0.866-0.82-1.436-0.967
				c-0.079-0.02-0.227-0.072-0.325-0.199c-0.108-0.139-0.23-0.268-0.359-0.404c-0.249-0.268-0.507-0.542-0.689-0.904l-0.015-0.031
				c-0.136-0.271-0.17-0.277-0.269-0.262c-0.139,0.027-0.335-0.002-0.477-0.276c-0.1-0.157-0.172-0.292-0.24-0.423
				c-0.15-0.287-0.28-0.536-0.528-0.684c-0.194-0.115-0.305-0.287-0.302-0.471c0.002-0.066,0.02-0.174,0.103-0.278
				c-0.16-0.153-0.27-0.328-0.369-0.49c-0.052-0.083-0.104-0.167-0.163-0.247c-0.008-0.009-0.191-0.248-0.278-0.197
				c-0.167,0.098-0.279,0.228-0.309,0.359c-0.025,0.115,0.012,0.245,0.11,0.387c0.023,0.033,0.048,0.066,0.072,0.1
				c0.101,0.133,0.227,0.299,0.275,0.534c0.097,0.447,0.297,0.827,0.615,1.166l0.031,0.033c0.195,0.205,0.439,0.463,0.488,0.82
				c0.059,0.425,0.271,0.717,0.689,0.949c0.556,0.308,0.552,0.768,0.5,1.014c-0.012,0.058-0.021,0.166,0.058,0.252
				c0.24,0.259,0.308,0.555,0.367,0.816c0.069,0.307,0.474,0.672,0.612,0.684l0.058,0.002c0.563,0.02,1.202,0.043,1.697,0.604
				c0.059,0.066,0.172,0.104,0.29,0.096c0.101-0.007,0.336-0.023,0.482,0.182c0.148,0.209,0.392,0.297,0.672,0.4
				c0.074,0.026,0.148,0.053,0.22,0.084c0.456,0.184,0.929,0.376,1.392,0.428c0.297,0.035,0.592,0.076,0.889,0.119
				c0.419,0.058,0.854,0.119,1.279,0.154c0.1,0.008,0.217-0.004,0.34-0.018c0.107-0.012,0.225-0.024,0.347-0.024
				c0.191,0,0.394,0.033,0.59,0.146c0.142-0.055,0.279-0.062,0.389-0.068c0.049-0.002,0.098-0.004,0.146-0.014
				c0.299-0.059,0.604-0.104,0.906-0.149c0.938-0.138,1.822-0.269,2.594-0.799c0.566-0.392,0.915-0.657,0.926-1.175
				c-0.005-0.058-0.005-0.119-0.005-0.182c0.001-0.018,0.001-0.039,0.001-0.062c-0.327-0.054-0.536-0.255-0.633-0.603
				c-0.05-0.182-0.137-0.254-0.344-0.287c-0.135-0.021-0.327-0.073-0.48-0.201c-0.475-0.393-1.034-0.637-1.628-0.896
				c-0.646-0.282-1.315-0.573-1.881-1.076c-0.043-0.038-0.114-0.075-0.203-0.106c-0.396-0.137-0.745-0.346-1.069-0.547
				c-0.135-0.084-0.255-0.178-0.372-0.269c-0.189-0.146-0.369-0.285-0.571-0.354c-0.644-0.219-1.089-0.707-1.324-1.449
				c-0.043-0.135-0.088-0.214-0.162-0.289c-0.196-0.195-0.283-0.434-0.246-0.671c0.038-0.243,0.197-0.449,0.45-0.578
				c0.062-0.03,0.09-0.063,0.112-0.13c0.1-0.29,0.289-0.502,0.457-0.688l0.025-0.029c0.344-0.385,0.766-0.598,1.175-0.805
				c0.133-0.066,0.265-0.133,0.394-0.207c0.26-0.146,0.537-0.251,0.899-0.338c0.095-0.022,0.189-0.047,0.283-0.071
				c0.413-0.108,0.84-0.219,1.311-0.179c0.343-0.224,0.656-0.064,0.776-0.002c0.228,0.116,0.432,0.249,0.622,0.406
				c0.3,0.247,0.579,0.35,0.88,0.323c0.646-0.055,1.284,0.045,1.949,0.307c0.023,0.007,0.036,0.009,0.042,0.011
				c0.001-0.002,0.009-0.009,0.02-0.02c0.223-0.238,0.51-0.3,0.81-0.175c0.085,0.036,0.172,0.065,0.26,0.095
				c0.15,0.049,0.307,0.104,0.46,0.184c0.16,0.085,0.341,0.13,0.584-0.118c0.228-0.232,0.362-0.447,0.41-0.653
				C60.471,11.206,60.433,11.17,60.405,11.148"/>
			<path style="fill:#3A4B40;" d="M33.906,19.361c0.058,0.183,0.115,0.364,0.178,0.544c0.175,0.504,0.399,0.586,0.574,0.603
				c0.271,0.024,0.487,0.099,0.703,0.237c0.106,0.07,0.255,0.039,0.333,0.014c0.235-0.072,0.464-0.266,0.544-0.459
				c0.101-0.244,0.049-0.496-0.011-0.789c-0.061-0.295-0.129-0.627-0.03-0.979l-0.017-0.021c-0.217-0.261-0.48-0.579-0.493-1.033
				c-0.014-0.011-0.026-0.021-0.038-0.031c-0.02-0.018-0.042-0.032-0.065-0.051c-0.092-0.066-0.218-0.157-0.276-0.313
				c-0.176-0.472-0.41-0.91-0.658-1.372l-0.137-0.255c-0.207-0.391-0.377-0.471-0.586-0.471l-0.025-0.002c-0.009,0-0.015,0-0.015,0
				c-0.002,0.002-0.018,0.016-0.046,0.064c-0.118,0.205-0.111,0.446-0.104,0.725l0.005,0.188c0.006,0.28,0.013,0.573-0.036,0.888
				c-0.025,0.163-0.032,0.338-0.038,0.52c-0.012,0.309-0.022,0.627-0.127,0.951C33.69,18.674,33.8,19.022,33.906,19.361"/>
		</g>
		<g>
			<path style="fill:#3A4B40;" d="M96.342,24.766c0.127-0.09,0.162-0.164,0.146-0.306c-0.024-0.224-0.107-0.365-0.474-0.484
				c-0.123-0.04-0.252-0.068-0.381-0.098c-0.361-0.082-0.771-0.175-1.111-0.497c-0.027-0.014-0.148-0.031-0.188-0.037
				c-0.214-0.028-0.396-0.106-0.571-0.246C93.64,23,93.504,22.912,93.36,22.817c-0.325-0.211-0.689-0.449-0.939-0.839
				c-0.248,0.002-0.455-0.091-0.629-0.171c-0.116-0.053-0.236-0.107-0.306-0.1c-0.629,0.076-1.169-0.088-1.692-0.247l-0.172-0.054
				c-0.16-0.049-0.326-0.084-0.503-0.121c-0.395-0.084-0.803-0.171-1.181-0.412c-0.162-0.102-0.311-0.215-0.454-0.324
				c-0.289-0.222-0.563-0.432-0.903-0.518c-0.377-0.094-0.635-0.37-0.862-0.615c-0.055-0.061-0.108-0.119-0.163-0.173
				c-0.029-0.028-0.071-0.04-0.165-0.062c-0.123-0.028-0.291-0.066-0.43-0.213c-0.414-0.44-0.589-0.98-0.716-1.498
				c-0.066-0.268,0.043-0.531,0.286-0.686c0.146-0.091,0.284-0.199,0.432-0.313c0.31-0.241,0.63-0.489,1.048-0.618
				c0.281-0.086,0.507-0.292,0.746-0.512c0.233-0.213,0.475-0.434,0.796-0.579c0.042-0.019,0.089-0.038,0.138-0.057
				c0.075-0.029,0.215-0.086,0.247-0.122c0.129-0.257,0.341-0.45,0.528-0.62c0.196-0.179,0.366-0.332,0.435-0.548
				c0.09-0.277,0.268-0.497,0.425-0.689l0.095-0.119c0.396-0.502,0.542-0.936,0.49-1.454l-0.01-0.097l0.045-0.084
				c0.022-0.042,0.002-0.095-0.104-0.277c-0.083-0.142-0.181-0.311-0.211-0.513c-0.194-0.037-0.34-0.141-0.453-0.219
				c-0.031-0.024-0.063-0.046-0.095-0.066c-0.221-0.139-0.52-0.14-0.778-0.002c-0.243,0.13-0.393,0.347-0.401,0.582
				c-0.014,0.367-0.131,0.658-0.359,0.889l-0.086,0.086c-0.369,0.374-0.752,0.759-1.162,1.111c-0.095,0.08-0.107,0.113-0.103,0.254
				c0.004,0.108,0.021,0.217,0.035,0.327c0.056,0.39,0.124,0.872-0.259,1.312c-0.113,0.131-0.217,0.272-0.326,0.423
				c-0.057,0.074-0.112,0.152-0.17,0.228c-0.108,0.144-0.255,0.336-0.502,0.347c-0.131,0.007-0.256-0.039-0.374-0.137
				c-0.261,0.113-0.776,0.294-1.103-0.204c-0.344-0.03-0.551-0.267-0.695-0.431c-0.037-0.041-0.073-0.083-0.112-0.121
				c-0.262,0.144-0.497,0.038-0.632-0.021l-0.064-0.028c-0.387-0.152-0.696-0.392-0.92-0.711c-0.006-0.009-0.016-0.021-0.107-0.043
				c-0.367-0.082-0.629,0.057-0.785,0.188c-0.24,0.205-0.379,0.52-0.36,0.826c0.009,0.148,0.023,0.298,0.038,0.449
				c0.046,0.467,0.093,0.947-0.025,1.447c0.525,0.65,0.494,1.394,0.407,1.969c-0.048,0.313-0.102,0.668-0.086,0.996
				c0.032,0.675,0.009,1.355-0.016,2.013c-0.018,0.489-0.034,0.993-0.028,1.487c0.001,0.105,0.011,0.215,0.021,0.322
				c0.025,0.268,0.052,0.543-0.027,0.818c-0.06,0.209-0.062,0.372-0.009,0.585c0.176,0.704-0.188,1.022-0.523,1.166
				c-0.111,0.048-0.223,0.144-0.329,0.285c-0.203,0.265-0.191,0.39,0.059,0.632c0.242,0.232,0.463,0.495,0.694,0.83
				c0.046,0.064,0.087,0.137,0.131,0.209c0.154,0.266,0.229,0.367,0.41,0.369c0.439,0.002,0.849-0.348,0.918-0.79
				c0.19-1.221,0.178-2.47,0.151-3.546c-0.004-0.111-0.013-0.225-0.022-0.338c-0.036-0.443-0.078-0.943,0.219-1.416
				c-0.118-0.28-0.077-0.543-0.026-0.744c0.062-0.244,0.062-0.505,0.062-0.781c-0.001-0.257-0.001-0.523,0.05-0.799
				c0.06-0.336,0.188-0.568,0.414-0.748c0.3-0.241,0.605-0.035,0.721,0.043c0.019,0.015,0.037,0.025,0.057,0.037l0.176,0.104
				c0.139,0.082,0.277,0.162,0.412,0.248l0.054,0.033c0.461,0.294,0.937,0.598,1.289,1.075c0.073,0.1,0.138,0.206,0.202,0.313
				c0.181,0.302,0.295,0.477,0.55,0.528c0.167,0.034,0.282,0.146,0.366,0.226c0.02,0.02,0.038,0.039,0.058,0.055
				c0.257,0.215,0.497,0.449,0.728,0.677c0.21,0.204,0.408,0.397,0.619,0.579c0.257,0.223,0.538,0.433,0.809,0.638
				c0.353,0.263,0.716,0.535,1.051,0.847c0.04,0.038,0.118,0.07,0.202,0.104c0.165,0.065,0.369,0.147,0.508,0.356
				c0.47,0.707,1.196,0.768,2.038,0.837l0.181,0.017c0.342,0.029,0.677-0.008,0.896-0.1c0.477-0.199,0.948-0.289,1.43-0.373
				C95.313,25.315,95.869,25.098,96.342,24.766"/>
			<path style="fill:#3A4B40;" d="M80.434,12.961c0.399-0.066,0.812-0.136,1.206-0.23c0.427-0.103,0.861-0.149,1.281-0.192
				c0.671-0.072,1.304-0.138,1.887-0.417c0.075-0.038,0.234-0.09,0.418-0.023c-0.001-0.372,0.052-0.722,0.162-1.063
				c0.243-0.757,0.354-1.563,0.451-2.274c0.017-0.117,0.029-0.233,0.043-0.35c0.063-0.553,0.129-1.124,0.451-1.644
				c0.279-0.452,0.549-0.933,0.802-1.431c0.25-0.493,0.5-1.062,0.312-1.583c-0.262-0.721-0.925-1.054-1.435-1.206
				c-0.69-0.206-1.431-0.043-2.198,0.484c-0.529,0.364-1.084,0.369-1.572,0.372c-0.231,0.001-0.45,0.004-0.659,0.039
				c-0.189,0.033-0.344-0.088-0.4-0.142c-0.175-0.163-0.375-0.228-0.633-0.203c-0.294,0.027-0.558-0.15-0.642-0.432
				c-0.049-0.162-0.042-0.405,0.266-0.644c0.122-0.093,0.249-0.162,0.372-0.228l0.065-0.036c0.156-0.085,0.277-0.225,0.311-0.356
				c0.02-0.079-0.004-0.115-0.012-0.128l-0.091-0.14c-0.289-0.449-0.563-0.874-1.019-1.03c-0.396-0.138-0.72-0.14-0.912-0.005
				c-0.17,0.117-0.26,0.356-0.27,0.71l-0.017,0.097l-0.029,0.089c-0.08,0.245-0.201,0.615-0.498,0.91
				c-0.029,0.029-0.06,0.057-0.09,0.085c-0.076,0.071-0.156,0.144-0.16,0.195c-0.066,0.878-0.616,1.427-1.087,1.808
				c-0.032,0.024-0.067,0.049-0.104,0.076c-0.041,0.03-0.105,0.076-0.133,0.105c0.004,0.206-0.056,0.361-0.181,0.458
				c-0.192,0.148-0.417,0.078-0.538,0.042c-0.369-0.114-0.723-0.223-1.057-0.387c-0.152-0.077-0.244-0.046-0.493,0.157
				c-0.036,0.029-0.132,0.107-0.029,0.334c0.05,0.111,0.1,0.224,0.147,0.335c0.107,0.248,0.209,0.481,0.33,0.707
				c0.207,0.385,0.206,0.799-0.003,1.267c-0.11,0.249-0.104,0.445,0.022,0.638l0.141,0.215c0.239,0.37,0.488,0.75,0.765,1.086
				c0.048,0.057,0.098,0.113,0.147,0.17c0.319,0.365,0.715,0.816,0.516,1.516c0.009,0.041,0.015,0.069,0.018,0.098
				c0.053,0.485,0.104,0.947,0.207,1.405l0.012,0.042c0.034,0.128,0.105,0.395-0.094,0.575c-0.137,0.122-0.307,0.117-0.432,0.089
				c-0.146,0.228-0.385,0.371-0.682,0.402c-0.213,0.023-0.373,0.142-0.574,0.321c0.045,0.022,0.093,0.044,0.141,0.066
				c0.251,0.113,0.534,0.242,0.738,0.527c0.35-0.114,0.719-0.169,1.179-0.165c0.371-0.006,0.687-0.147,0.988-0.305
				c0.544-0.287,0.995-0.467,1.419-0.568C79.603,13.1,80.025,13.029,80.434,12.961 M78.41,12.297
				c-0.014,0.001-0.027,0.001-0.041,0.001c-0.214,0-0.391-0.078-0.503-0.22c-0.115-0.147-0.145-0.342-0.084-0.55
				c0.041-0.137,0.03-0.29,0.019-0.467c-0.013-0.184-0.026-0.388,0.02-0.601c-0.269-0.348-0.21-0.737-0.167-1.029
				c0.012-0.08,0.023-0.159,0.029-0.235c0.005-0.081-0.021-0.174-0.051-0.281c-0.021-0.078-0.041-0.153-0.055-0.232
				c-0.061-0.343-0.163-0.679-0.271-1.033c-0.151-0.497-0.307-1.01-0.345-1.56c-0.505-0.6-0.191-1.243-0.039-1.556
				c0.167-0.339,0.554-0.577,0.964-0.591c0.34-0.011,0.629,0.139,0.778,0.403c0.116,0.202,0.302,0.327,0.515,0.473
				c0.175,0.117,0.356,0.241,0.515,0.417c-0.005-0.009,0.044-0.003,0.093-0.014c0.305-0.073,0.597-0.063,0.879-0.055
				c0.225,0.008,0.438,0.015,0.637-0.021c0.027-0.007,0.056-0.011,0.084-0.014c0.03-0.004,0.075-0.011,0.09-0.018
				c0.481-0.287,1.003-0.367,1.508-0.444c0.139-0.022,0.277-0.044,0.416-0.07c0.064-0.012,0.135-0.047,0.217-0.088
				c0.117-0.058,0.25-0.125,0.418-0.152c0.191-0.03,0.435-0.045,0.614,0.125c0.198,0.188,0.17,0.465,0.16,0.556
				c-0.009,0.083-0.006,0.168-0.003,0.25c0,0.036,0.002,0.071,0.003,0.104c0.079,0.531-0.063,0.991-0.198,1.434l-0.031,0.101
				c0.043,0.734-0.442,1.122-0.871,1.467c-0.306,0.244-0.428,0.653-0.377,1.226c0.082,0.912-0.336,1.559-1.145,1.777
				c-0.515,0.139-1.04,0.236-1.549,0.33c-0.229,0.043-0.449,0.136-0.684,0.234c-0.199,0.084-0.406,0.17-0.63,0.232
				c-0.282,0.076-0.554,0.086-0.817,0.096L78.41,12.297z"/>
			<path style="fill:#3A4B40;" d="M74.982,23.741c0.182-0.254,0.401-0.455,0.614-0.651c0.252-0.232,0.489-0.45,0.633-0.728
				c0.17-0.326,0.344-0.578,0.55-0.797c0.168-0.18,0.291-0.429,0.41-0.669c0.046-0.093,0.091-0.183,0.137-0.27
				c0.243-0.452,0.445-0.947,0.587-1.438c0.043-0.15,0.091-0.323,0.247-0.465c0.29-0.262,0.374-0.627,0.457-0.981
				c0.024-0.105,0.049-0.206,0.076-0.302c0.003-0.475-0.138-0.816-0.368-0.898c-0.203-0.07-0.429-0.141-0.689-0.209
				c-0.477-0.129-0.485-0.131-0.679,0.338c-0.146,0.354-0.386,0.56-0.753,0.65c-0.084,0.021-0.169,0.038-0.255,0.057
				c-0.221,0.043-0.431,0.086-0.587,0.193c-0.04,0.027-0.076,0.063-0.112,0.096c-0.13,0.121-0.35,0.324-0.671,0.272
				c-0.243,0.324-0.578,0.481-0.877,0.621c-0.131,0.062-0.254,0.119-0.363,0.188c-0.365,0.225-0.756,0.383-1.132,0.533
				c-0.306,0.123-0.595,0.239-0.87,0.389c-0.165,0.091-0.167,0.113-0.177,0.26c-0.014,0.176,0.073,0.267,0.307,0.457
				c0.063,0.053,0.127,0.106,0.185,0.16c0.416,0.395,0.802,0.432,1.29,0.123c0.557-0.354,1.063-0.69,1.551-1.03
				c0.206-0.144,0.421-0.228,0.622-0.298c0.062-0.02,0.184-0.061,0.318-0.061c0.142,0,0.299,0.046,0.414,0.211
				c0.146,0.207,0.14,0.48-0.016,0.747c-0.051,0.09-0.101,0.181-0.15,0.271c-0.228,0.415-0.463,0.845-0.89,1.175
				c-0.239,0.186-0.281,0.289-0.288,0.316c-0.155,0.589-0.437,1.104-0.708,1.602c-0.093,0.169-0.186,0.339-0.273,0.512
				c-0.183,0.359-0.047,0.479,0.005,0.521c0.147,0.129,0.359,0.106,0.568-0.058C74.435,24.312,74.755,24.06,74.982,23.741"/>
			<path style="fill:#3A4B40;" d="M79.114,8.08c-0.15,0.179-0.28,0.334-0.307,0.518c-0.02,0.128-0.042,0.285-0.11,0.443
				c0.011-0.001,0.021-0.001,0.032-0.001l0.161-0.001c0.826-0.014,1.69-0.16,2.803-0.472c0.054-0.016,0.108-0.029,0.165-0.043
				c0.291-0.071,0.474-0.126,0.569-0.313c0.136-0.266,0.107-0.618-0.008-0.742c-0.189-0.206-0.509-0.404-0.953-0.199l-0.198,0.094
				c-0.606,0.288-1.232,0.584-1.984,0.504C79.229,7.942,79.171,8.012,79.114,8.08"/>
		</g>
		<g>
			<path style="fill:#3A4B40;" d="M3.437,26.836c0.004-0.23,0.009-0.518,0.179-0.779c0.149-0.229,0.269-0.465,0.36-0.715
				c0.072-0.193,0.175-0.357,0.273-0.515c0.108-0.174,0.21-0.338,0.249-0.509c0.054-0.239,0.144-0.455,0.229-0.664
				c0.072-0.17,0.139-0.332,0.183-0.496c0.076-0.287,0.206-0.539,0.332-0.783c0.134-0.256,0.259-0.501,0.309-0.763
				c0.011-0.062,0.011-0.135,0.011-0.216c-0.001-0.164-0.002-0.368,0.104-0.574c0.173-0.334,0.258-0.703,0.348-1.098
				c0.063-0.273,0.129-0.559,0.228-0.84c0.009-0.023,0.02-0.068,0.001-0.091c-0.02-0.024-0.073-0.044-0.15-0.034
				c-0.27,0.034-0.457,0.164-0.559,0.386c-0.346,0.753-0.731,1.403-1.182,1.987c-0.09,0.116-0.171,0.244-0.256,0.381
				c-0.156,0.252-0.317,0.509-0.561,0.731c-0.005,0.009-0.008,0.022-0.012,0.033c-0.012,0.034-0.023,0.069-0.038,0.1
				C3.309,22.77,3.05,23.095,2.713,23.35c-0.159,0.121-0.312,0.154-0.456,0.104c-0.128-0.047-0.221-0.154-0.255-0.299
				c-0.009-0.035-0.024-0.07-0.038-0.104c-0.048-0.115-0.112-0.272-0.085-0.477c0.022-0.166,0.037-0.329,0.052-0.495
				c0.035-0.394,0.07-0.803,0.208-1.217c0.066-0.198,0.15-0.382,0.232-0.558c0.048-0.104,0.097-0.207,0.14-0.314
				c0.287-0.705,0.605-1.541,0.789-2.416c0.016-0.072,0.033-0.146,0.051-0.221c0.067-0.278,0.126-0.52,0.046-0.75
				c-0.043-0.125-0.085-0.252-0.126-0.378c-0.152-0.471-0.297-0.914-0.563-1.286c-0.174-0.243-0.271-0.502-0.362-0.753
				c-0.1-0.268-0.194-0.522-0.375-0.712c-0.179-0.185-0.248-0.408-0.191-0.607c0.039-0.139,0.152-0.321,0.473-0.406
				c0.015-0.007,0.029-0.042,0.028-0.116c-0.003-0.241-0.046-0.3-0.268-0.362c-0.073-0.02-0.145-0.045-0.215-0.071
				c-0.204-0.077-0.267-0.09-0.354-0.04l-0.124,0.069c-0.191,0.104-0.357,0.196-0.425,0.346l-0.046,0.1
				c-0.105,0.232-0.207,0.452-0.246,0.668l-0.016,0.083C0.46,13.83,0.341,14.483,0.62,15.113c0.096,0.218,0.146,0.44,0.196,0.655
				s0.097,0.42,0.183,0.584c0.21,0.4,0.301,0.779,0.271,1.126c-0.007,0.862-0.042,0.989-0.437,1.649
				c-0.07,0.118-0.102,0.229-0.1,0.351c0.007,0.399-0.005,0.737-0.037,1.032c-0.016,0.131-0.026,0.263-0.038,0.396
				c-0.022,0.263-0.047,0.536-0.094,0.81c-0.051,0.303-0.095,0.597-0.055,0.859c0.022,0.149,0.058,0.297,0.091,0.445
				c0.087,0.377,0.177,0.768,0.113,1.199c0.278,0.285,0.373,0.629,0.457,0.93c0.053,0.186,0.103,0.362,0.189,0.506
				c0.127,0.21,0.281,0.533,0.293,0.874c0.011,0.313,0.17,0.531,0.422,0.781c0.08,0.079,0.136,0.166,0.186,0.243
				c0.187,0.285,0.494,0.418,0.794,0.356c0.113-0.022,0.282-0.058,0.356-0.552c0.001-0.016,0-0.03-0.001-0.048
				c-0.002-0.049-0.005-0.115,0.008-0.187C3.433,27.039,3.435,26.94,3.437,26.836"/>
			<path style="fill:#3A4B40;" d="M1.837,9.719c0.175,0,0.447-0.181,0.477-0.268c0.044-0.228,0.145-0.414,0.233-0.578
				c0.03-0.057,0.062-0.113,0.089-0.17c0.345-0.719,0.917-1.12,1.802-1.257c0.519-0.082,0.901-0.172,1.096-0.593
				C5.572,6.77,5.59,6.678,5.611,6.571C5.63,6.48,5.651,6.376,5.688,6.271c0.148-0.418,0.013-0.733-0.381-0.886
				c-0.182-0.07-0.36-0.149-0.54-0.229C4.186,4.903,3.635,4.662,3.021,4.702C2.876,4.711,2.751,4.657,2.66,4.62L2.608,4.598
				C2.52,4.564,2.475,4.567,2.448,4.573C1.894,4.706,1.425,4.495,1.077,4.297C0.984,4.246,0.898,4.183,0.812,4.122
				C0.692,4.036,0.589,3.96,0.478,3.923C0.454,3.916,0.429,3.912,0.401,3.912c-0.098,0-0.219,0.045-0.309,0.124
				C0.019,4.1-0.003,4.157,0,4.179c0.044,0.248,0.179,0.465,0.401,0.645c0.345,0.28,0.695,0.555,1.047,0.828
				C1.63,5.793,1.811,5.935,1.991,6.078c0.301,0.237,0.431,0.584,0.347,0.931C2.287,7.215,2.283,7.401,2.325,7.598
				c0.028,0.133-0.008,0.256-0.031,0.337l-0.01,0.034C2.128,8.546,1.911,8.985,1.6,9.352C1.579,9.376,1.525,9.44,1.63,9.627
				C1.653,9.668,1.681,9.711,1.837,9.719"/>
			<path style="fill:#3A4B40;" d="M23.132,22.391c0.144,0.05,0.287,0.107,0.429,0.164c0.481,0.19,0.937,0.371,1.433,0.308
				c0.157-0.022,0.271-0.077,0.313-0.154c0.038-0.072,0.023-0.187-0.043-0.319c-0.097-0.192-0.206-0.424-0.28-0.669
				c-0.007-0.023-0.049-0.075-0.08-0.113c-0.086-0.104-0.217-0.265-0.208-0.494c0.01-0.303-0.111-0.505-0.427-0.698
				c-0.053-0.012-0.102-0.037-0.145-0.074c-0.018-0.016-0.033-0.03-0.047-0.049c-0.194-0.041-0.312-0.145-0.383-0.246l-0.144-0.099
				c-0.201-0.099-0.428-0.212-0.604-0.427l-0.009-0.006c-0.103-0.016-0.254-0.061-0.371-0.198l-0.005-0.001
				c-0.08-0.019-0.15-0.054-0.207-0.104l-0.348-0.093c-0.056-0.014-0.112-0.025-0.169-0.035c-0.178-0.036-0.399-0.078-0.598-0.227
				l-0.094-0.061c-0.614-0.045-1.236-0.176-1.85-0.387c-0.125-0.041-0.233-0.078-0.339-0.147c-0.551-0.36-1.187-0.411-1.79-0.413
				c-0.266,0-0.549-0.027-0.819-0.229l-0.063-0.063l-0.144-0.187l-0.026-0.124c-0.009-0.159-0.034-0.321-0.062-0.493
				c-0.061-0.39-0.125-0.795-0.009-1.239c0.034-0.128,0.019-0.294,0.001-0.47c-0.006-0.065-0.012-0.129-0.016-0.193
				c-0.004-0.067-0.015-0.131-0.025-0.196c-0.033-0.213-0.074-0.48,0.058-0.762c-0.005-0.021-0.014-0.05-0.021-0.072
				c-0.012-0.038-0.023-0.076-0.031-0.113c-0.109-0.469-0.184-1.082,0.212-1.633l0.057-0.06l0.127-0.105
				c0.114-0.098,0.243-0.169,0.379-0.207l0.062-0.036c0.204-0.292,0.518-0.398,0.803-0.46c0.189-0.042,0.371-0.12,0.564-0.201
				c0.15-0.063,0.305-0.127,0.47-0.178c0.201-0.063,0.396-0.153,0.604-0.249c0.431-0.2,0.877-0.402,1.432-0.39
				c0.067,0.001,0.125-0.021,0.177-0.073c0.102-0.103,0.162-0.295,0.154-0.495c-0.012-0.299-0.135-0.565-0.267-0.847
				c-0.032-0.068-0.065-0.14-0.097-0.21c-0.047-0.108-0.174-0.15-0.439-0.202c-0.605-0.119-1.165-0.23-1.718,0
				c-0.099,0.041-0.194,0.064-0.287,0.089c-0.118,0.028-0.219,0.053-0.295,0.107c-0.172,0.121-0.367,0.176-0.54,0.225l-0.038,0.01
				c-0.255,0.073-0.475,0.055-0.653-0.058c-0.187-0.116-0.309-0.321-0.363-0.611c-0.065-0.356-0.041-0.707,0.076-1.106
				c-0.039-0.073-0.139-0.222-0.063-0.4c0.059-0.135,0.04-0.303,0.018-0.498c-0.027-0.261-0.061-0.555,0.088-0.854
				c0.347-0.699,0.32-1.301-0.085-1.892c-0.076-0.112-0.12-0.226-0.157-0.327C16.2,2.97,16.175,2.903,16.14,2.853
				c-0.209-0.297-0.38-0.436-0.607-0.491c-0.133-0.032-0.263-0.104-0.407-0.225c-0.291-0.24-0.624-0.198-1.067-0.053
				c-0.285,0.093-0.357,0.509-0.26,0.841c0.09,0.312,0.259,0.578,0.438,0.845c0.243,0.359,0.258,0.77,0.27,1.133
				c0.005,0.129,0.009,0.26,0.025,0.387c0.014,0.104,0.021,0.214,0.027,0.325c0.01,0.148,0.018,0.288,0.046,0.415
				c0.069,0.314,0.146,0.658,0.016,1.023c0.176,0.314,0.181,0.639,0.185,0.928c0.002,0.122,0.004,0.236,0.019,0.342
				c0.098,0.748-0.244,1.379-0.892,1.646c-0.196,0.081-0.375,0.204-0.564,0.332c-0.162,0.109-0.328,0.222-0.517,0.317
				c-0.104,0.053-0.209,0.104-0.314,0.155c-0.243,0.119-0.494,0.24-0.726,0.378c-0.101,0.06-0.195,0.137-0.295,0.219
				c-0.099,0.077-0.199,0.159-0.314,0.234c-0.115,0.073-0.229,0.148-0.344,0.221c-0.589,0.383-1.197,0.777-1.883,1.04
				c-0.303,0.117-0.648,0.192-1.026,0.228c-0.134,0.011-0.31,0.052-0.388,0.175c-0.066,0.103-0.064,0.266,0.005,0.458
				c0.089,0.249,0.226,0.365,0.543,0.456c0.113,0.033,0.225,0.085,0.323,0.151c0.439,0.3,0.807,0.417,1.189,0.382
				c0.15-0.015,0.318,0.026,0.448,0.108c0.104,0.065,0.206,0.105,0.41-0.077c0.194-0.174,0.408-0.283,0.615-0.389
				c0.176-0.091,0.343-0.177,0.476-0.294c0.063-0.053,0.131-0.1,0.201-0.145c0.074-0.047,0.137-0.086,0.168-0.131
				c0.15-0.221,0.416-0.31,0.661-0.221c0.159,0.058,0.234,0.164,0.27,0.241c0.082,0.182,0.014,0.356-0.02,0.44
				c-0.099,0.255-0.2,0.493-0.303,0.732l-0.149,0.325l-0.199,0.271c-0.012,0.136-0.08,0.258-0.195,0.344l-0.021,0.049
				c-0.064,0.266-0.246,0.42-0.381,0.533c-0.027,0.022-0.055,0.046-0.081,0.07c-0.068,0.193-0.198,0.324-0.308,0.432
				c-0.014,0.047-0.038,0.098-0.082,0.148l-0.059,0.068c-0.016,0.089-0.058,0.172-0.124,0.241c-0.045,0.102-0.108,0.176-0.155,0.23
				c-0.002,0.001-0.003,0.003-0.004,0.004c-0.029,0.133-0.086,0.343-0.296,0.47l-0.137,0.196c-0.015,0.103-0.066,0.171-0.104,0.208
				c-0.032,0.033-0.087,0.075-0.167,0.098l-0.084,0.084c-0.058,0.223-0.16,0.439-0.304,0.644l-0.038,0.044
				c-0.114,0.113-0.211,0.253-0.314,0.4c-0.105,0.154-0.215,0.313-0.355,0.457c-0.06,0.062-0.116,0.127-0.174,0.191
				c-0.262,0.299-0.587,0.669-1.149,0.707c-0.245,0.017-0.407,0.198-0.501,0.348l-0.026,0.043c-0.271,0.434-0.526,0.842-0.577,1.33
				c-0.014,0.125-0.001,0.222,0.035,0.265c0.03,0.034,0.102,0.054,0.2,0.058c0.332,0.012,0.669-0.042,1.09-0.175l0.198-0.063
				c0.717-0.224,1.395-0.434,1.867-0.99c0.15-0.174,0.323-0.305,0.49-0.429c0.202-0.149,0.378-0.278,0.473-0.462
				c0.114-0.219,0.253-0.406,0.388-0.589c0.082-0.11,0.164-0.219,0.237-0.337c0.398-0.625,0.938-1.008,1.604-1.136
				c0.067-0.012,0.133-0.019,0.193-0.019c0.163,0,0.304,0.045,0.413,0.133c0.129,0.103,0.202,0.262,0.208,0.442l0.013,0.409
				c0.014,0.372,0.027,0.757,0.023,1.143c-0.003,0.293-0.038,0.577-0.072,0.854l-0.029,0.231c-0.036,0.319-0.016,0.642,0.008,0.983
				c0.025,0.381,0.052,0.778-0.007,1.184c-0.019,0.133-0.007,0.188-0.001,0.205c0.23,0.682,0.189,1.363,0.149,2.022l-0.011,0.175
				c-0.019,0.332,0.088,0.622,0.2,0.931c0.046,0.124,0.091,0.247,0.128,0.373c0.076,0.251,0.167,0.511,0.363,0.65
				c0.251,0.179,0.232,0.482,0.225,0.612c-0.005,0.073-0.006,0.1,0.265,0.199l0.04,0.014c0.074,0.027,0.128-0.066,0.143-0.096
				c0.193-0.385,0.309-0.691,0.29-1.033c-0.026-0.448,0.052-0.881,0.126-1.297l0.043-0.246c0.076-0.453,0.152-0.902,0.116-1.289
				c-0.046-0.475-0.034-0.947-0.022-1.404c0.013-0.545,0.026-1.059-0.049-1.578c-0.094-0.646-0.078-1.38,0.048-2.309
				c0.02-0.143,0.065-0.348,0.247-0.479c0.13-0.096,0.294-0.124,0.488-0.086c0.441,0.08,0.909,0.209,1.471,0.404
				c0.916,0.318,1.608,0.671,2.178,1.108c0,0,0.041,0.011,0.066,0.019c0.521,0.149,1.118,0.343,1.622,0.75
				c0.146,0.119,0.25,0.127,0.316,0.125c0.259-0.015,0.466,0.069,0.646,0.145C23.032,22.352,23.081,22.374,23.132,22.391"/>
		</g>
	</g>
	<g>
		<path style="fill:#F1A200;" d="M134.608,8.349c0.387,0.097,0.729-0.037,1.101-0.228c0.494-0.254,1.034-0.064,1.551,0.045
			c0.35,0.074,0.681,0.227,1.05,0.218c0.452-0.01,0.571-0.14,0.539-0.592c-0.014-0.208,0.141-0.334,0.319-0.293
			c0.554,0.129,1.146,0.092,1.661,0.389c0.203,0.117,0.348,0.283,0.493,0.46c0.337,0.409,0.581,0.446,1.015,0.168
			c0.623-0.399,0.813-0.383,1.251,0.197c0.229,0.302,0.479,0.185,0.7,0.074c0.586-0.298,1.16-0.285,1.694,0.063
			c0.819,0.531,1.647,1.056,2.38,1.712c0.229,0.204,0.529,0.294,0.741,0.547c0.207,0.248,0.32,0.514,0.334,0.808
			c0.019,0.348,0.149,0.644,0.382,0.856c0.449,0.413,0.51,0.884-0.014,1.387c-0.346,0.329-0.345,0.486-0.016,0.833
			c0.175,0.185,0.326,0.382,0.453,0.602c0.253,0.441,0.137,1.069-0.191,1.456c-0.408,0.482-0.965,0.785-1.393,1.238
			c-0.201,0.215-0.268,0.389-0.06,0.648c0.255,0.32,0.272,0.711-0.025,1.016c-0.417,0.43-0.597,0.945-0.754,1.488
			c-0.054,0.187-0.144,0.354-0.26,0.511c-0.267,0.358-0.538,0.694-0.667,1.159c-0.145,0.517-0.893,0.563-1.192,0.104
			c-0.147-0.223-0.294-0.234-0.469-0.095c-0.492,0.388-1.086,0.248-1.635,0.315c-0.308,0.039-0.503-0.326-0.368-0.619
			c0.166-0.359,0.358-0.701,0.685-0.943c0.073-0.055,0.134-0.109,0.112-0.205c-0.021-0.094-0.105-0.078-0.175-0.094
			c-0.197-0.042-0.383-0.12-0.583-0.163c-0.378-0.084-0.587-0.552-0.434-0.921c0.067-0.156,0.07-0.283-0.052-0.426
			c-0.423-0.486-0.216-1.299,0.526-1.407c0.34-0.05,0.461-0.206,0.457-0.579c-0.007-0.545-0.223-1.061-0.167-1.605
			c0.011-0.095-0.003-0.199-0.132-0.223c-0.166-0.025-0.228,0.1-0.238,0.213c-0.029,0.318-0.179,0.564-0.403,0.779
			c-0.229,0.22-0.509,0.359-0.792,0.484c-0.276,0.123-0.538-0.035-0.464-0.321c0.157-0.598-0.012-1.293,0.535-1.792
			c0.229-0.208,0.104-0.547-0.181-0.682c-0.12-0.057-0.24-0.104-0.365-0.145c-0.459-0.154-0.658-0.005-0.854,0.451
			c-0.199,0.466-0.188,0.96-0.329,1.429c-0.063,0.213-0.159,0.324-0.373,0.375c-0.333,0.078-0.569,0.223-0.62,0.633
			c-0.047,0.367-0.416,0.344-0.697,0.338c-0.554-0.01-0.971-0.213-1.183-0.787c-0.13-0.352-0.524-0.377-0.844-0.463
			c-0.545-0.146-0.97-0.446-1.223-0.955c-0.132-0.266-0.268-0.525-0.313-0.836c-0.056-0.38-0.384-0.488-0.715-0.539
			c-0.165-0.025-0.336-0.009-0.505-0.016c-0.42-0.018-0.792-0.084-0.978-0.555c-0.104-0.265-0.384-0.337-0.642-0.219
			c-0.226,0.103-0.474,0.157-0.675,0.315c-0.388,0.302-0.759,0.015-1.122-0.062c-0.765-0.159-1.412-0.558-1.483-1.384
			c-0.079-0.924-0.14-1.247,0.942-1.503c0.415-0.097,0.78-0.357,1.219-0.388c0.042-0.004,0.11-0.044,0.116-0.076
			c0.057-0.341,0.405-0.38,0.581-0.578c0.29-0.326,0.662-0.544,0.962-0.842c0.41-0.409,0.925-0.56,1.437-0.741
			C134.36,8.349,134.476,8.359,134.608,8.349"/>
		<path style="fill:#F1A200;" d="M139.355,25.465c-0.19,0.307-0.254,0.635-0.521,0.859c-0.18,0.153-0.36,0.236-0.546,0.145
			c-0.199-0.1-0.435-0.229-0.449-0.494c-0.033-0.551-0.015-1.097,0.241-1.61c0.148-0.298,0.467-0.489,0.794-0.388
			c0.199,0.06,0.264,0.017,0.344-0.17c0.169-0.393,0.097-0.805,0.126-1.207c0.013-0.179-0.131-0.209-0.272-0.205
			c-0.376,0.009-0.516-0.239-0.605-0.547c-0.146-0.498,0.052-1-0.027-1.504c-0.028-0.184,0.691-0.725,0.882-0.703
			c0.226,0.028,0.292,0.228,0.392,0.383c0.037,0.057,0.016,0.152,0.054,0.205c0.113,0.157,0.15,0.429,0.39,0.412
			c0.203-0.013,0.332-0.196,0.406-0.397c0.07-0.192,0.195-0.313,0.423-0.325c0.224-0.012,0.384,0.068,0.464,0.262
			c0.063,0.152,0.169,0.265,0.272,0.377c0.242,0.259,0.272,0.563,0.171,0.873c-0.182,0.551-0.391,1.095-0.594,1.64
			c-0.033,0.088-0.082,0.184-0.149,0.242c-0.476,0.405-0.491,0.979-0.399,1.489c0.057,0.318,0.148,0.636,0.166,0.963
			c0.022,0.402-0.241,0.633-0.636,0.524c-0.209-0.056-0.474-0.003-0.616-0.226C139.55,25.886,139.548,25.649,139.355,25.465"/>
		<path style="fill:#F1A200;" d="M109.128,25.28c0.15-0.518-0.035-1.153,0.25-1.73c0.109-0.221-0.041-0.35-0.209-0.426
			c-0.354-0.162-0.523-0.459-0.678-0.787c-0.137-0.291-0.291-0.574-0.461-0.844c-0.147-0.236-0.205-0.481-0.201-0.754
			c0.003-0.159-0.001-0.32,0.184-0.389c0.183-0.066,0.336,0.012,0.455,0.137c0.201,0.205,0.411,0.393,0.654,0.551
			c0.169,0.111,0.257,0.037,0.281-0.119c0.048-0.301,0.039-0.594-0.167-0.854c-0.153-0.194-0.282-0.416-0.061-0.641
			c0.268-0.268,0.565-0.272,0.829-0.063c0.196,0.157,0.412,0.287,0.604,0.447c0.133,0.109,0.298,0.232,0.213,0.447
			c-0.077,0.193-0.258,0.191-0.429,0.198c-0.428,0.013-0.506,0.103-0.455,0.53c0.056,0.493,0.385,0.762,0.889,0.729
			c0.224-0.014,0.407,0.065,0.5,0.273c0.098,0.221,0.055,0.463-0.139,0.584c-0.326,0.209-0.522,0.688-1.049,0.524
			c-0.098-0.03-0.28,0.026-0.291,0.204c-0.012,0.211,0.118,0.356,0.264,0.488c0.118,0.102,0.222,0.041,0.317-0.047
			c0.045-0.037,0.086-0.082,0.129-0.125c0.172-0.172,0.371-0.293,0.612-0.178c0.23,0.107,0.148,0.342,0.122,0.517
			c-0.058,0.372-0.001,0.62,0.447,0.622c0.122,0.001,0.227,0.098,0.247,0.225c0.021,0.125-0.084,0.197-0.173,0.254
			c-0.298,0.19-0.608,0.344-0.98,0.262c-0.297-0.063-0.511,0.041-0.657,0.309c-0.232,0.428-0.418,0.528-0.767,0.426
			C109.022,25.94,109.169,25.612,109.128,25.28"/>
		<path style="fill:#F1A200;" d="M114.498,4.149c0.035-0.185-0.064-0.441,0.087-0.676c0.497-0.769,1.173-1.053,1.965-0.599
			c0.295,0.169,0.378,0.051,0.469-0.159c0.117-0.271,0.189-0.585,0.565-0.587c0.398,0,0.627,0.222,0.833,0.566
			c0.25,0.415,0.295,0.901,0.537,1.313c0.075,0.128-0.258,0.479-0.484,0.508c-0.486,0.06-0.936-0.029-1.301-0.385
			c-0.094-0.09-0.187-0.091-0.296-0.056c-0.138,0.044-0.178,0.149-0.182,0.278c-0.01,0.322,0.014,0.645-0.122,0.957
			c-0.152,0.353-0.404,0.511-0.791,0.443C114.896,5.6,114.425,5.271,114.498,4.149"/>
		<path style="fill:#F1A200;" d="M116.806,25.708c0,0.086-0.084,0.217-0.194,0.297c-0.298,0.221-0.583,0.5-1.013,0.346
			c-0.151-0.055-0.273,0.008-0.4,0.09c-0.096,0.061-0.232,0.143-0.333,0.063c-0.104-0.082-0.118-0.226-0.065-0.364
			c0.029-0.076,0.043-0.163,0.059-0.245c0.055-0.285-0.074-0.41-0.361-0.316c-0.315,0.103-0.621,0.24-0.85,0.494
			c-0.504,0.558-1.258,0.77-1.784,1.294c-0.04,0.04-0.106,0.056-0.163,0.077c-0.237,0.088-0.332-0.014-0.34-0.25
			c-0.01-0.293,0.182-0.488,0.373-0.627c0.636-0.453,1.136-1.082,1.856-1.432c0.487-0.236,1.164-0.195,1.587,0.158
			c0.114,0.096,0.193,0.038,0.276-0.046c0.118-0.116,0.237-0.222,0.407-0.28C116.323,24.809,116.819,25.152,116.806,25.708"/>
		<path style="fill:#F1A200;" d="M111.332,9.796c-0.036,0.187-0.091,0.353-0.253,0.433c-0.137,0.066-0.267,0.015-0.397-0.077
			c-0.341-0.239-0.673-0.489-1.059-0.665c-0.438-0.2-0.503-0.59-0.204-0.936c0.074-0.085,0.172-0.165,0.281-0.127
			c0.663,0.226,1.284,0.511,1.581,1.216C111.304,9.695,111.317,9.753,111.332,9.796"/>
		<path style="fill:#F1A200;" d="M108.222,23.152c0.367,0.038,0.628,0.265,0.603,0.481c-0.028,0.245-0.201,0.326-0.409,0.291
			c-0.273-0.046-0.448-0.242-0.474-0.508C107.92,23.202,108.114,23.168,108.222,23.152"/>
		<path style="fill:#F1A200;" d="M136.726,23.991c-0.112-0.145-0.342-0.107-0.485,0.089c-0.089,0.125-0.21,0.231-0.326,0.335
			c-0.135,0.122-0.237,0.114-0.338-0.064c-0.225-0.398-0.081-0.738,0.362-0.817c0.455-0.08,0.865-0.399,0.848-0.696
			c-0.055-0.891,0.016-1.779-0.001-2.672c-0.005-0.243-0.053-0.439-0.257-0.595c-0.197-0.151-0.234-0.332-0.07-0.56
			c0.146-0.205,0.226-0.457,0.153-0.715c-0.146-0.517-0.481-0.933-0.845-1.291c-0.435-0.432-1.07-0.595-1.545-0.988
			c-0.299-0.25-0.658-0.4-0.945-0.683c-0.338-0.333-0.783-0.681-1.248-0.639c-0.669,0.059-1.354,0.127-2.013,0.31
			c-0.29,0.078-0.592,0.047-0.809-0.18c-0.304-0.317-0.671-0.545-1.045-0.753c-0.52-0.287-1.05-0.527-1.691-0.327
			c-0.685,0.212-1.281,0.622-1.984,0.794c-0.321,0.081-0.571,0.117-0.828-0.106c-0.259-0.228-0.538-0.426-0.763-0.695
			c-0.268-0.321-0.713-0.372-1.035-0.613c-0.244-0.181-0.518-0.17-0.752-0.075c-0.935,0.384-1.885,0.726-2.83,1.082
			c-1.182,0.447-2.377,0.853-3.556,1.3c-0.37,0.143-0.63-0.063-0.592-0.449c0.073-0.732,0.034-1.466,0.025-2.197
			c-0.001-0.204-0.054-0.406-0.049-0.61c0.004-0.188,0.128-0.317,0.319-0.326c0.185-0.009,0.291,0.091,0.285,0.287
			c-0.002,0.074,0.003,0.154,0.075,0.193c0.409,0.222,0.544,0.605,0.641,1.028c0.029,0.126,0.157,0.236,0.255,0.338
			c0.242,0.254,0.557,0.305,0.863,0.201c0.307-0.105,0.23-0.406,0.229-0.652c-0.001-0.061,0-0.123-0.009-0.182
			c-0.097-0.654-0.148-1.336-0.924-1.599c-0.105-0.036-0.142-0.135-0.132-0.235c0.026-0.274,0.047-0.548,0.103-0.817
			c0.106-0.524,0.175-0.562,0.662-0.373c0.267,0.105,0.523,0.214,0.77-0.02c0.272-0.257,0.514-0.545,0.937-0.57
			c0.082-0.004,0.159-0.165,0.231-0.259c0.298-0.389,0.569-0.802,1.028-1.03c0.112-0.057,0.178-0.177,0.13-0.267
			c-0.153-0.292-0.192-0.645-0.462-0.874c-0.274-0.233-0.277-0.407-0.02-0.641c0.297-0.268,0.31-0.432,0.092-0.78
			c-0.092-0.147-0.263-0.197-0.357-0.336c-0.227-0.331-0.605-0.438-0.887-0.256c-0.226,0.145-0.229,0.539-0.092,0.873
			c0.135,0.333,0.475,0.523,0.534,0.917c0.03,0.196,0.092,0.355-0.099,0.443c-0.206,0.097-0.401,0.026-0.517-0.19
			c-0.09-0.169-0.16-0.351-0.266-0.509c-0.315-0.471-0.837-0.485-1.211-0.075c-0.197,0.216-0.29,0.523-0.575,0.666
			c-0.121,0.06-0.187,0.272-0.354,0.186c-0.163-0.081-0.166-0.278-0.186-0.439c-0.048-0.39-0.298-0.671-0.718-0.76
			c-0.357-0.076-0.549,0.162-0.717,0.419c-0.059,0.089-0.095,0.193-0.153,0.283c-0.177,0.271-0.109,0.58-0.155,0.872
			c-0.019,0.125-0.021,0.351-0.231,0.26c-0.153-0.065-0.243-0.257-0.41-0.335c0.011,0.006,0.022,0.012,0.032,0.017
			c0.018-0.196,0.03-0.393,0.058-0.588c0.009-0.067,0.063-0.131,0.08-0.199c0.041-0.164,0.099-0.331-0.009-0.533
			c0.002-0.006,0.003-0.013,0.005-0.02c0.116-0.413,0.128-0.791-0.259-1.089c-0.121-0.093-0.254-0.209-0.311-0.346
			c-0.179-0.427-0.542-0.409-0.884-0.363c-0.485,0.062-0.607,0.191-0.515,0.5c0.095,0.321,0.105,0.642,0.075,0.962
			c-0.056,0.584,0.104,1.047,0.571,1.43c0.5,0.409,0.831,0.896,0.784,1.616c-0.02,0.305,0.023,0.743,0.433,0.917
			c0.365,0.155,0.388,0.416,0.212,0.789c-0.304-0.342-0.684-0.38-1.092-0.381c-0.343,0-0.517,0.282-0.785,0.396
			c-0.353,0.153-0.248,0.466-0.208,0.722c0.034,0.227,0.214,0.326,0.454,0.319c0.187-0.002,0.4-0.057,0.55,0.098
			c0.176,0.182,0.399,0.256,0.621,0.34c0.454,0.176,0.489,0.227,0.395,0.72c-0.127,0.664-0.215,1.324-0.119,2.002
			c0.049,0.346,0.138,0.596,0.531,0.651c0.09,0.013,0.26-0.013,0.282,0.163c0.019,0.148-0.099,0.221-0.188,0.287
			c-0.424,0.307-0.854,0.607-1.291,0.898c-0.628,0.414-1.267,0.809-1.892,1.228c-0.131,0.088-0.268,0.215-0.237,0.413
			c0.022,0.145,0.147,0.193,0.26,0.217c0.376,0.077,0.752,0.158,1.132,0.199c0.344,0.038,0.486,0.195,0.48,0.536
			c-0.011,0.734-0.005,1.468-0.005,2.202c0,0.183-0.019,0.371,0.083,0.527c0.18,0.278,0.227,0.571,0.207,0.895
			c-0.018,0.294,0.245,0.633,0.527,0.688c0.435,0.088,0.871,0.189,1.313,0.217c0.309,0.02,0.497,0.113,0.664,0.377
			c0.271,0.426,0.526,0.459,0.984,0.181c0.169-0.102,0.335-0.171,0.537-0.165c0.602,0.014,1.203,0.018,1.805,0.03
			c0.111,0.003,0.26-0.036,0.277,0.146c0.016,0.157-0.087,0.254-0.208,0.308c-0.14,0.063-0.3,0.076-0.443,0.131
			c-0.452,0.181-0.666,0.652-0.468,0.99c0.329,0.555,1.533,0.693,1.839,0.071c0.114-0.233,0.34-0.389,0.563-0.478
			c0.234-0.093,0.339-0.158,0.164-0.395c-0.038-0.053-0.044-0.148,0.033-0.193c0.088-0.051,0.186-0.053,0.273,0.003
			c0.08,0.05,0.052,0.125,0.025,0.191c-0.022,0.056-0.048,0.112-0.08,0.16c-0.15,0.253-0.039,0.46,0.119,0.648
			c0.156,0.189,0.336,0.13,0.51,0.016c0.08-0.054,0.164-0.024,0.245-0.019c0.288,0.023,0.476-0.076,0.468-0.396
			c-0.004-0.222,0.119-0.244,0.301-0.247c0.238-0.005,0.435,0.139,0.662,0.15c0.823,0.037,1.564,0.436,2.381,0.52
			c0.961,0.098,1.876,0.508,2.866,0.427c0.305-0.024,0.591,0.06,0.878,0.164c0.46,0.171,0.962,0.201,1.405,0.031
			c0.276-0.103,0.45-0.159,0.717-0.003c0.286,0.168,0.633,0.18,0.933,0.015c0.211-0.118,0.188-0.366,0.199-0.583
			c0.007-0.14-0.098-0.215-0.133-0.328c-0.046-0.143-0.069-0.314,0.047-0.407c0.214-0.171,0.482-0.101,0.73-0.073
			c0.152,0.018,0.175,0.141,0.179,0.27c0.007,0.389,0.178,0.737,0.302,1.09c0.132,0.377,0.627,0.524,0.883,0.295
			c0.169-0.15,0.352-0.313,0.451-0.512c0.208-0.41,0.478-0.629,0.963-0.554c0.161,0.026,0.415,0.02,0.444-0.188
			c0.06-0.399,0.258-0.636,0.606-0.822c0.159-0.084,0.325-0.195,0.469-0.322C136.872,24.403,136.841,24.137,136.726,23.991
			 M111.669,18.502c-0.166-0.023-0.372-0.002-0.418-0.203c-0.049-0.221,0.145-0.336,0.293-0.451
			c0.063-0.049,0.159-0.049,0.236-0.084c0.38-0.17,0.73-0.342,0.997-0.72c0.298-0.421,0.732-0.739,1.269-0.882
			c0.372-0.098,0.652,0.016,0.913,0.259c0.869,0.822,1.596,1.779,2.481,2.585c0.209,0.188,0.12,0.307-0.094,0.382
			c-0.1,0.036-0.21,0.042-0.252,0.049c-0.195-0.009-0.313-0.031-0.441-0.083c-0.241-0.098-0.51-0.196-0.762-0.183
			c-0.764,0.038-1.463-0.255-2.196-0.359C113.019,18.713,112.345,18.602,111.669,18.502 M114.061,23.018
			c-0.162-0.002-0.201-0.135-0.203-0.279c-0.004-0.168,0.043-0.335,0.226-0.34c0.179-0.005,0.139,0.184,0.168,0.289
			C114.22,22.829,114.276,23.018,114.061,23.018 M115.84,23.469c-0.284,0.001-0.544-0.317-0.548-0.674
			c-0.005-0.242,0.159-0.297,0.351-0.306c0.271-0.011,0.475,0.255,0.474,0.632C116.079,23.258,116.103,23.466,115.84,23.469
			 M117.009,21.774c-0.888-0.036-1.753-0.271-2.647-0.25c-0.31,0.008-0.612-0.125-0.729-0.465c-0.127-0.372-0.231-0.75-0.317-1.034
			c0.005-0.392,0.139-0.488,0.404-0.373c0.188,0.081,0.38,0.056,0.565,0.052c0.633-0.007,1.243,0.09,1.85,0.27
			c0.212,0.06,0.455,0.043,0.682,0.027c0.276-0.02,0.505,0.138,0.768,0.166c0.149,0.018,0.196,0.182,0.135,0.281
			c-0.158,0.257-0.106,0.533-0.122,0.803C117.568,21.687,117.436,21.79,117.009,21.774 M117.597,23.592
			c-0.264-0.024-0.458-0.113-0.437-0.367c0.017-0.191-0.011-0.477,0.325-0.455c0.285,0.018,0.441,0.201,0.451,0.47
			C117.947,23.47,117.768,23.559,117.597,23.592 M117.734,17.888c-0.124-0.134-0.2-0.292-0.319-0.421
			c-0.388-0.414-0.72-0.889-1.263-1.139c-0.119-0.055-0.271-0.149-0.237-0.326c0.033-0.172,0.133-0.299,0.307-0.371
			c1.021-0.418,2.052-0.812,3.052-1.275c0.389-0.181,0.813-0.25,1.183-0.47c0.204-0.123,0.441-0.096,0.695-0.093
			c0.604-0.076,1.03,0.364,1.522,0.627c0.262,0.14,0.489,0.342,0.729,0.521c0.228,0.168,0.272,0.346,0.039,0.559
			c-0.945,0.862-1.946,1.646-3.093,2.228c-0.182,0.092-0.263,0.245-0.24,0.442c0.026,0.229-0.091,0.359-0.281,0.45
			c-0.235,0.108-0.471,0.222-0.708,0.332c-0.16,0.075-0.293,0.011-0.376-0.118C118.484,18.437,118.052,18.225,117.734,17.888
			 M120.819,19.695c0.695-0.419,1.447-0.72,2.2-1.008c0.22-0.083,0.396-0.204,0.558-0.367c0.313-0.315,0.458-0.31,0.771,0.017
			c0.32,0.335,0.579,0.727,0.934,1.033c0.485,0.42,0.896,0.912,1.291,1.418c0.058,0.074,0.145,0.145,0.088,0.252
			c-0.049,0.094-0.146,0.053-0.192,0.059c-1.202-0.25-2.431-0.161-3.56-0.663c-0.333-0.147-0.75-0.158-1.134-0.124
			c-0.354,0.031-0.66-0.082-0.96-0.243c-0.081-0.043-0.191-0.069-0.188-0.192C120.632,19.754,120.737,19.745,120.819,19.695
			 M119.872,23.913c-0.27-0.001-0.269-0.18-0.27-0.296c-0.019-0.233,0.013-0.36,0.217-0.351c0.215,0.01,0.284,0.14,0.282,0.334
			C120.099,23.762,120.112,23.915,119.872,23.913 M121.625,24.282c-0.214-0.011-0.259-0.182-0.257-0.355
			c0.002-0.15,0.087-0.236,0.251-0.23c0.222,0.009,0.224,0.165,0.229,0.285C121.838,24.163,121.789,24.29,121.625,24.282
			 M121.89,22.715c-0.047,0.005-0.072-0.053-0.064-0.106c0.008-0.071,0.061-0.103,0.115-0.124c0.224-0.086,0.446-0.086,0.654,0.042
			c0.127,0.076,0.239,0.177,0.405,0.303C122.562,22.975,122.245,22.692,121.89,22.715 M123.604,24.871
			c-0.242,0.036-0.589-0.349-0.602-0.62c-0.011-0.229,0.091-0.318,0.321-0.316c0.334,0.004,0.587,0.176,0.594,0.463
			C123.864,24.567,123.875,24.829,123.604,24.871 M125.919,25.059c-0.295,0.086-0.62,0.19-0.873-0.07
			c-0.127-0.131-0.195-0.335-0.155-0.533c0.024-0.125,0.154-0.228,0.261-0.216c0.282,0.034,0.574-0.002,0.846,0.103
			c0.148,0.057,0.178,0.178,0.181,0.324C126.155,24.836,126.097,25.005,125.919,25.059 M129.132,25.266
			c-0.047,0.281-0.263,0.362-0.541,0.354c-0.518-0.017-1.034-0.025-1.535-0.174c-0.318-0.092-0.477-0.582-0.273-0.84
			c0.063-0.079,0.135-0.113,0.25-0.09c0.15,0.033,0.311,0.026,0.432,0.035c0.474-0.041,0.895,0.027,1.295,0.212
			C128.974,24.863,129.174,25.004,129.132,25.266 M132.431,24.499c-0.286,0.008-0.56,0-0.837-0.134
			c-0.43-0.206-0.91-0.269-1.373-0.371c-0.224-0.05-0.333-0.103-0.211-0.389c0.184-0.434-0.299-0.431-0.497-0.594
			c-0.182-0.148-0.422-0.108-0.578,0.081c-0.089,0.107,0.023,0.225,0.083,0.326c0.106,0.176,0.31,0.25,0.521,0.452
			c-0.521,0.093-0.99,0.087-1.403-0.034c-0.836-0.246-1.686-0.334-2.543-0.395c-0.325-0.025-0.633-0.079-0.935-0.212
			c-0.245-0.108-0.521-0.052-0.782-0.076c-0.107-0.009-0.22,0.007-0.323-0.022c-0.521-0.135-0.518-0.137-0.245-0.564
			c0.031-0.051,0.027-0.122,0.06-0.17c0.113-0.164,0.296-0.33,0.123-0.536c-0.183-0.22-0.435-0.351-0.732-0.304
			c-0.295,0.047-0.563-0.031-0.843-0.104c-0.483-0.123-0.983-0.088-1.469-0.023c-0.196,0.027-0.426,0.189-0.292,0.504
			c0.053,0.125,0.074,0.271-0.07,0.394c-0.153,0.128-0.242-0.021-0.356-0.056c-0.514-0.151-0.833-0.45-0.765-1.039
			c0.025-0.213-0.124-0.385-0.179-0.579c-0.058-0.207,0.016-0.272,0.206-0.255c0.391,0.041,0.797,0.01,1.113,0.322
			c0.133,0.129,0.311,0.152,0.5,0.156c0.644,0.01,1.284,0.116,1.92,0.188c0.535,0.061,1.101,0.193,1.604,0.438
			c0.188,0.092,0.371,0.105,0.559,0.097c0.594-0.037,1.152,0.125,1.725,0.242c0.64,0.131,1.289,0.277,1.955,0.209
			c0.549-0.053,1.088-0.064,1.628,0.115c0.218,0.071,0.482,0.061,0.716,0.025c0.623-0.096,1.188,0.128,1.77,0.27
			c0.145,0.033,0.264,0.127,0.251,0.268c-0.038,0.428,0.095,0.824,0.165,1.234C132.975,24.426,132.894,24.487,132.431,24.499
			 M127.737,20.379c0.219-0.226,0.543-0.305,0.725-0.569c0.303-0.439,0.769-0.658,1.22-0.896c0.288-0.151,0.533-0.082,0.782,0.133
			c0.545,0.474,0.978,1.043,1.456,1.572c0.135,0.148,0.312,0.259,0.458,0.396c0.139,0.133,0.322,0.293,0.232,0.487
			c-0.09,0.2-0.342,0.184-0.546,0.229c-0.243-0.059-0.497-0.096-0.73-0.184c-0.424-0.163-0.868-0.166-1.308-0.199
			c-0.728-0.057-1.467,0-2.172-0.25C127.485,20.967,127.453,20.674,127.737,20.379 M133.062,19.967
			c-0.211-0.306-0.476-0.525-0.756-0.768c-0.319-0.273-0.633-0.568-0.984-0.797c-0.549-0.356-1.138-0.593-1.748-0.178
			c-0.632,0.436-1.344,0.738-2.059,1.02c-0.156,0.063-0.301,0.135-0.421,0.266c-0.206,0.226-0.452,0.218-0.671,0.026
			c-0.594-0.517-1.229-0.99-1.717-1.622c-0.174-0.225-0.392-0.309-0.689-0.277c-0.382,0.043-0.77,0.015-1.154,0.029
			c-0.373,0.014-0.723,0.127-1.06,0.286c-0.259,0.124-0.55,0.009-0.817,0.119c0.361-0.39,0.754-0.678,1.283-0.784
			c0.525-0.105,1.031-0.275,1.478-0.621c0.373-0.288,0.867-0.367,1.273-0.639c0.281-0.188,0.404-0.375,0.404-0.688
			c0-0.545,0.091-0.645,0.611-0.694c0.218-0.021,0.422-0.073,0.611-0.191c0.286-0.179,0.548-0.125,0.835,0.054
			c0.564,0.351,1.086,0.773,1.664,1.091c0.428,0.24,0.93,0.291,1.412,0.029c1.148-0.626,1.494-0.445,2.229,0.187
			c0.219,0.188,0.443,0.363,0.699,0.496c0.325,0.168,0.59,0.403,0.816,0.688c0.242,0.301,0.561,0.518,0.894,0.705
			c0.583,0.331,0.612,0.762,0.106,1.209c-0.466,0.41-0.902,0.85-1.438,1.176C133.582,20.261,133.242,20.233,133.062,19.967
			 M134.652,24.833c-0.051,0.189-0.097,0.512-0.402,0.518c-0.212,0.008-0.261-0.289-0.3-0.492c-0.022-0.114,0.4-0.436,0.539-0.428
			C134.622,24.438,134.666,24.527,134.652,24.833 M134.089,23.929c-0.071,0.072-0.129,0.159-0.234,0.116
			c-0.119-0.047-0.172-0.146-0.195-0.279c-0.084-0.478-0.081-0.977-0.345-1.41c-0.104-0.17,0.033-0.322,0.146-0.393
			c0.727-0.463,1.295-1.104,1.916-1.685c0.103-0.093,0.192-0.289,0.332-0.232c0.166,0.067,0.052,0.278,0.077,0.39
			c-0.045,0.667-0.09,1.301-0.128,1.936c-0.008,0.115-0.03,0.232-0.126,0.287C134.959,22.978,134.544,23.475,134.089,23.929"/>
		<path style="fill:#F1A200;" d="M126.94,23.336c-0.559,0.042-1.039-0.106-1.416-0.543c-0.063-0.074-0.152-0.123-0.111-0.236
			c0.04-0.105,0.135-0.129,0.233-0.133c0.358-0.019,0.72-0.066,1.066,0.076c0.206,0.086,0.425,0.057,0.639,0.07
			c0.265,0.018,0.448,0.17,0.46,0.404c0.014,0.281-0.223,0.363-0.477,0.361C127.203,23.336,127.071,23.336,126.94,23.336"/>
	</g>
</g>
</svg>
