<?xml version="1.0" encoding="iso-8859-1"?>
<!-- Generator: Adobe Illustrator 16.0.0, SVG Export Plug-In . SVG Version: 6.00 Build 0)  -->
<!DOCTYPE svg PUBLIC "-//W3C//DTD SVG 1.1//EN" "http://www.w3.org/Graphics/SVG/1.1/DTD/svg11.dtd">
<svg version="1.1" id="&#x5716;&#x5C64;_1" xmlns="http://www.w3.org/2000/svg" xmlns:xlink="http://www.w3.org/1999/xlink" x="0px"
	 y="0px" width="114.119px" height="145.732px" viewBox="0 0 114.119 145.732" style="enable-background:new 0 0 114.119 145.732;"
	 xml:space="preserve">
<g>
	<g>
		<g>
			<path style="fill:#3A4B40;" d="M113.959,68.812c-0.155-0.133-0.347-0.301-0.473-0.542c-0.158-0.305-0.278-0.614-0.394-0.913
				c-0.188-0.481-0.365-0.939-0.683-1.314c-0.446-0.526-0.896-1.024-1.507-1.333c-0.402-0.203-0.85-0.316-1.324-0.437
				c-0.357-0.091-0.729-0.184-1.095-0.321c-0.179-0.068-0.369-0.018-0.519,0.134c-0.125,0.129-0.509,0.523-1.145,0.421
				c-1.434-0.226-2.773,0.189-4.346,0.88c-0.15,0.066-0.305,0.126-0.461,0.185c-0.162,0.062-0.326,0.124-0.484,0.197
				c-0.446,0.21-0.904,0.319-1.348,0.425c-0.565,0.136-1.1,0.263-1.52,0.587c-0.367,0.281-0.826,0.289-1.15,0.02
				c-0.019,0.021-0.041,0.05-0.069,0.085L97.4,66.946c-0.128,0.179-0.367,0.509-0.816,0.543c-0.362,0.027-0.668,0.282-1.021,0.576
				c-0.428,0.356-0.951,0.792-1.689,0.847c-0.813,0.938-1.9,1.163-2.865,1.363l-0.326,0.067c-1.563,0.341-2.553,1.213-3.025,2.67
				c-0.281,0.869-0.352,1.425,0.085,1.879c0.215,0.225,0.452,0.431,0.703,0.648c0.379,0.331,0.771,0.673,1.108,1.098
				c0.67-0.035,1.129,0.332,1.498,0.625l0.069,0.055c0.763,0.602,1.411,1.064,2.251,1.08c0.516,0.01,0.999,0.244,1.479,0.719
				c0.103,0.099,0.195,0.223,0.283,0.346c0.047,0.066,0.118,0.165,0.15,0.192c0.854,0.279,1.271,0.995,1.607,1.567
				c0.166,0.281,0.322,0.549,0.514,0.748c0.473,0.489,1.113,1.114,1.88,1.6c0.185,0.068,0.583,0.219,0.658,0.699
				c0.032,0.205,0.032,0.719-0.65,1.012c-0.116,0.05-0.226,0.172-0.353,0.314l-0.135,0.146c-0.434,0.455-0.938,0.689-1.543,0.717
				c-0.612,0.029-1.338,0.025-2.074-0.208c-1.194-0.376-2.43-0.342-3.737-0.306l-0.237,0.007c-0.023,0.001-0.049,0.005-0.076,0.008
				c-0.77,0.107-0.949-0.35-0.99-0.551c-0.014-0.067-0.029-0.09-0.029-0.09c-0.018-0.001-0.156-0.011-0.248-0.017
				c-0.128-0.011-0.257-0.02-0.379-0.045c-0.661-0.133-1.239-0.43-1.719-0.885c-0.816-0.773-1.588-1.504-2.631-1.772
				c-0.145-0.038-0.414-0.134-0.596-0.364c-0.199-0.254-0.422-0.492-0.658-0.744c-0.457-0.488-0.929-0.992-1.263-1.656l-0.028-0.055
				c-0.248-0.498-0.312-0.51-0.492-0.479c-0.254,0.045-0.613-0.005-0.873-0.51c-0.182-0.285-0.313-0.535-0.439-0.774
				c-0.275-0.527-0.515-0.981-0.969-1.251c-0.357-0.213-0.559-0.528-0.553-0.863c0.003-0.124,0.035-0.318,0.188-0.509
				c-0.294-0.28-0.495-0.604-0.677-0.9c-0.096-0.153-0.189-0.308-0.299-0.452c-0.014-0.018-0.35-0.455-0.51-0.36
				c-0.307,0.178-0.512,0.417-0.565,0.655c-0.047,0.212,0.021,0.451,0.201,0.711c0.043,0.062,0.088,0.121,0.133,0.181
				c0.185,0.245,0.415,0.549,0.506,0.978c0.177,0.818,0.544,1.518,1.126,2.135l0.057,0.063c0.359,0.379,0.807,0.85,0.896,1.507
				c0.107,0.776,0.496,1.311,1.262,1.735c1.02,0.566,1.012,1.408,0.918,1.859c-0.022,0.105-0.039,0.305,0.104,0.46
				c0.44,0.476,0.563,1.019,0.673,1.497c0.127,0.563,0.868,1.23,1.122,1.253l0.104,0.003c1.033,0.037,2.203,0.079,3.111,1.107
				c0.107,0.12,0.314,0.19,0.531,0.174c0.184-0.012,0.615-0.043,0.885,0.334c0.271,0.382,0.717,0.544,1.23,0.732
				c0.136,0.051,0.271,0.099,0.402,0.152c0.836,0.34,1.702,0.689,2.551,0.785c0.543,0.063,1.084,0.139,1.627,0.217
				c0.769,0.108,1.563,0.221,2.345,0.285c0.182,0.016,0.396-0.007,0.622-0.031c0.197-0.021,0.412-0.044,0.636-0.044
				c0.351,0,0.722,0.058,1.081,0.266c0.259-0.103,0.512-0.115,0.712-0.126c0.09-0.004,0.179-0.008,0.267-0.024
				c0.549-0.107,1.105-0.19,1.662-0.272c1.717-0.254,3.338-0.494,4.752-1.467c1.037-0.715,1.676-1.203,1.696-2.15
				c-0.01-0.109-0.01-0.222-0.009-0.333c0.001-0.032,0.001-0.073,0.001-0.113c-0.599-0.098-0.983-0.468-1.159-1.104
				c-0.092-0.332-0.251-0.465-0.631-0.525c-0.246-0.04-0.6-0.136-0.881-0.37c-0.867-0.717-1.895-1.166-2.98-1.64
				c-1.186-0.518-2.412-1.053-3.447-1.973c-0.08-0.07-0.211-0.139-0.373-0.195c-0.725-0.25-1.365-0.633-1.959-1.002
				c-0.246-0.154-0.467-0.326-0.683-0.491c-0.347-0.269-0.676-0.522-1.047-0.649c-1.178-0.401-1.994-1.295-2.426-2.654
				c-0.079-0.25-0.16-0.393-0.298-0.53c-0.358-0.356-0.518-0.795-0.45-1.232c0.069-0.443,0.362-0.82,0.825-1.057
				c0.111-0.058,0.164-0.12,0.205-0.239c0.183-0.53,0.531-0.919,0.838-1.261l0.047-0.055c0.629-0.704,1.404-1.094,2.152-1.474
				c0.242-0.122,0.484-0.244,0.721-0.378c0.476-0.269,0.984-0.46,1.648-0.618c0.174-0.042,0.348-0.086,0.52-0.132
				c0.756-0.197,1.538-0.401,2.4-0.328c0.629-0.409,1.203-0.115,1.424-0.004c0.416,0.213,0.789,0.456,1.14,0.745
				c0.55,0.452,1.062,0.64,1.61,0.592c1.187-0.101,2.354,0.081,3.572,0.559c0.043,0.016,0.067,0.02,0.077,0.022
				c0.003-0.004,0.017-0.015,0.037-0.037c0.407-0.435,0.933-0.549,1.483-0.319c0.154,0.065,0.314,0.119,0.475,0.174
				c0.275,0.092,0.563,0.19,0.844,0.338c0.293,0.155,0.625,0.236,1.069-0.217c0.417-0.426,0.664-0.819,0.752-1.196
				C114.08,68.917,114.011,68.855,113.959,68.812"/>
			<path style="fill:#3A4B40;" d="M65.405,83.861c0.104,0.334,0.211,0.668,0.324,0.998c0.32,0.922,0.731,1.074,1.053,1.104
				c0.496,0.045,0.894,0.18,1.287,0.434c0.196,0.129,0.467,0.074,0.612,0.027c0.431-0.133,0.849-0.488,0.996-0.844
				c0.185-0.445,0.089-0.908-0.021-1.445c-0.111-0.541-0.236-1.148-0.055-1.791l-0.031-0.039c-0.396-0.479-0.879-1.064-0.902-1.893
				c-0.025-0.02-0.049-0.039-0.069-0.057c-0.037-0.033-0.079-0.063-0.121-0.094c-0.168-0.121-0.397-0.289-0.506-0.576
				c-0.323-0.863-0.752-1.666-1.206-2.513l-0.25-0.466c-0.38-0.717-0.691-0.863-1.074-0.865l-0.047-0.002c-0.017,0-0.027,0-0.031,0
				c0.002,0.002-0.028,0.029-0.08,0.117c-0.217,0.377-0.205,0.818-0.19,1.33l0.009,0.343c0.012,0.517,0.023,1.05-0.066,1.626
				c-0.047,0.301-0.059,0.619-0.07,0.953c-0.02,0.566-0.041,1.15-0.232,1.744C65.009,82.604,65.21,83.242,65.405,83.861"/>
		</g>
		<g>
			<path style="fill:#3A4B40;" d="M76.134,139.164c0.233-0.164,0.299-0.301,0.27-0.562c-0.045-0.406-0.197-0.667-0.867-0.885
				c-0.227-0.073-0.463-0.126-0.697-0.181c-0.664-0.148-1.414-0.319-2.039-0.91c-0.049-0.026-0.271-0.057-0.344-0.066
				c-0.393-0.053-0.724-0.196-1.046-0.451c-0.227-0.181-0.476-0.344-0.739-0.516c-0.595-0.387-1.262-0.826-1.72-1.537
				c-0.454,0.001-0.835-0.168-1.153-0.314c-0.213-0.097-0.432-0.196-0.56-0.182c-1.153,0.14-2.144-0.164-3.101-0.455l-0.314-0.096
				c-0.294-0.088-0.6-0.154-0.922-0.221c-0.725-0.156-1.471-0.315-2.165-0.755c-0.297-0.188-0.567-0.396-0.831-0.599
				c-0.529-0.405-1.031-0.79-1.656-0.945c-0.69-0.171-1.162-0.68-1.579-1.129c-0.1-0.109-0.2-0.217-0.301-0.317
				c-0.053-0.052-0.129-0.071-0.301-0.11c-0.225-0.053-0.533-0.123-0.787-0.392c-0.759-0.807-1.079-1.796-1.312-2.745
				c-0.121-0.491,0.08-0.973,0.524-1.254c0.267-0.168,0.522-0.366,0.792-0.575c0.567-0.442,1.154-0.897,1.919-1.133
				c0.518-0.158,0.93-0.535,1.368-0.938c0.427-0.389,0.869-0.794,1.458-1.062c0.078-0.034,0.163-0.067,0.252-0.105
				c0.139-0.054,0.393-0.155,0.453-0.221c0.236-0.472,0.625-0.825,0.969-1.138c0.359-0.327,0.67-0.608,0.797-1.002
				c0.162-0.508,0.489-0.91,0.777-1.264l0.174-0.216c0.725-0.921,0.993-1.718,0.898-2.665l-0.018-0.177l0.082-0.155
				c0.039-0.078,0.002-0.176-0.19-0.508c-0.151-0.261-0.33-0.57-0.386-0.941c-0.356-0.066-0.623-0.256-0.83-0.401
				c-0.058-0.041-0.115-0.083-0.176-0.118c-0.404-0.256-0.949-0.257-1.425-0.004c-0.444,0.235-0.719,0.633-0.735,1.064
				c-0.025,0.674-0.24,1.205-0.66,1.629l-0.156,0.158c-0.678,0.685-1.378,1.392-2.129,2.033c-0.174,0.148-0.198,0.21-0.189,0.467
				c0.008,0.199,0.038,0.4,0.066,0.602c0.102,0.711,0.227,1.596-0.475,2.404c-0.207,0.24-0.396,0.498-0.598,0.773
				c-0.103,0.139-0.206,0.281-0.312,0.42c-0.199,0.262-0.466,0.613-0.92,0.635c-0.239,0.012-0.468-0.072-0.685-0.25
				c-0.478,0.203-1.422,0.537-2.02-0.375c-0.629-0.057-1.01-0.49-1.275-0.791c-0.068-0.074-0.134-0.152-0.205-0.221
				c-0.48,0.261-0.912,0.068-1.158-0.04l-0.118-0.052c-0.708-0.279-1.276-0.719-1.686-1.303c-0.011-0.016-0.028-0.04-0.196-0.077
				c-0.673-0.152-1.153,0.104-1.438,0.344c-0.44,0.375-0.694,0.952-0.662,1.511c0.016,0.273,0.043,0.549,0.07,0.824
				c0.084,0.854,0.171,1.734-0.045,2.65c0.962,1.193,0.905,2.555,0.745,3.607c-0.087,0.574-0.185,1.225-0.157,1.826
				c0.06,1.237,0.015,2.482-0.028,3.687c-0.032,0.896-0.064,1.821-0.053,2.726c0.002,0.194,0.021,0.393,0.041,0.592
				c0.045,0.488,0.093,0.993-0.052,1.499c-0.109,0.382-0.113,0.683-0.015,1.072c0.322,1.289-0.344,1.873-0.959,2.138
				c-0.205,0.088-0.409,0.263-0.604,0.52c-0.372,0.488-0.35,0.716,0.109,1.159c0.442,0.425,0.846,0.909,1.271,1.521
				c0.083,0.119,0.16,0.252,0.239,0.385c0.283,0.486,0.421,0.67,0.753,0.676c0.804,0.003,1.554-0.637,1.681-1.448
				c0.35-2.236,0.326-4.526,0.277-6.497c-0.006-0.203-0.023-0.412-0.04-0.62c-0.067-0.813-0.143-1.729,0.4-2.595
				c-0.217-0.515-0.141-0.996-0.048-1.363c0.113-0.446,0.113-0.924,0.113-1.43c-0.001-0.473-0.002-0.96,0.09-1.467
				c0.111-0.615,0.345-1.039,0.759-1.369c0.55-0.442,1.11-0.063,1.32,0.078c0.035,0.025,0.07,0.049,0.104,0.07l0.324,0.189
				c0.254,0.147,0.507,0.295,0.754,0.453l0.099,0.063c0.844,0.537,1.717,1.093,2.362,1.968c0.134,0.183,0.253,0.378,0.37,0.575
				c0.331,0.553,0.54,0.872,1.008,0.969c0.306,0.061,0.515,0.264,0.669,0.413c0.036,0.034,0.071,0.069,0.106,0.099
				c0.471,0.396,0.91,0.824,1.334,1.24c0.384,0.375,0.747,0.73,1.134,1.063c0.471,0.406,0.985,0.792,1.482,1.167
				c0.645,0.48,1.311,0.98,1.924,1.553c0.074,0.069,0.218,0.127,0.371,0.189c0.302,0.121,0.676,0.271,0.931,0.654
				c0.86,1.297,2.192,1.407,3.734,1.534l0.331,0.029c0.627,0.054,1.24-0.015,1.641-0.183c0.874-0.365,1.738-0.531,2.619-0.685
				C74.251,140.17,75.27,139.771,76.134,139.164"/>
			<path style="fill:#3A4B40;" d="M46.985,117.534c0.732-0.122,1.488-0.249,2.209-0.421c0.783-0.188,1.58-0.273,2.35-0.354
				c1.228-0.132,2.387-0.254,3.455-0.766c0.139-0.067,0.43-0.165,0.768-0.041c-0.003-0.682,0.094-1.323,0.295-1.949
				c0.446-1.383,0.649-2.862,0.829-4.164c0.029-0.215,0.053-0.428,0.078-0.643c0.115-1.012,0.235-2.059,0.826-3.014
				c0.51-0.826,1.006-1.709,1.469-2.622c0.457-0.901,0.916-1.942,0.57-2.899c-0.479-1.321-1.693-1.932-2.629-2.21
				c-1.265-0.378-2.621-0.079-4.027,0.888c-0.971,0.668-1.986,0.675-2.882,0.682c-0.424,0-0.825,0.004-1.207,0.07
				c-0.348,0.061-0.63-0.161-0.734-0.259c-0.32-0.299-0.687-0.417-1.159-0.374c-0.538,0.051-1.023-0.271-1.177-0.789
				c-0.088-0.297-0.076-0.743,0.488-1.18c0.223-0.171,0.456-0.298,0.681-0.418l0.121-0.064c0.285-0.156,0.508-0.413,0.569-0.652
				c0.036-0.146-0.008-0.212-0.023-0.234l-0.166-0.256c-0.53-0.824-1.032-1.601-1.865-1.889c-0.727-0.252-1.32-0.256-1.672-0.012
				c-0.312,0.217-0.477,0.656-0.493,1.303l-0.031,0.178l-0.055,0.164c-0.146,0.449-0.368,1.127-0.912,1.668
				c-0.053,0.053-0.109,0.104-0.164,0.156c-0.141,0.129-0.287,0.264-0.294,0.355c-0.122,1.611-1.129,2.615-1.992,3.312
				c-0.059,0.046-0.123,0.093-0.19,0.142c-0.074,0.054-0.192,0.14-0.242,0.193c0.008,0.376-0.103,0.657-0.332,0.836
				c-0.353,0.274-0.764,0.146-0.985,0.078c-0.677-0.209-1.324-0.41-1.936-0.709c-0.28-0.14-0.449-0.084-0.904,0.287
				c-0.066,0.055-0.242,0.198-0.054,0.613c0.092,0.204,0.182,0.409,0.271,0.614c0.196,0.453,0.382,0.882,0.603,1.293
				c0.38,0.707,0.379,1.468-0.004,2.323c-0.203,0.456-0.19,0.816,0.041,1.168l0.257,0.395c0.439,0.676,0.894,1.375,1.402,1.988
				c0.087,0.107,0.178,0.211,0.269,0.314c0.586,0.668,1.311,1.494,0.945,2.777c0.017,0.074,0.027,0.125,0.033,0.176
				c0.097,0.893,0.189,1.736,0.38,2.575l0.02,0.079c0.063,0.234,0.194,0.723-0.172,1.053c-0.25,0.225-0.56,0.216-0.79,0.163
				c-0.266,0.417-0.706,0.679-1.249,0.737c-0.391,0.041-0.684,0.258-1.054,0.587c0.085,0.042,0.172,0.081,0.26,0.12
				c0.459,0.209,0.977,0.445,1.352,0.969c0.64-0.209,1.317-0.311,2.159-0.301c0.681-0.012,1.258-0.271,1.812-0.562
				c0.996-0.524,1.823-0.855,2.601-1.042C45.463,117.787,46.237,117.658,46.985,117.534 M43.278,116.318
				c-0.025,0.001-0.05,0.001-0.075,0.001c-0.392,0-0.717-0.142-0.922-0.402c-0.211-0.271-0.265-0.628-0.153-1.007
				c0.075-0.252,0.055-0.533,0.033-0.857c-0.023-0.336-0.048-0.71,0.036-1.1c-0.491-0.641-0.385-1.352-0.306-1.887
				c0.022-0.146,0.044-0.291,0.053-0.432c0.01-0.146-0.037-0.316-0.092-0.514c-0.038-0.141-0.076-0.28-0.101-0.424
				c-0.112-0.631-0.299-1.244-0.497-1.893c-0.277-0.91-0.563-1.85-0.631-2.858c-0.926-1.1-0.352-2.278-0.072-2.853
				c0.304-0.621,1.013-1.055,1.765-1.08c0.622-0.021,1.152,0.256,1.427,0.736c0.213,0.371,0.552,0.602,0.943,0.866
				c0.321,0.217,0.653,0.441,0.942,0.766c-0.007-0.016,0.082-0.006,0.17-0.026c0.56-0.133,1.094-0.115,1.611-0.099
				c0.412,0.013,0.802,0.024,1.168-0.04c0.05-0.01,0.101-0.018,0.153-0.024c0.055-0.007,0.138-0.02,0.164-0.03
				c0.883-0.525,1.838-0.674,2.763-0.817c0.255-0.04,0.509-0.079,0.762-0.127c0.118-0.022,0.248-0.087,0.398-0.161
				c0.214-0.107,0.458-0.23,0.765-0.279c0.351-0.057,0.797-0.082,1.126,0.229c0.364,0.344,0.311,0.852,0.294,1.018
				c-0.016,0.154-0.01,0.311-0.006,0.457c0.002,0.066,0.004,0.131,0.005,0.192c0.146,0.973-0.113,1.815-0.363,2.628l-0.056,0.184
				c0.078,1.348-0.811,2.059-1.597,2.688c-0.56,0.448-0.784,1.198-0.69,2.247c0.15,1.672-0.615,2.857-2.099,3.256
				c-0.942,0.253-1.905,0.433-2.836,0.605c-0.42,0.078-0.825,0.248-1.254,0.428c-0.365,0.153-0.743,0.313-1.153,0.422
				c-0.518,0.141-1.016,0.16-1.498,0.18L43.278,116.318z"/>
			<path style="fill:#3A4B40;" d="M36.997,137.287c0.333-0.465,0.736-0.836,1.126-1.195c0.461-0.425,0.896-0.826,1.16-1.334
				c0.311-0.596,0.63-1.061,1.007-1.461c0.308-0.326,0.534-0.783,0.752-1.225c0.083-0.168,0.165-0.334,0.25-0.492
				c0.445-0.826,0.816-1.738,1.075-2.637c0.078-0.276,0.167-0.592,0.453-0.851c0.531-0.48,0.687-1.149,0.838-1.799
				c0.045-0.192,0.089-0.379,0.14-0.554c0.004-0.869-0.252-1.496-0.676-1.646c-0.372-0.131-0.785-0.257-1.263-0.386
				c-0.873-0.234-0.889-0.238-1.244,0.622c-0.267,0.647-0.705,1.024-1.378,1.19c-0.154,0.039-0.311,0.071-0.468,0.104
				c-0.405,0.082-0.788,0.158-1.075,0.354c-0.074,0.05-0.14,0.114-0.207,0.177c-0.236,0.219-0.64,0.595-1.229,0.5
				c-0.445,0.594-1.058,0.881-1.605,1.136c-0.24,0.112-0.466,0.219-0.667,0.345c-0.67,0.414-1.384,0.701-2.074,0.979
				c-0.561,0.226-1.09,0.439-1.594,0.713c-0.303,0.166-0.306,0.207-0.325,0.475c-0.024,0.322,0.136,0.488,0.562,0.838
				c0.117,0.096,0.233,0.193,0.34,0.295c0.761,0.723,1.468,0.789,2.363,0.223c1.02-0.646,1.949-1.263,2.841-1.887
				c0.378-0.263,0.772-0.416,1.141-0.543c0.112-0.039,0.335-0.115,0.582-0.115c0.26,0,0.547,0.084,0.759,0.388
				c0.266,0.381,0.256,0.881-0.028,1.371c-0.094,0.165-0.185,0.329-0.276,0.495c-0.417,0.761-0.849,1.55-1.63,2.154
				c-0.439,0.34-0.516,0.529-0.529,0.578c-0.283,1.08-0.799,2.023-1.297,2.936c-0.17,0.311-0.34,0.621-0.501,0.938
				c-0.334,0.66-0.085,0.877,0.009,0.957c0.27,0.233,0.66,0.193,1.042-0.107C35.993,138.332,36.58,137.869,36.997,137.287"/>
			<path style="fill:#3A4B40;" d="M44.567,108.59c-0.275,0.328-0.513,0.613-0.562,0.947c-0.034,0.234-0.076,0.522-0.201,0.814
				c0.02-0.002,0.039-0.002,0.059-0.002l0.295-0.003c1.514-0.027,3.098-0.292,5.136-0.866c0.098-0.027,0.199-0.053,0.301-0.078
				c0.534-0.133,0.869-0.232,1.044-0.573c0.249-0.489,0.197-1.132-0.014-1.36c-0.347-0.375-0.932-0.742-1.746-0.363l-0.364,0.172
				c-1.111,0.527-2.257,1.07-3.635,0.924C44.778,108.338,44.671,108.466,44.567,108.59"/>
		</g>
		<g>
			<path style="fill:#3A4B40;" d="M52.819,45.573c0.007-0.423,0.017-0.949,0.328-1.429c0.274-0.423,0.491-0.852,0.661-1.309
				c0.132-0.355,0.32-0.655,0.501-0.946c0.197-0.317,0.384-0.617,0.455-0.93c0.099-0.44,0.263-0.833,0.422-1.216
				c0.131-0.313,0.254-0.608,0.334-0.909c0.139-0.527,0.377-0.988,0.608-1.436c0.245-0.471,0.475-0.918,0.565-1.398
				c0.021-0.111,0.02-0.248,0.019-0.394c-0.001-0.301-0.002-0.676,0.191-1.052c0.316-0.615,0.472-1.292,0.636-2.011
				c0.116-0.504,0.236-1.028,0.418-1.541c0.015-0.043,0.036-0.125,0.002-0.167c-0.034-0.043-0.134-0.079-0.276-0.062
				c-0.494,0.063-0.838,0.302-1.023,0.707c-0.632,1.381-1.34,2.571-2.166,3.641c-0.164,0.213-0.312,0.448-0.467,0.699
				c-0.287,0.46-0.583,0.932-1.028,1.338c-0.008,0.019-0.014,0.041-0.021,0.061c-0.021,0.063-0.043,0.125-0.07,0.185
				c-0.322,0.715-0.797,1.313-1.414,1.779c-0.29,0.221-0.571,0.285-0.836,0.188c-0.234-0.084-0.404-0.282-0.467-0.545
				c-0.016-0.065-0.044-0.128-0.07-0.189c-0.087-0.212-0.205-0.5-0.155-0.874c0.041-0.303,0.068-0.604,0.095-0.908
				c0.064-0.723,0.129-1.471,0.381-2.229c0.122-0.366,0.276-0.699,0.426-1.021c0.088-0.19,0.177-0.382,0.257-0.578
				c0.525-1.291,1.108-2.824,1.445-4.425c0.028-0.135,0.061-0.271,0.093-0.406c0.124-0.51,0.231-0.953,0.084-1.376
				c-0.079-0.228-0.155-0.46-0.23-0.691c-0.28-0.863-0.545-1.677-1.034-2.358c-0.318-0.443-0.494-0.918-0.664-1.379
				c-0.182-0.494-0.355-0.958-0.687-1.305c-0.327-0.341-0.455-0.747-0.351-1.113c0.072-0.254,0.281-0.588,0.867-0.743
				c0.027-0.014,0.054-0.079,0.052-0.213c-0.006-0.444-0.084-0.548-0.49-0.664c-0.135-0.035-0.265-0.083-0.394-0.13
				c-0.375-0.14-0.488-0.165-0.647-0.073l-0.227,0.126c-0.351,0.192-0.655,0.358-0.78,0.633l-0.083,0.183
				c-0.195,0.426-0.379,0.829-0.452,1.226l-0.028,0.151c-0.232,1.268-0.452,2.465,0.06,3.621c0.176,0.396,0.27,0.804,0.361,1.199
				c0.091,0.394,0.177,0.768,0.335,1.069c0.384,0.734,0.551,1.429,0.495,2.063c-0.013,1.58-0.076,1.812-0.8,3.023
				c-0.129,0.215-0.187,0.42-0.183,0.643c0.013,0.731-0.009,1.349-0.068,1.891c-0.027,0.241-0.048,0.482-0.069,0.726
				c-0.042,0.483-0.086,0.983-0.172,1.483c-0.094,0.556-0.174,1.093-0.1,1.575c0.042,0.274,0.105,0.544,0.167,0.814
				c0.158,0.692,0.322,1.407,0.207,2.2c0.509,0.523,0.684,1.148,0.838,1.702c0.096,0.341,0.186,0.664,0.345,0.927
				c0.233,0.386,0.515,0.979,0.538,1.602c0.02,0.573,0.311,0.972,0.773,1.432c0.146,0.145,0.249,0.305,0.34,0.445
				c0.341,0.523,0.906,0.768,1.455,0.654c0.207-0.043,0.518-0.108,0.652-1.01c0.003-0.028,0-0.058-0.001-0.09
				c-0.004-0.087-0.009-0.208,0.014-0.341C52.813,45.942,52.816,45.763,52.819,45.573"/>
			<path style="fill:#3A4B40;" d="M49.888,14.208c0.321-0.002,0.82-0.332,0.874-0.492c0.08-0.42,0.264-0.759,0.427-1.059
				c0.056-0.102,0.112-0.205,0.163-0.311c0.631-1.319,1.68-2.052,3.301-2.304c0.951-0.149,1.652-0.314,2.008-1.086
				c0.071-0.154,0.104-0.321,0.145-0.516c0.033-0.167,0.072-0.358,0.142-0.551c0.271-0.767,0.022-1.344-0.699-1.624
				c-0.333-0.13-0.661-0.274-0.99-0.418c-1.066-0.467-2.075-0.909-3.199-0.834c-0.266,0.018-0.495-0.08-0.662-0.152l-0.095-0.039
				c-0.163-0.062-0.245-0.054-0.293-0.042c-1.017,0.24-1.876-0.144-2.512-0.506c-0.17-0.096-0.329-0.21-0.487-0.324
				c-0.218-0.157-0.407-0.293-0.613-0.364c-0.041-0.012-0.089-0.021-0.139-0.021c-0.179,0-0.4,0.085-0.565,0.228
				c-0.137,0.117-0.176,0.224-0.17,0.263c0.081,0.456,0.327,0.854,0.734,1.183c0.633,0.514,1.276,1.015,1.918,1.517
				c0.333,0.259,0.665,0.519,0.996,0.781c0.551,0.434,0.789,1.071,0.635,1.707c-0.092,0.377-0.099,0.719-0.023,1.079
				c0.052,0.245-0.014,0.469-0.057,0.617l-0.018,0.061c-0.286,1.059-0.684,1.865-1.254,2.537c-0.037,0.044-0.137,0.162,0.055,0.504
				C49.551,14.114,49.602,14.193,49.888,14.208"/>
			<path style="fill:#3A4B40;" d="M88.909,37.426c0.262,0.093,0.524,0.196,0.785,0.3c0.883,0.351,1.717,0.681,2.625,0.564
				c0.288-0.039,0.496-0.139,0.571-0.281c0.071-0.133,0.044-0.341-0.077-0.584c-0.178-0.356-0.378-0.781-0.516-1.228
				c-0.012-0.043-0.088-0.137-0.145-0.206c-0.158-0.193-0.398-0.486-0.383-0.907c0.02-0.557-0.202-0.923-0.781-1.279
				c-0.097-0.023-0.187-0.068-0.265-0.135c-0.032-0.028-0.062-0.058-0.086-0.091c-0.354-0.075-0.571-0.265-0.701-0.451l-0.263-0.181
				c-0.368-0.182-0.783-0.387-1.107-0.781l-0.016-0.011c-0.189-0.029-0.465-0.112-0.682-0.361l-0.009-0.006
				c-0.146-0.031-0.274-0.095-0.379-0.191l-0.637-0.167c-0.103-0.027-0.206-0.047-0.31-0.066c-0.326-0.064-0.732-0.142-1.097-0.416
				l-0.172-0.108c-1.125-0.084-2.265-0.321-3.388-0.708c-0.229-0.078-0.428-0.145-0.621-0.271c-1.01-0.662-2.174-0.754-3.28-0.757
				c-0.487-0.001-1.005-0.052-1.501-0.422l-0.115-0.113l-0.264-0.342l-0.047-0.229c-0.018-0.292-0.063-0.588-0.113-0.901
				c-0.111-0.716-0.229-1.458-0.016-2.273c0.062-0.232,0.033-0.537,0.002-0.861c-0.01-0.119-0.021-0.237-0.029-0.356
				c-0.007-0.12-0.025-0.238-0.045-0.357c-0.061-0.393-0.137-0.879,0.104-1.397c-0.009-0.038-0.024-0.091-0.037-0.131
				c-0.021-0.069-0.041-0.139-0.058-0.208c-0.2-0.862-0.335-1.982,0.39-2.992l0.103-0.111l0.233-0.192
				c0.209-0.181,0.444-0.311,0.694-0.379l0.113-0.065c0.373-0.535,0.946-0.729,1.47-0.843c0.346-0.077,0.68-0.218,1.034-0.366
				c0.274-0.115,0.56-0.233,0.862-0.328c0.367-0.115,0.726-0.279,1.104-0.455c0.789-0.365,1.607-0.738,2.623-0.713
				c0.125,0.001,0.229-0.039,0.324-0.134c0.187-0.188,0.297-0.543,0.282-0.907c-0.02-0.548-0.246-1.035-0.487-1.551
				c-0.06-0.128-0.12-0.257-0.177-0.388c-0.088-0.195-0.319-0.272-0.807-0.368c-1.109-0.219-2.135-0.422-3.147,0
				c-0.181,0.075-0.356,0.119-0.526,0.161c-0.216,0.054-0.4,0.099-0.541,0.198c-0.314,0.22-0.672,0.322-0.988,0.41l-0.069,0.02
				c-0.468,0.134-0.87,0.098-1.198-0.105c-0.342-0.212-0.566-0.59-0.664-1.122c-0.121-0.65-0.076-1.294,0.139-2.025
				c-0.072-0.136-0.256-0.406-0.114-0.734c0.106-0.248,0.073-0.556,0.032-0.912c-0.051-0.477-0.111-1.017,0.16-1.565
				c0.637-1.282,0.588-2.385-0.154-3.466c-0.141-0.205-0.221-0.413-0.289-0.598c-0.055-0.143-0.102-0.266-0.165-0.357
				c-0.384-0.546-0.695-0.798-1.112-0.9c-0.244-0.06-0.48-0.19-0.747-0.411c-0.532-0.44-1.144-0.364-1.956-0.098
				c-0.521,0.171-0.652,0.932-0.476,1.542c0.166,0.572,0.475,1.058,0.803,1.546c0.445,0.66,0.472,1.412,0.494,2.076
				c0.008,0.239,0.015,0.478,0.045,0.708c0.026,0.194,0.038,0.396,0.051,0.597c0.017,0.272,0.033,0.529,0.084,0.762
				c0.128,0.576,0.267,1.205,0.029,1.875c0.321,0.575,0.331,1.17,0.339,1.701c0.004,0.222,0.007,0.431,0.033,0.624
				c0.179,1.371-0.447,2.527-1.635,3.018c-0.359,0.148-0.688,0.372-1.034,0.606c-0.296,0.201-0.601,0.409-0.946,0.582
				c-0.191,0.095-0.383,0.189-0.576,0.283c-0.445,0.216-0.906,0.439-1.328,0.693c-0.186,0.11-0.358,0.25-0.541,0.399
				c-0.181,0.145-0.365,0.294-0.578,0.43c-0.211,0.133-0.42,0.271-0.629,0.407c-1.078,0.701-2.193,1.425-3.449,1.906
				c-0.555,0.213-1.188,0.353-1.881,0.416c-0.244,0.021-0.566,0.096-0.711,0.322c-0.121,0.188-0.117,0.487,0.01,0.838
				c0.162,0.456,0.414,0.667,0.994,0.835c0.207,0.06,0.412,0.156,0.592,0.277c0.807,0.548,1.479,0.765,2.182,0.7
				c0.275-0.026,0.582,0.048,0.819,0.197c0.19,0.121,0.379,0.193,0.753-0.142c0.355-0.318,0.748-0.519,1.127-0.714
				c0.322-0.165,0.629-0.324,0.872-0.537c0.112-0.099,0.239-0.183,0.368-0.265c0.135-0.087,0.25-0.16,0.308-0.243
				c0.276-0.406,0.763-0.567,1.212-0.405c0.292,0.107,0.43,0.3,0.493,0.442c0.149,0.332,0.024,0.652-0.035,0.807
				c-0.181,0.468-0.368,0.903-0.556,1.341l-0.273,0.598l-0.365,0.498c-0.021,0.248-0.146,0.469-0.357,0.628l-0.039,0.088
				c-0.119,0.487-0.452,0.769-0.699,0.977c-0.05,0.043-0.1,0.084-0.148,0.129c-0.125,0.356-0.362,0.595-0.563,0.792
				c-0.025,0.086-0.07,0.178-0.15,0.272l-0.107,0.125c-0.028,0.164-0.105,0.317-0.229,0.442c-0.08,0.187-0.199,0.323-0.285,0.423
				c-0.002,0.002-0.004,0.004-0.006,0.008c-0.055,0.241-0.158,0.628-0.543,0.857l-0.25,0.361c-0.027,0.189-0.121,0.315-0.189,0.383
				c-0.059,0.06-0.159,0.139-0.305,0.179l-0.154,0.153c-0.107,0.41-0.294,0.807-0.557,1.18l-0.07,0.081
				c-0.21,0.206-0.387,0.464-0.575,0.735c-0.194,0.281-0.396,0.572-0.651,0.836c-0.109,0.113-0.214,0.232-0.318,0.353
				c-0.48,0.546-1.077,1.225-2.107,1.293c-0.449,0.031-0.747,0.364-0.918,0.638l-0.048,0.077c-0.496,0.793-0.965,1.543-1.058,2.436
				c-0.025,0.232-0.002,0.41,0.065,0.486c0.054,0.064,0.185,0.1,0.365,0.106c0.608,0.021,1.228-0.078,1.997-0.321l0.363-0.114
				c1.314-0.409,2.556-0.794,3.422-1.814c0.275-0.321,0.592-0.558,0.897-0.786c0.371-0.275,0.692-0.513,0.866-0.847
				c0.21-0.4,0.464-0.744,0.711-1.078c0.15-0.202,0.301-0.404,0.436-0.618c0.729-1.147,1.719-1.847,2.939-2.081
				c0.123-0.024,0.242-0.035,0.354-0.035c0.3,0,0.557,0.083,0.758,0.243c0.236,0.19,0.371,0.477,0.381,0.811l0.023,0.75
				c0.024,0.684,0.049,1.389,0.043,2.092c-0.006,0.54-0.07,1.061-0.133,1.564l-0.054,0.427c-0.067,0.584-0.028,1.175,0.015,1.801
				c0.047,0.699,0.094,1.425-0.013,2.168c-0.035,0.241-0.013,0.343-0.002,0.376c0.423,1.25,0.347,2.5,0.274,3.706l-0.02,0.319
				c-0.035,0.609,0.16,1.143,0.366,1.707c0.083,0.227,0.166,0.453,0.235,0.684c0.14,0.461,0.306,0.934,0.666,1.192
				c0.459,0.328,0.425,0.883,0.41,1.12c-0.009,0.136-0.012,0.184,0.485,0.364l0.072,0.026c0.136,0.05,0.235-0.122,0.263-0.176
				c0.354-0.705,0.566-1.266,0.53-1.895c-0.048-0.819,0.095-1.61,0.231-2.374l0.08-0.451c0.139-0.83,0.278-1.653,0.211-2.361
				c-0.084-0.871-0.062-1.737-0.041-2.575c0.024-0.997,0.049-1.939-0.09-2.891c-0.171-1.183-0.143-2.527,0.088-4.23
				c0.036-0.262,0.121-0.638,0.453-0.878c0.238-0.172,0.539-0.226,0.895-0.159c0.809,0.15,1.666,0.387,2.695,0.745
				c1.68,0.584,2.947,1.229,3.989,2.03c0.009,0.001,0.077,0.021,0.122,0.034c0.955,0.274,2.05,0.628,2.973,1.374
				c0.268,0.216,0.459,0.234,0.58,0.228c0.473-0.025,0.853,0.129,1.186,0.266C88.726,37.355,88.815,37.393,88.909,37.426"/>
		</g>
		<path style="fill:#F2A300;" d="M33.989,61.254c0.491,0.124,0.925-0.045,1.397-0.288c0.627-0.323,1.313-0.082,1.968,0.057
			c0.443,0.095,0.864,0.289,1.332,0.278c0.574-0.014,0.725-0.18,0.685-0.752c-0.018-0.264,0.178-0.425,0.405-0.372
			c0.702,0.163,1.453,0.117,2.108,0.495c0.257,0.148,0.442,0.359,0.626,0.584c0.427,0.52,0.738,0.565,1.288,0.213
			c0.791-0.507,1.031-0.487,1.588,0.25c0.29,0.383,0.607,0.234,0.888,0.092c0.743-0.377,1.472-0.36,2.151,0.081
			c1.04,0.675,2.091,1.34,3.02,2.172c0.29,0.26,0.672,0.375,0.941,0.696c0.263,0.313,0.406,0.651,0.424,1.025
			c0.023,0.441,0.189,0.817,0.485,1.087c0.569,0.523,0.647,1.121-0.018,1.76c-0.439,0.419-0.437,0.618-0.02,1.058
			c0.222,0.234,0.415,0.485,0.576,0.763c0.321,0.56,0.174,1.357-0.243,1.849c-0.518,0.612-1.225,0.995-1.768,1.571
			c-0.256,0.271-0.339,0.493-0.076,0.822c0.325,0.407,0.347,0.901-0.032,1.289c-0.529,0.544-0.757,1.199-0.957,1.889
			c-0.068,0.236-0.182,0.449-0.329,0.648c-0.339,0.455-0.683,0.883-0.847,1.471c-0.183,0.654-1.132,0.715-1.513,0.133
			c-0.187-0.283-0.373-0.299-0.595-0.121c-0.625,0.494-1.378,0.314-2.075,0.4c-0.39,0.049-0.638-0.414-0.467-0.785
			c0.211-0.455,0.455-0.891,0.869-1.197c0.092-0.07,0.169-0.139,0.142-0.262c-0.027-0.119-0.134-0.099-0.221-0.117
			c-0.251-0.055-0.487-0.153-0.74-0.209c-0.481-0.106-0.746-0.699-0.55-1.167c0.084-0.199,0.089-0.36-0.067-0.541
			c-0.537-0.617-0.273-1.647,0.668-1.786c0.431-0.064,0.585-0.262,0.58-0.735c-0.008-0.691-0.283-1.346-0.211-2.039
			c0.013-0.119-0.004-0.253-0.168-0.28c-0.211-0.035-0.289,0.127-0.302,0.269c-0.037,0.405-0.227,0.716-0.512,0.988
			c-0.291,0.28-0.646,0.457-1.005,0.616c-0.351,0.155-0.683-0.045-0.589-0.407c0.2-0.76-0.015-1.642,0.679-2.274
			c0.291-0.266,0.133-0.695-0.23-0.866c-0.152-0.072-0.304-0.132-0.463-0.185c-0.583-0.196-0.836-0.007-1.084,0.573
			c-0.253,0.589-0.238,1.218-0.417,1.813c-0.081,0.27-0.202,0.412-0.473,0.474c-0.423,0.099-0.722,0.285-0.787,0.806
			c-0.059,0.465-0.528,0.436-0.886,0.429c-0.702-0.013-1.231-0.272-1.5-0.999c-0.165-0.448-0.666-0.48-1.071-0.589
			c-0.692-0.185-1.231-0.567-1.552-1.212c-0.168-0.337-0.339-0.667-0.397-1.061c-0.07-0.482-0.487-0.62-0.907-0.683
			c-0.21-0.033-0.427-0.011-0.641-0.021c-0.532-0.022-1.005-0.106-1.24-0.705c-0.133-0.335-0.488-0.426-0.815-0.277
			c-0.286,0.13-0.601,0.199-0.857,0.4c-0.491,0.383-0.962,0.018-1.424-0.079c-0.97-0.201-1.792-0.707-1.882-1.756
			c-0.1-1.173-0.177-1.583,1.196-1.908c0.526-0.124,0.99-0.453,1.547-0.494c0.053-0.004,0.14-0.055,0.147-0.096
			c0.072-0.433,0.514-0.481,0.737-0.733c0.369-0.415,0.841-0.692,1.221-1.069c0.521-0.519,1.174-0.71,1.823-0.94
			C33.674,61.255,33.82,61.27,33.989,61.254"/>
		<path style="fill:#F2A300;" d="M40.014,82.979c-0.241,0.39-0.322,0.804-0.662,1.093c-0.228,0.191-0.457,0.299-0.693,0.182
			c-0.252-0.126-0.551-0.291-0.571-0.627c-0.042-0.699-0.018-1.392,0.307-2.043c0.189-0.379,0.593-0.621,1.007-0.494
			c0.253,0.077,0.336,0.021,0.437-0.214c0.215-0.501,0.123-1.021,0.16-1.532c0.016-0.227-0.166-0.266-0.346-0.26
			c-0.477,0.01-0.654-0.305-0.768-0.693c-0.185-0.633,0.066-1.271-0.034-1.91c-0.037-0.233,0.877-0.92,1.118-0.893
			c0.287,0.035,0.371,0.287,0.497,0.486c0.047,0.071,0.02,0.192,0.069,0.26c0.143,0.2,0.191,0.544,0.494,0.524
			c0.258-0.019,0.422-0.251,0.516-0.507c0.089-0.244,0.248-0.396,0.537-0.412c0.283-0.014,0.487,0.088,0.588,0.334
			c0.079,0.193,0.214,0.334,0.346,0.477c0.307,0.329,0.346,0.715,0.216,1.108c-0.23,0.7-0.495,1.39-0.753,2.081
			c-0.041,0.111-0.103,0.232-0.19,0.308c-0.603,0.517-0.623,1.243-0.507,1.892c0.072,0.401,0.189,0.806,0.212,1.222
			c0.028,0.511-0.307,0.802-0.807,0.665c-0.266-0.072-0.601-0.004-0.782-0.286C40.261,83.515,40.258,83.214,40.014,82.979"/>
		<path style="fill:#F2A300;" d="M1.649,82.745c0.191-0.657-0.045-1.464,0.317-2.196c0.139-0.281-0.051-0.445-0.264-0.541
			c-0.449-0.205-0.665-0.584-0.861-1c-0.173-0.367-0.369-0.728-0.585-1.07C0.069,77.639-0.005,77.326,0,76.982
			C0.004,76.779,0,76.574,0.234,76.488c0.231-0.084,0.426,0.016,0.578,0.172c0.254,0.262,0.521,0.5,0.829,0.701
			c0.215,0.14,0.327,0.045,0.358-0.152c0.061-0.381,0.049-0.753-0.212-1.084c-0.195-0.245-0.359-0.528-0.077-0.813
			c0.339-0.339,0.718-0.346,1.053-0.078c0.248,0.199,0.522,0.363,0.766,0.566c0.169,0.139,0.379,0.295,0.27,0.568
			c-0.098,0.244-0.327,0.244-0.544,0.252c-0.543,0.018-0.641,0.131-0.578,0.673c0.072,0.626,0.489,0.967,1.129,0.925
			c0.284-0.018,0.517,0.082,0.634,0.344c0.125,0.283,0.07,0.589-0.175,0.744c-0.414,0.266-0.664,0.871-1.332,0.666
			c-0.123-0.038-0.356,0.033-0.369,0.258c-0.015,0.269,0.15,0.453,0.334,0.619c0.15,0.131,0.282,0.055,0.403-0.058
			c0.057-0.05,0.11-0.104,0.164-0.159c0.218-0.22,0.471-0.372,0.777-0.227c0.292,0.138,0.189,0.435,0.155,0.656
			c-0.073,0.472-0.001,0.785,0.567,0.789c0.156,0.002,0.288,0.123,0.314,0.287c0.026,0.157-0.106,0.248-0.219,0.32
			c-0.378,0.242-0.772,0.438-1.244,0.334c-0.377-0.081-0.649,0.049-0.834,0.391c-0.295,0.543-0.531,0.672-0.974,0.541
			C1.516,83.581,1.702,83.167,1.649,82.745"/>
		<path style="fill:#F2A300;" d="M8.465,55.925c0.045-0.233-0.082-0.559,0.11-0.857c0.631-0.976,1.488-1.338,2.494-0.759
			c0.375,0.214,0.48,0.063,0.595-0.203c0.149-0.343,0.241-0.743,0.718-0.745c0.505-0.001,0.795,0.282,1.057,0.718
			c0.317,0.527,0.374,1.144,0.681,1.666c0.096,0.164-0.327,0.608-0.614,0.644c-0.617,0.077-1.188-0.037-1.652-0.487
			c-0.118-0.113-0.236-0.115-0.375-0.071c-0.174,0.056-0.225,0.19-0.231,0.354c-0.012,0.409,0.018,0.817-0.154,1.213
			c-0.193,0.449-0.514,0.649-1.005,0.564C8.97,57.767,8.372,57.349,8.465,55.925"/>
		<path style="fill:#F2A300;" d="M11.393,83.287c0.001,0.109-0.106,0.274-0.246,0.378c-0.378,0.278-0.741,0.635-1.285,0.438
			c-0.193-0.069-0.347,0.008-0.509,0.113c-0.121,0.077-0.295,0.18-0.423,0.079c-0.132-0.104-0.15-0.285-0.083-0.462
			c0.038-0.098,0.055-0.206,0.075-0.311c0.069-0.363-0.095-0.521-0.458-0.402c-0.401,0.131-0.79,0.306-1.08,0.627
			c-0.639,0.708-1.595,0.977-2.264,1.643c-0.05,0.051-0.135,0.069-0.206,0.098c-0.302,0.112-0.422-0.016-0.432-0.316
			c-0.013-0.371,0.231-0.621,0.474-0.796c0.807-0.576,1.441-1.374,2.356-1.817c0.618-0.301,1.477-0.248,2.014,0.201
			c0.145,0.121,0.245,0.049,0.351-0.059c0.15-0.148,0.301-0.281,0.517-0.355C10.781,82.146,11.411,82.581,11.393,83.287"/>
		<path style="fill:#F2A300;" d="M4.446,63.092c-0.045,0.237-0.114,0.447-0.32,0.549c-0.174,0.085-0.339,0.019-0.505-0.098
			c-0.433-0.302-0.854-0.62-1.343-0.843c-0.557-0.254-0.639-0.75-0.259-1.188c0.094-0.108,0.218-0.21,0.356-0.163
			c0.842,0.287,1.631,0.649,2.007,1.543C4.411,62.962,4.428,63.037,4.446,63.092"/>
		<path style="fill:#F2A300;" d="M0.498,80.044c0.467,0.048,0.798,0.336,0.766,0.611c-0.036,0.312-0.256,0.413-0.52,0.368
			c-0.346-0.057-0.569-0.306-0.601-0.643C0.116,80.107,0.363,80.064,0.498,80.044"/>
		<path style="fill:#F2A300;" d="M36.677,81.109c-0.143-0.184-0.434-0.139-0.616,0.112c-0.114,0.159-0.267,0.293-0.414,0.425
			c-0.171,0.156-0.302,0.145-0.429-0.082c-0.285-0.506-0.104-0.938,0.459-1.037c0.578-0.103,1.099-0.508,1.076-0.885
			c-0.069-1.13,0.021-2.259-0.001-3.391c-0.006-0.309-0.067-0.557-0.326-0.755c-0.251-0.192-0.298-0.42-0.089-0.71
			c0.187-0.26,0.286-0.58,0.194-0.907c-0.185-0.655-0.611-1.184-1.071-1.639c-0.552-0.547-1.359-0.753-1.961-1.255
			c-0.38-0.314-0.836-0.506-1.2-0.865c-0.429-0.423-0.995-0.864-1.584-0.812c-0.85,0.076-1.718,0.163-2.555,0.394
			c-0.368,0.1-0.751,0.061-1.026-0.228c-0.386-0.403-0.851-0.692-1.326-0.955c-0.66-0.365-1.333-0.671-2.147-0.417
			c-0.868,0.27-1.627,0.79-2.519,1.009c-0.407,0.101-0.724,0.147-1.051-0.137c-0.329-0.288-0.682-0.54-0.967-0.881
			c-0.341-0.408-0.905-0.471-1.315-0.777c-0.309-0.23-0.657-0.217-0.954-0.095c-1.186,0.487-2.393,0.92-3.592,1.372
			c-1.499,0.567-3.016,1.083-4.513,1.651c-0.469,0.178-0.8-0.08-0.751-0.57c0.093-0.929,0.043-1.861,0.032-2.79
			c-0.002-0.259-0.068-0.516-0.062-0.773c0.005-0.239,0.162-0.404,0.406-0.415c0.233-0.012,0.369,0.114,0.362,0.365
			c-0.003,0.092,0.003,0.194,0.095,0.245c0.519,0.281,0.691,0.768,0.813,1.304c0.037,0.16,0.199,0.301,0.323,0.431
			c0.307,0.321,0.707,0.386,1.096,0.254c0.389-0.133,0.293-0.514,0.29-0.829c-0.001-0.076,0-0.154-0.011-0.229
			c-0.123-0.83-0.188-1.696-1.173-2.029c-0.133-0.045-0.179-0.172-0.167-0.298c0.034-0.348,0.06-0.695,0.13-1.036
			c0.136-0.667,0.222-0.715,0.841-0.474c0.338,0.133,0.664,0.271,0.976-0.025c0.345-0.327,0.652-0.691,1.188-0.724
			c0.105-0.005,0.203-0.208,0.295-0.329c0.378-0.492,0.722-1.018,1.304-1.307c0.143-0.072,0.226-0.225,0.166-0.338
			c-0.194-0.371-0.244-0.818-0.587-1.109c-0.348-0.296-0.352-0.517-0.024-0.813c0.377-0.341,0.392-0.548,0.117-0.989
			c-0.117-0.188-0.334-0.252-0.455-0.428c-0.287-0.42-0.768-0.557-1.124-0.327c-0.287,0.186-0.292,0.684-0.118,1.108
			c0.172,0.421,0.603,0.664,0.679,1.164c0.038,0.25,0.116,0.45-0.126,0.562c-0.261,0.123-0.509,0.034-0.655-0.241
			c-0.114-0.215-0.203-0.446-0.337-0.646c-0.4-0.597-1.063-0.615-1.537-0.095c-0.251,0.275-0.369,0.664-0.731,0.845
			c-0.153,0.076-0.236,0.345-0.449,0.237c-0.207-0.104-0.211-0.354-0.236-0.559c-0.061-0.492-0.378-0.851-0.911-0.964
			c-0.453-0.096-0.696,0.205-0.909,0.533c-0.075,0.113-0.121,0.245-0.195,0.358c-0.225,0.344-0.139,0.737-0.197,1.107
			c-0.024,0.158-0.026,0.445-0.294,0.33c-0.194-0.083-0.308-0.325-0.52-0.424c0.013,0.007,0.027,0.015,0.04,0.021
			c0.023-0.249,0.039-0.499,0.073-0.747c0.012-0.086,0.08-0.165,0.102-0.253c0.052-0.208,0.125-0.419-0.011-0.675
			c0.002-0.009,0.004-0.017,0.006-0.026c0.148-0.524,0.162-1.004-0.328-1.382c-0.154-0.118-0.322-0.266-0.394-0.439
			c-0.227-0.543-0.689-0.519-1.122-0.462c-0.616,0.08-0.771,0.243-0.654,0.636c0.121,0.406,0.135,0.815,0.096,1.222
			c-0.071,0.741,0.132,1.33,0.725,1.814c0.635,0.519,1.055,1.137,0.995,2.051c-0.025,0.389,0.03,0.944,0.55,1.165
			c0.464,0.197,0.492,0.529,0.268,1.001c-0.386-0.435-0.867-0.481-1.385-0.483c-0.436,0-0.655,0.356-0.997,0.503
			c-0.447,0.192-0.315,0.59-0.264,0.916c0.044,0.287,0.272,0.413,0.576,0.405c0.238-0.004,0.509-0.073,0.699,0.124
			c0.223,0.23,0.506,0.323,0.788,0.43c0.576,0.224,0.621,0.289,0.501,0.916c-0.162,0.841-0.274,1.68-0.152,2.541
			c0.062,0.439,0.175,0.755,0.674,0.827c0.114,0.016,0.33-0.016,0.359,0.208c0.023,0.188-0.125,0.28-0.238,0.363
			c-0.538,0.39-1.084,0.772-1.639,1.14c-0.796,0.526-1.608,1.027-2.401,1.56c-0.166,0.111-0.34,0.272-0.301,0.524
			c0.028,0.183,0.187,0.246,0.33,0.274c0.477,0.099,0.954,0.202,1.437,0.253c0.436,0.049,0.616,0.249,0.609,0.682
			c-0.014,0.933-0.006,1.863-0.006,2.795c0,0.23-0.023,0.471,0.106,0.668c0.227,0.354,0.287,0.725,0.262,1.137
			c-0.023,0.373,0.311,0.801,0.669,0.873c0.552,0.11,1.107,0.239,1.666,0.273c0.392,0.025,0.631,0.145,0.843,0.479
			c0.343,0.54,0.668,0.583,1.249,0.229c0.215-0.129,0.426-0.217,0.683-0.211c0.763,0.019,1.526,0.023,2.29,0.039
			c0.14,0.002,0.329-0.044,0.352,0.188c0.019,0.197-0.111,0.32-0.264,0.389c-0.177,0.08-0.381,0.096-0.563,0.167
			c-0.574,0.228-0.845,0.829-0.593,1.256c0.417,0.706,1.945,0.882,2.333,0.091c0.146-0.297,0.431-0.492,0.716-0.605
			c0.296-0.118,0.43-0.201,0.208-0.502c-0.049-0.066-0.056-0.187,0.042-0.244c0.111-0.066,0.235-0.068,0.347,0.004
			c0.102,0.063,0.066,0.158,0.032,0.242c-0.028,0.07-0.061,0.141-0.101,0.205c-0.192,0.318-0.05,0.582,0.15,0.822
			c0.199,0.239,0.428,0.164,0.648,0.018c0.101-0.067,0.207-0.029,0.311-0.021c0.365,0.027,0.604-0.099,0.594-0.502
			c-0.006-0.283,0.15-0.312,0.382-0.315c0.301-0.007,0.551,0.178,0.839,0.192c1.045,0.046,1.987,0.553,3.022,0.658
			c1.219,0.126,2.381,0.646,3.638,0.543c0.387-0.031,0.75,0.074,1.114,0.208c0.585,0.216,1.221,0.255,1.784,0.04
			c0.35-0.132,0.571-0.203,0.91-0.005c0.363,0.214,0.803,0.229,1.183,0.019c0.269-0.149,0.24-0.464,0.253-0.74
			c0.009-0.176-0.124-0.273-0.169-0.415c-0.058-0.181-0.087-0.399,0.06-0.519c0.272-0.217,0.612-0.127,0.927-0.092
			c0.194,0.022,0.223,0.178,0.227,0.342c0.009,0.493,0.226,0.936,0.384,1.383c0.167,0.478,0.795,0.666,1.12,0.375
			c0.214-0.191,0.446-0.397,0.572-0.648c0.264-0.521,0.607-0.8,1.222-0.704c0.205,0.033,0.527,0.024,0.565-0.239
			c0.074-0.507,0.327-0.806,0.769-1.043c0.202-0.107,0.413-0.25,0.595-0.41C36.862,81.631,36.822,81.294,36.677,81.109
			 M4.874,74.143c-0.21-0.03-0.472-0.002-0.53-0.258c-0.062-0.279,0.183-0.425,0.371-0.572c0.081-0.061,0.203-0.062,0.3-0.106
			c0.483-0.218,0.927-0.435,1.266-0.915c0.378-0.534,0.93-0.937,1.61-1.119c0.472-0.125,0.828,0.019,1.159,0.329
			c1.103,1.042,2.025,2.258,3.149,3.281c0.265,0.238,0.153,0.389-0.119,0.483c-0.126,0.045-0.266,0.053-0.319,0.063
			c-0.248-0.011-0.398-0.04-0.56-0.106c-0.306-0.124-0.648-0.248-0.968-0.231c-0.969,0.049-1.856-0.323-2.787-0.456
			C6.587,74.411,5.731,74.27,4.874,74.143 M7.91,79.875c-0.206-0.002-0.256-0.172-0.259-0.355c-0.004-0.213,0.056-0.424,0.288-0.432
			c0.226-0.007,0.176,0.231,0.213,0.367C8.112,79.635,8.184,79.875,7.91,79.875 M10.167,80.446c-0.36,0.002-0.69-0.403-0.696-0.854
			c-0.005-0.308,0.203-0.378,0.446-0.387c0.344-0.016,0.602,0.32,0.601,0.801C10.472,80.178,10.5,80.443,10.167,80.446
			 M11.651,78.294c-1.126-0.044-2.224-0.342-3.359-0.315c-0.393,0.01-0.778-0.16-0.925-0.592c-0.161-0.471-0.294-0.951-0.404-1.313
			c0.007-0.496,0.177-0.619,0.515-0.474c0.236,0.103,0.481,0.071,0.717,0.067c0.803-0.01,1.578,0.112,2.348,0.34
			c0.269,0.077,0.577,0.055,0.864,0.035c0.351-0.023,0.641,0.176,0.975,0.213c0.19,0.021,0.249,0.229,0.171,0.356
			c-0.201,0.325-0.135,0.677-0.156,1.019C12.362,78.186,12.193,78.314,11.651,78.294 M12.396,80.604
			c-0.334-0.031-0.581-0.145-0.553-0.465c0.021-0.244-0.013-0.607,0.412-0.58c0.363,0.022,0.56,0.256,0.574,0.598
			C12.843,80.448,12.615,80.561,12.396,80.604 M12.573,73.362c-0.158-0.169-0.254-0.37-0.406-0.532
			c-0.492-0.527-0.914-1.129-1.602-1.446c-0.151-0.071-0.344-0.19-0.301-0.414c0.042-0.218,0.168-0.381,0.389-0.471
			c1.295-0.531,2.604-1.031,3.873-1.62c0.493-0.229,1.032-0.317,1.501-0.596c0.259-0.156,0.56-0.123,0.883-0.117
			c0.766-0.097,1.307,0.461,1.932,0.795c0.332,0.177,0.621,0.434,0.926,0.661c0.289,0.213,0.345,0.44,0.049,0.709
			c-1.199,1.095-2.47,2.089-3.925,2.828c-0.23,0.117-0.334,0.31-0.305,0.561c0.033,0.292-0.115,0.457-0.357,0.57
			c-0.299,0.141-0.598,0.283-0.898,0.423c-0.204,0.095-0.372,0.013-0.478-0.149C13.524,74.061,12.975,73.792,12.573,73.362
			 M16.488,75.656c0.883-0.533,1.836-0.912,2.793-1.279c0.278-0.105,0.502-0.26,0.707-0.466c0.396-0.399,0.582-0.394,0.98,0.022
			c0.407,0.424,0.734,0.922,1.184,1.31c0.617,0.534,1.139,1.157,1.639,1.8c0.073,0.096,0.184,0.182,0.112,0.32
			c-0.062,0.119-0.187,0.066-0.245,0.072c-1.526-0.314-3.084-0.203-4.518-0.84c-0.422-0.188-0.952-0.201-1.439-0.158
			c-0.449,0.039-0.838-0.104-1.218-0.308c-0.103-0.056-0.243-0.089-0.238-0.245C16.25,75.732,16.384,75.719,16.488,75.656
			 M15.286,81.01c-0.342-0.002-0.341-0.229-0.342-0.375c-0.024-0.297,0.016-0.459,0.275-0.447c0.273,0.014,0.361,0.18,0.358,0.426
			C15.574,80.818,15.59,81.012,15.286,81.01 M17.511,81.479c-0.272-0.014-0.329-0.231-0.326-0.451
			c0.002-0.191,0.11-0.301,0.318-0.293c0.281,0.011,0.284,0.209,0.29,0.363C17.781,81.327,17.719,81.488,17.511,81.479
			 M17.846,79.491c-0.059,0.004-0.091-0.067-0.082-0.136c0.011-0.09,0.078-0.133,0.147-0.158c0.284-0.109,0.567-0.108,0.83,0.053
			c0.161,0.098,0.304,0.225,0.515,0.385C18.699,79.82,18.297,79.459,17.846,79.491 M20.022,82.225
			c-0.308,0.047-0.748-0.441-0.763-0.785c-0.014-0.293,0.115-0.404,0.407-0.402c0.424,0.004,0.746,0.223,0.754,0.587
			C20.353,81.841,20.366,82.172,20.022,82.225 M22.96,82.464c-0.375,0.11-0.788,0.241-1.109-0.089
			c-0.161-0.165-0.247-0.425-0.197-0.676c0.032-0.159,0.196-0.29,0.331-0.274c0.358,0.043,0.728-0.003,1.074,0.13
			c0.189,0.07,0.225,0.227,0.229,0.41C23.261,82.18,23.187,82.396,22.96,82.464 M27.038,82.727
			c-0.059,0.357-0.333,0.461-0.687,0.449c-0.656-0.021-1.312-0.033-1.948-0.22c-0.403-0.118-0.605-0.739-0.347-1.067
			c0.079-0.1,0.171-0.144,0.318-0.111c0.191,0.041,0.394,0.031,0.548,0.042c0.601-0.052,1.135,0.036,1.643,0.27
			C26.837,82.216,27.092,82.396,27.038,82.727 M31.225,81.754c-0.363,0.01-0.71-0.002-1.062-0.17
			c-0.545-0.264-1.155-0.341-1.743-0.472c-0.283-0.063-0.422-0.13-0.268-0.493c0.234-0.551-0.378-0.545-0.631-0.753
			c-0.229-0.188-0.535-0.14-0.733,0.102c-0.113,0.136,0.03,0.286,0.106,0.414c0.134,0.224,0.392,0.317,0.661,0.574
			c-0.661,0.118-1.257,0.111-1.781-0.044c-1.061-0.313-2.139-0.424-3.227-0.502c-0.413-0.029-0.804-0.098-1.187-0.268
			c-0.311-0.137-0.661-0.065-0.993-0.097c-0.136-0.011-0.279,0.009-0.409-0.026c-0.661-0.172-0.658-0.176-0.311-0.719
			c0.04-0.063,0.034-0.154,0.075-0.215c0.144-0.21,0.375-0.419,0.156-0.682c-0.232-0.278-0.552-0.444-0.93-0.385
			c-0.374,0.06-0.715-0.039-1.07-0.131c-0.613-0.156-1.248-0.111-1.863-0.029c-0.249,0.033-0.54,0.239-0.371,0.64
			c0.067,0.157,0.094,0.344-0.089,0.498c-0.195,0.163-0.308-0.026-0.452-0.069c-0.653-0.193-1.058-0.572-0.971-1.318
			c0.032-0.271-0.157-0.488-0.227-0.736c-0.073-0.262,0.02-0.346,0.262-0.322c0.495,0.05,1.011,0.012,1.413,0.408
			c0.168,0.165,0.394,0.193,0.634,0.199c0.817,0.012,1.63,0.146,2.437,0.236c0.679,0.076,1.397,0.246,2.037,0.558
			c0.238,0.116,0.471,0.134,0.708,0.122c0.754-0.047,1.462,0.158,2.189,0.307c0.812,0.166,1.636,0.352,2.481,0.266
			c0.697-0.068,1.382-0.084,2.067,0.146c0.277,0.093,0.612,0.079,0.909,0.034c0.791-0.121,1.508,0.162,2.246,0.341
			c0.182,0.043,0.334,0.162,0.318,0.341c-0.049,0.543,0.12,1.047,0.209,1.566C31.916,81.661,31.813,81.738,31.225,81.754
			 M25.268,76.525c0.277-0.287,0.69-0.387,0.92-0.723c0.384-0.559,0.976-0.836,1.548-1.136c0.366-0.194,0.677-0.105,0.993,0.168
			c0.691,0.601,1.241,1.323,1.848,1.994c0.171,0.189,0.395,0.329,0.581,0.505c0.176,0.168,0.409,0.371,0.296,0.618
			c-0.114,0.253-0.434,0.231-0.693,0.29c-0.309-0.075-0.631-0.121-0.927-0.233c-0.539-0.206-1.102-0.208-1.661-0.252
			c-0.922-0.071-1.861,0-2.755-0.319C24.949,77.271,24.908,76.9,25.268,76.525 M32.025,76.004c-0.267-0.391-0.603-0.67-0.958-0.976
			c-0.405-0.347-0.804-0.724-1.25-1.013c-0.697-0.452-1.444-0.751-2.219-0.224c-0.802,0.55-1.704,0.937-2.612,1.292
			c-0.199,0.079-0.382,0.172-0.534,0.338c-0.262,0.285-0.574,0.276-0.852,0.033c-0.753-0.655-1.56-1.257-2.179-2.058
			c-0.221-0.285-0.497-0.391-0.875-0.351c-0.484,0.053-0.976,0.017-1.465,0.037c-0.474,0.016-0.917,0.159-1.345,0.362
			c-0.328,0.156-0.698,0.01-1.037,0.152c0.459-0.496,0.956-0.861,1.628-0.996c0.667-0.133,1.31-0.349,1.876-0.788
			c0.473-0.366,1.1-0.469,1.616-0.811c0.357-0.237,0.513-0.477,0.513-0.872c0-0.691,0.115-0.818,0.776-0.882
			c0.276-0.026,0.535-0.093,0.776-0.243c0.364-0.227,0.696-0.158,1.06,0.069c0.717,0.445,1.378,0.981,2.112,1.386
			c0.543,0.303,1.179,0.369,1.792,0.035c1.457-0.794,1.897-0.564,2.829,0.237c0.278,0.239,0.563,0.462,0.887,0.63
			c0.413,0.213,0.748,0.511,1.036,0.873c0.307,0.384,0.712,0.657,1.134,0.896c0.74,0.419,0.778,0.968,0.135,1.536
			c-0.591,0.519-1.145,1.078-1.824,1.491C32.687,76.375,32.255,76.34,32.025,76.004 M34.045,82.176
			c-0.064,0.241-0.122,0.65-0.51,0.658c-0.27,0.008-0.331-0.367-0.381-0.625c-0.028-0.145,0.508-0.553,0.684-0.542
			C34.007,81.676,34.063,81.789,34.045,82.176 M33.331,81.031c-0.091,0.092-0.164,0.201-0.299,0.146
			c-0.15-0.059-0.217-0.186-0.247-0.354c-0.107-0.605-0.103-1.238-0.438-1.789c-0.131-0.216,0.042-0.409,0.184-0.499
			c0.923-0.587,1.644-1.4,2.433-2.137c0.13-0.12,0.244-0.368,0.421-0.296c0.21,0.085,0.066,0.353,0.098,0.495
			c-0.057,0.846-0.114,1.65-0.163,2.457c-0.009,0.146-0.038,0.293-0.159,0.362C34.434,79.823,33.907,80.455,33.331,81.031"/>
		<path style="fill:#F2A300;" d="M24.256,80.278c-0.708,0.053-1.318-0.136-1.796-0.69c-0.081-0.094-0.194-0.154-0.141-0.299
			c0.05-0.135,0.171-0.164,0.296-0.17c0.455-0.022,0.913-0.084,1.353,0.098c0.261,0.109,0.54,0.072,0.811,0.09
			c0.336,0.021,0.569,0.215,0.584,0.513c0.017,0.356-0.283,0.461-0.605,0.459C24.591,80.278,24.423,80.278,24.256,80.278"/>
	</g>
</g>
</svg>
