<?xml version="1.0" encoding="utf-8"?>
<!-- Generator: Adobe Illustrator 16.0.0, SVG Export Plug-In . SVG Version: 6.00 Build 0)  -->
<!DOCTYPE svg PUBLIC "-//W3C//DTD SVG 1.1//EN" "http://www.w3.org/Graphics/SVG/1.1/DTD/svg11.dtd">
<svg version="1.1" id="圖層_1" xmlns="http://www.w3.org/2000/svg" xmlns:xlink="http://www.w3.org/1999/xlink" x="0px" y="0px"
	 width="57.35px" height="57.35px" viewBox="0 0 57.35 57.35" enable-background="new 0 0 57.35 57.35" xml:space="preserve">
<g>
	<circle fill="none" stroke="#F6C25C" stroke-miterlimit="10" cx="28.675" cy="28.674" r="26.499"/>
	<path fill="#F6C25C" d="M29.262,36.575h-2.959c0.109-0.814,0.164-1.699,0.164-2.654v-5.282c-0.188,0-0.398,0.012-0.633,0.035
		s-0.414,0.043-0.539,0.059v-2.486h1.172c0-1.676,0.213-2.928,0.635-3.758c0.578-1.143,1.635-1.713,3.169-1.713
		c0.625,0,1.219,0.102,1.783,0.305v2.418c-0.266-0.141-0.512-0.25-0.74-0.328c-0.227-0.078-0.457-0.117-0.691-0.117
		c-0.643,0-1.072,0.281-1.291,0.844c-0.143,0.361-0.213,0.916-0.213,1.668v0.682h2.488v2.486c-0.797-0.094-1.588-0.141-2.369-0.141
		H29.12c0,0.439-0.008,1.119-0.021,2.043c-0.016,0.924-0.025,1.627-0.025,2.111c0,0.861,0.01,1.551,0.025,2.066
		C29.112,35.331,29.168,35.917,29.262,36.575"/>
</g>
</svg>
