<svg id="圖層_1" data-name="圖層 1" xmlns="http://www.w3.org/2000/svg" viewBox="0 0 173.1 49.13"><defs><style>.cls-1{fill:#3a4b40;}.cls-2{fill:#e79e17;}</style></defs><title>工作區域 1</title><path class="cls-1" d="M72.43,22.22a1,1,0,0,1-.25-.3,3.16,3.16,0,0,1-.22-.5,2.4,2.4,0,0,0-.37-.71,2.72,2.72,0,0,0-.82-.73,3.91,3.91,0,0,0-.73-.24c-.19,0-.39-.1-.59-.17a.27.27,0,0,0-.29.07.67.67,0,0,1-.62.23,4.17,4.17,0,0,0-2.37.48l-.25.1-.27.11a4.1,4.1,0,0,1-.73.23,2,2,0,0,0-.83.32.5.5,0,0,1-.63,0l0,.05,0,0a.61.61,0,0,1-.45.3,1.06,1.06,0,0,0-.56.31,1.58,1.58,0,0,1-.92.46,2.52,2.52,0,0,1-1.56.75l-.18,0a2.08,2.08,0,0,0-1.65,1.46c-.15.48-.19.78.05,1a4.38,4.38,0,0,0,.38.35,4.25,4.25,0,0,1,.6.6,1.17,1.17,0,0,1,.82.34l0,0a2.08,2.08,0,0,0,1.23.59,1.21,1.21,0,0,1,.81.39l.15.19.08.11a1.63,1.63,0,0,1,.88.85,1.84,1.84,0,0,0,.28.41,5.46,5.46,0,0,0,1,.87.49.49,0,0,1,.35.39.5.5,0,0,1-.35.55.57.57,0,0,0-.19.17l-.08.08a1.15,1.15,0,0,1-.84.39,3.26,3.26,0,0,1-1.13-.11,6,6,0,0,0-2-.17H60c-.42.06-.52-.19-.54-.3a.12.12,0,0,0,0-.05h-.13a1.52,1.52,0,0,1-.21,0,1.84,1.84,0,0,1-.94-.48,3.41,3.41,0,0,0-1.43-1,.6.6,0,0,1-.33-.2l-.36-.4a4.2,4.2,0,0,1-.69-.9v0c-.14-.28-.17-.28-.27-.27a.42.42,0,0,1-.48-.27c-.1-.16-.17-.3-.24-.43a1.59,1.59,0,0,0-.53-.68.57.57,0,0,1-.3-.47.48.48,0,0,1,.1-.28,2.28,2.28,0,0,1-.36-.49l-.17-.25s-.19-.24-.28-.19a.58.58,0,0,0-.3.36.46.46,0,0,0,.11.38.36.36,0,0,0,.07.1,1.37,1.37,0,0,1,.27.54,2.44,2.44,0,0,0,.62,1.16l0,0a1.54,1.54,0,0,1,.49.83,1.2,1.2,0,0,0,.69.94.91.91,0,0,1,.5,1,.28.28,0,0,0,.06.25,1.61,1.61,0,0,1,.36.82,1.17,1.17,0,0,0,.62.68h0a2.11,2.11,0,0,1,1.7.61.38.38,0,0,0,.29.09.5.5,0,0,1,.48.18,1.29,1.29,0,0,0,.67.4l.22.09a5.61,5.61,0,0,0,1.4.42l.88.12c.42.06.86.12,1.28.16a2.06,2.06,0,0,0,.34,0L64,34a1.19,1.19,0,0,1,.59.14,1.54,1.54,0,0,1,.39-.07h.14c.3-.06.61-.1.91-.15a5.87,5.87,0,0,0,2.59-.8c.57-.39.92-.66.93-1.17v-.25a.75.75,0,0,1-.64-.6c0-.18-.13-.25-.34-.29a.94.94,0,0,1-.48-.2,6.73,6.73,0,0,0-1.63-.89,7.1,7.1,0,0,1-1.88-1.08.71.71,0,0,0-.2-.11A4.87,4.87,0,0,1,63.28,28a4,4,0,0,1-.37-.27,1.76,1.76,0,0,0-.58-.35A2.1,2.1,0,0,1,61,25.93a.61.61,0,0,0-.16-.29A.77.77,0,0,1,60.6,25a.79.79,0,0,1,.45-.58.2.2,0,0,0,.11-.13,2,2,0,0,1,.46-.69l0,0a3.59,3.59,0,0,1,1.17-.8l.39-.21a3.38,3.38,0,0,1,.9-.34l.29-.07a3.75,3.75,0,0,1,1.31-.18.73.73,0,0,1,.77,0,3.37,3.37,0,0,1,.63.4,1.21,1.21,0,0,0,.88.33,4.22,4.22,0,0,1,2,.3l0,0,0,0a.69.69,0,0,1,.81-.18l.26.1a3.35,3.35,0,0,1,.46.18.42.42,0,0,0,.58-.12,1.4,1.4,0,0,0,.41-.65l-.09-.08"/><path class="cls-1" d="M45.94,30.43c.05.18.11.37.17.55.18.5.4.58.58.6a1.43,1.43,0,0,1,.7.24.38.38,0,0,0,.33,0,.91.91,0,0,0,.55-.46,1.33,1.33,0,0,0,0-.79,1.89,1.89,0,0,1,0-1l0,0a1.65,1.65,0,0,1-.49-1l0,0-.07-.05a.73.73,0,0,1-.27-.32,11.45,11.45,0,0,0-.66-1.37l-.14-.25c-.21-.39-.38-.47-.58-.47h-.05l0,.07a1.3,1.3,0,0,0-.1.72V27a4.56,4.56,0,0,1,0,.89c0,.16,0,.34,0,.52a3.14,3.14,0,0,1-.12.95c.15.36.26.7.37,1"/><path class="cls-1" d="M108.37,35.84a.29.29,0,0,0,.15-.31c0-.22-.11-.36-.48-.48l-.38-.1a2.21,2.21,0,0,1-1.11-.5l-.19,0a1.17,1.17,0,0,1-.57-.25,4,4,0,0,0-.4-.28,2.86,2.86,0,0,1-.94-.84,1.46,1.46,0,0,1-.63-.17.8.8,0,0,0-.3-.1,4,4,0,0,1-1.7-.25l-.17-.05a4.05,4.05,0,0,0-.5-.12A3.54,3.54,0,0,1,100,32c-.17-.11-.31-.22-.46-.33a2.64,2.64,0,0,0-.9-.52,1.76,1.76,0,0,1-.86-.61c-.06-.06-.11-.12-.17-.17a.3.3,0,0,0-.16-.07A.72.72,0,0,1,97,30a3.27,3.27,0,0,1-.72-1.5.62.62,0,0,1,.29-.68,5.29,5.29,0,0,0,.43-.32A3.12,3.12,0,0,1,98,26.93a2.16,2.16,0,0,0,.75-.52,2.91,2.91,0,0,1,.79-.57l.14-.06a2,2,0,0,0,.25-.12,2.29,2.29,0,0,1,.52-.62,1.39,1.39,0,0,0,.44-.55,2.23,2.23,0,0,1,.42-.69l.1-.12a1.93,1.93,0,0,0,.49-1.45v-.1l0-.09s0-.09-.1-.27a1.48,1.48,0,0,1-.21-.51,1.35,1.35,0,0,1-.45-.22l-.1-.07a.78.78,0,0,0-.78,0,.72.72,0,0,0-.4.58,1.24,1.24,0,0,1-.36.89l-.08.08c-.37.38-.76.76-1.17,1.12-.09.08-.1.11-.1.25s0,.22,0,.33A1.51,1.51,0,0,1,98,25.53q-.16.2-.33.42a2,2,0,0,1-.17.23.7.7,0,0,1-.5.35.54.54,0,0,1-.37-.14.83.83,0,0,1-1.11-.2,1.05,1.05,0,0,1-.69-.43l-.11-.13a.67.67,0,0,1-.64,0l-.06,0a2,2,0,0,1-.92-.72s0,0-.11,0a.87.87,0,0,0-.78.19,1,1,0,0,0-.36.82c0,.15,0,.3,0,.45a4.16,4.16,0,0,1,0,1.45,2.41,2.41,0,0,1,.41,2,5.44,5.44,0,0,0-.09,1c0,.68,0,1.36,0,2,0,.49,0,1,0,1.48,0,.11,0,.22,0,.33a2.28,2.28,0,0,1,0,.82,1,1,0,0,0,0,.58.9.9,0,0,1-.52,1.17.91.91,0,0,0-.33.28c-.2.27-.19.39.06.63a6,6,0,0,1,.69.83,2.39,2.39,0,0,1,.13.21c.16.27.23.37.41.37a1,1,0,0,0,.92-.79,19.62,19.62,0,0,0,.15-3.54c0-.12,0-.23,0-.34a2.13,2.13,0,0,1,.22-1.42,1.12,1.12,0,0,1,0-.74,3.34,3.34,0,0,0,.06-.78,4.35,4.35,0,0,1,0-.8,1.13,1.13,0,0,1,.42-.75.58.58,0,0,1,.72,0l0,0,.18.1.41.25.06,0A4.49,4.49,0,0,1,97,31.8l.2.31c.18.31.29.48.55.53a.75.75,0,0,1,.36.23l.06.05c.26.22.5.45.73.68s.41.4.62.58.54.43.81.64a13.31,13.31,0,0,1,1,.84.89.89,0,0,0,.2.11,1,1,0,0,1,.51.35c.47.71,1.19.77,2,.84l.18,0a2,2,0,0,0,.89-.1,6.88,6.88,0,0,1,1.43-.38,4,4,0,0,0,1.7-.66"/><path class="cls-1" d="M92.46,24c.4-.06.81-.13,1.21-.23A9.65,9.65,0,0,1,95,23.61a5.66,5.66,0,0,0,1.89-.42.54.54,0,0,1,.41,0,3.41,3.41,0,0,1,.17-1.06,14.12,14.12,0,0,0,.45-2.28c0-.11,0-.23,0-.35a3.77,3.77,0,0,1,.45-1.64c.28-.45.55-.93.8-1.43a2.12,2.12,0,0,0,.32-1.59A2.08,2.08,0,0,0,98,13.62a2.55,2.55,0,0,0-2.2.48,2.61,2.61,0,0,1-1.57.38,4.72,4.72,0,0,0-.66,0,.45.45,0,0,1-.4-.14.74.74,0,0,0-.63-.2.59.59,0,0,1-.64-.43.57.57,0,0,1,.26-.65,2.4,2.4,0,0,1,.37-.22l.07,0a.6.6,0,0,0,.31-.36.17.17,0,0,0,0-.12l-.09-.14a2.21,2.21,0,0,0-1-1,1.05,1.05,0,0,0-.91,0,.86.86,0,0,0-.27.71l0,.1,0,.09a2.2,2.2,0,0,1-.5.91l-.09.08a.63.63,0,0,0-.16.2,2.56,2.56,0,0,1-1.08,1.81l-.11.07-.13.11a.54.54,0,0,1-.18.45.59.59,0,0,1-.54.05,8.89,8.89,0,0,1-1.06-.39c-.15-.08-.24,0-.49.16,0,0-.13.1,0,.33l.15.34c.11.24.21.48.33.7a1.36,1.36,0,0,1,0,1.27.61.61,0,0,0,0,.64l.14.21c.24.37.49.75.76,1.09l.15.17a1.53,1.53,0,0,1,.52,1.51.38.38,0,0,1,0,.1c.06.49.11.95.21,1.41v0a.52.52,0,0,1-.09.57A.45.45,0,0,1,88,24a.9.9,0,0,1-.68.4,1.08,1.08,0,0,0-.58.33l.14.06a1.68,1.68,0,0,1,.74.53,3.81,3.81,0,0,1,1.18-.17,2.09,2.09,0,0,0,1-.3,5.75,5.75,0,0,1,1.42-.57c.41-.1.83-.17,1.24-.24m-2-.66h0a.61.61,0,0,1-.5-.22.59.59,0,0,1-.09-.55,1.43,1.43,0,0,0,0-.47,2.05,2.05,0,0,1,0-.6,1.28,1.28,0,0,1-.17-1,2.08,2.08,0,0,0,0-.23.76.76,0,0,0,0-.28,1.89,1.89,0,0,1,0-.23,10.74,10.74,0,0,0-.28-1A7.09,7.09,0,0,1,89,17.16a1.33,1.33,0,0,1,0-1.55,1.12,1.12,0,0,1,1-.59.84.84,0,0,1,.78.4,1.49,1.49,0,0,0,.52.47,2.77,2.77,0,0,1,.51.42s0,0,.09,0a3.32,3.32,0,0,1,.88-.05,2.69,2.69,0,0,0,.64,0h.08l.09,0A4.09,4.09,0,0,1,95,15.74l.42-.07a1,1,0,0,0,.22-.08,1.4,1.4,0,0,1,.41-.16.71.71,0,0,1,.62.13.64.64,0,0,1,.16.55,2.18,2.18,0,0,0,0,.25.41.41,0,0,1,0,.11,3.19,3.19,0,0,1-.2,1.43l0,.1a1.71,1.71,0,0,1-.87,1.47,1.31,1.31,0,0,0-.38,1.23,1.53,1.53,0,0,1-1.15,1.77c-.51.14-1,.24-1.54.33A4.05,4.05,0,0,0,92,23a5.16,5.16,0,0,1-.63.23,3.86,3.86,0,0,1-.81.09Z"/><path class="cls-1" d="M87,34.81a4.25,4.25,0,0,1,.62-.65,2.88,2.88,0,0,0,.63-.73,3.24,3.24,0,0,1,.55-.79,2.79,2.79,0,0,0,.41-.67l.13-.27a6.92,6.92,0,0,0,.59-1.44.91.91,0,0,1,.25-.47,1.79,1.79,0,0,0,.46-1c0-.1,0-.2.07-.3,0-.47-.13-.81-.37-.9s-.42-.14-.69-.21c-.47-.13-.48-.13-.67.34a1,1,0,0,1-.76.65l-.25.06a1.52,1.52,0,0,0-.59.19.52.52,0,0,0-.11.1.79.79,0,0,1-.67.27,2.13,2.13,0,0,1-.88.62,3,3,0,0,0-.36.19,8.2,8.2,0,0,1-1.13.53,8.76,8.76,0,0,0-.87.39c-.17.09-.17.12-.18.26s.07.27.3.46l.19.16a.93.93,0,0,0,1.29.12c.56-.35,1.06-.69,1.55-1a2.7,2.7,0,0,1,.62-.3,1.07,1.07,0,0,1,.32-.06.51.51,0,0,1,.42.21.68.68,0,0,1,0,.75l-.15.27a3.44,3.44,0,0,1-.89,1.18.8.8,0,0,0-.29.31,6.68,6.68,0,0,1-.71,1.61l-.27.51c-.18.36,0,.48,0,.52a.43.43,0,0,0,.57-.06,4.48,4.48,0,0,0,.89-.84"/><path class="cls-1" d="M91.14,19.15a1.08,1.08,0,0,0-.3.52,2.17,2.17,0,0,1-.11.44h.19a10.74,10.74,0,0,0,2.8-.47l.17-.05c.29-.07.47-.12.57-.31a.69.69,0,0,0-1-.94l-.2.1a3.71,3.71,0,0,1-2,.5l-.17.21"/><path class="cls-1" d="M15.46,37.91a1.45,1.45,0,0,1,.18-.78,3.46,3.46,0,0,0,.36-.72,3.53,3.53,0,0,1,.28-.51,1.72,1.72,0,0,0,.25-.51,3.43,3.43,0,0,1,.23-.66,3.34,3.34,0,0,0,.18-.5,3.66,3.66,0,0,1,.33-.78,3,3,0,0,0,.31-.77,1.34,1.34,0,0,0,0-.21,1.21,1.21,0,0,1,.1-.57A4.42,4.42,0,0,0,18,30.8a6.56,6.56,0,0,1,.23-.84s0-.07,0-.09-.07-.05-.15,0a.68.68,0,0,0-.56.39,9.78,9.78,0,0,1-1.18,2c-.09.12-.17.25-.26.39a3.1,3.1,0,0,1-.56.73,0,0,0,0,1,0,0,.42.42,0,0,1,0,.1,2.36,2.36,0,0,1-.77,1,.46.46,0,0,1-.46.1.39.39,0,0,1-.25-.29.49.49,0,0,0,0-.11.81.81,0,0,1-.08-.47c0-.17,0-.33.05-.5a5,5,0,0,1,.21-1.22,4.53,4.53,0,0,1,.23-.55c0-.11.1-.21.14-.32a14.5,14.5,0,0,0,.79-2.41,1.42,1.42,0,0,1,.05-.22,1.31,1.31,0,0,0,0-.75c0-.13-.09-.26-.13-.38A4.71,4.71,0,0,0,14.74,26a3.07,3.07,0,0,1-.37-.75,2,2,0,0,0-.37-.71.63.63,0,0,1-.19-.61.6.6,0,0,1,.47-.41s0,0,0-.11c0-.24-.05-.3-.27-.37L13.83,23c-.21-.07-.27-.09-.36,0l-.12.07a1,1,0,0,0-.43.35l0,.1a2.75,2.75,0,0,0-.25.67l0,.08a3.34,3.34,0,0,0,0,2,3.75,3.75,0,0,1,.2.65,2.32,2.32,0,0,0,.18.58,2.06,2.06,0,0,1,.27,1.13,2.35,2.35,0,0,1-.44,1.65.67.67,0,0,0-.1.35,8.15,8.15,0,0,1,0,1c0,.13,0,.26,0,.4s0,.53-.1.81a2.82,2.82,0,0,0-.05.86c0,.15.06.29.09.44a3,3,0,0,1,.11,1.2,2,2,0,0,1,.46.93,1.93,1.93,0,0,0,.19.51,1.83,1.83,0,0,1,.29.87,1.13,1.13,0,0,0,.42.78,1.8,1.8,0,0,1,.19.24.76.76,0,0,0,.79.36c.12,0,.29-.06.36-.55v0a.57.57,0,0,1,0-.18,2.71,2.71,0,0,0,0-.29"/><path class="cls-1" d="M13.86,20.79a.69.69,0,0,0,.48-.27,2.2,2.2,0,0,1,.24-.58l.08-.16a2.21,2.21,0,0,1,1.81-1.26c.51-.08.9-.17,1.09-.59a1.23,1.23,0,0,0,.08-.29,2.26,2.26,0,0,1,.08-.3.63.63,0,0,0-.38-.88c-.19-.07-.36-.15-.54-.23a3.75,3.75,0,0,0-1.75-.46.74.74,0,0,1-.36-.08l0,0a.25.25,0,0,0-.16,0,1.83,1.83,0,0,1-1.37-.28,2.53,2.53,0,0,1-.27-.18,1.71,1.71,0,0,0-.33-.2h-.08a.5.5,0,0,0-.31.13.23.23,0,0,0-.09.14,1.06,1.06,0,0,0,.4.65c.34.28.7.55,1.05.82l.54.43a.91.91,0,0,1,.35.93,1.31,1.31,0,0,0,0,.59.61.61,0,0,1,0,.34v0a3.31,3.31,0,0,1-.68,1.38s-.08.09,0,.28.05.08.2.09"/><path class="cls-1" d="M35.16,33.46l.43.17a2.82,2.82,0,0,0,1.43.3c.16,0,.27-.07.31-.15a.35.35,0,0,0,0-.32,4.22,4.22,0,0,1-.28-.67l-.08-.11a.73.73,0,0,1-.21-.5.72.72,0,0,0-.42-.69.36.36,0,0,1-.15-.08l0-.05a.6.6,0,0,1-.38-.24l-.14-.1a1.71,1.71,0,0,1-.61-.43h0a.67.67,0,0,1-.38-.2h0a.53.53,0,0,1-.21-.11L34,30.19l-.16,0a1.3,1.3,0,0,1-.6-.22l-.1-.06a7.74,7.74,0,0,1-1.85-.39,1.24,1.24,0,0,1-.33-.15,3.19,3.19,0,0,0-1.8-.41,1.28,1.28,0,0,1-.81-.23l-.07-.06-.14-.19,0-.12a4.84,4.84,0,0,0-.06-.5,3,3,0,0,1,0-1.23,1.28,1.28,0,0,0,0-.48c0-.06,0-.12,0-.19a1.25,1.25,0,0,0,0-.19,1.31,1.31,0,0,1,.06-.77.19.19,0,0,0,0-.07l0-.11a1.94,1.94,0,0,1,.21-1.63l.06-.06.13-.11a1,1,0,0,1,.37-.21l.07,0a1.21,1.21,0,0,1,.8-.46,3.14,3.14,0,0,0,.56-.2,3.8,3.8,0,0,1,.47-.18,4.36,4.36,0,0,0,.61-.25,3.13,3.13,0,0,1,1.43-.39.22.22,0,0,0,.17-.07.66.66,0,0,0,.16-.5,2.18,2.18,0,0,0-.27-.84l-.09-.21c0-.11-.18-.15-.45-.21a2.93,2.93,0,0,0-1.71,0,1.2,1.2,0,0,1-.29.09.88.88,0,0,0-.29.11,1.62,1.62,0,0,1-.54.22h0a.78.78,0,0,1-.66-.05.91.91,0,0,1-.36-.61,2.37,2.37,0,0,1,.08-1.11.42.42,0,0,1-.06-.4,1,1,0,0,0,0-.5,1.42,1.42,0,0,1,.09-.85,1.72,1.72,0,0,0-.08-1.89,1.64,1.64,0,0,1-.16-.33,1.29,1.29,0,0,0-.09-.2,1.08,1.08,0,0,0-.61-.49,1,1,0,0,1-.41-.22c-.29-.24-.62-.2-1.06-.05-.29.09-.36.5-.26.84a3.34,3.34,0,0,0,.43.84A2,2,0,0,1,26.53,16c0,.13,0,.26,0,.39l0,.33a2.59,2.59,0,0,0,0,.41,1.76,1.76,0,0,1,0,1,1.88,1.88,0,0,1,.18.93c0,.12,0,.24,0,.34A1.49,1.49,0,0,1,26,21a3,3,0,0,0-.57.33,5,5,0,0,1-.51.32l-.32.15c-.24.12-.49.24-.72.38a2.86,2.86,0,0,0-.3.22l-.31.24-.35.22a10.32,10.32,0,0,1-1.88,1,3.92,3.92,0,0,1-1,.22.55.55,0,0,0-.39.18.52.52,0,0,0,0,.46.67.67,0,0,0,.55.45,1.87,1.87,0,0,1,.32.15,1.81,1.81,0,0,0,1.19.39.71.71,0,0,1,.45.1c.1.07.2.11.41-.07a2.41,2.41,0,0,1,.61-.39,2.06,2.06,0,0,0,.48-.3l.2-.14a.92.92,0,0,0,.17-.13.56.56,0,0,1,.66-.22.44.44,0,0,1,.27.24.58.58,0,0,1,0,.44l-.3.73-.15.33-.2.27A.47.47,0,0,1,24,27L24,27a1.06,1.06,0,0,1-.38.53l-.08.07a1,1,0,0,1-.31.43.37.37,0,0,1-.08.15l-.06.07a.55.55,0,0,1-.12.24.91.91,0,0,1-.16.23h0a.7.7,0,0,1-.3.47l-.14.19a.35.35,0,0,1-.1.21.38.38,0,0,1-.17.1l-.08.08a2.24,2.24,0,0,1-.3.65l0,0a2.67,2.67,0,0,0-.32.4,3.5,3.5,0,0,1-.35.46l-.18.19a1.65,1.65,0,0,1-1.15.71.66.66,0,0,0-.5.34l0,0A3.15,3.15,0,0,0,18.59,34a.37.37,0,0,0,0,.26.36.36,0,0,0,.2.06,3.09,3.09,0,0,0,1.09-.18l.19-.06a3.65,3.65,0,0,0,1.87-1,3.28,3.28,0,0,1,.49-.43,1.48,1.48,0,0,0,.47-.46,5.49,5.49,0,0,1,.39-.59,4.15,4.15,0,0,0,.24-.34,2.43,2.43,0,0,1,1.6-1.13l.2,0a.63.63,0,0,1,.41.13.58.58,0,0,1,.21.44v.41c0,.38,0,.76,0,1.15a6,6,0,0,1-.07.85l0,.23a6.44,6.44,0,0,0,0,1,5.27,5.27,0,0,1,0,1.19.54.54,0,0,0,0,.2,5.22,5.22,0,0,1,.15,2v.17a2.32,2.32,0,0,0,.2.93c0,.12.09.25.13.37a1.22,1.22,0,0,0,.36.65.7.7,0,0,1,.23.62c0,.07,0,.1.26.2h0c.07,0,.13-.07.14-.1a1.93,1.93,0,0,0,.29-1,6.16,6.16,0,0,1,.13-1.3l0-.24A5,5,0,0,0,28,36.71a11.11,11.11,0,0,1,0-1.41,10.22,10.22,0,0,0-.05-1.57A7.92,7.92,0,0,1,28,31.42a.66.66,0,0,1,.24-.48.62.62,0,0,1,.49-.09,9.28,9.28,0,0,1,1.47.41,7.51,7.51,0,0,1,2.18,1.11h.07a4.63,4.63,0,0,1,1.62.75.46.46,0,0,0,.31.13,1.56,1.56,0,0,1,.65.14l.15.06"/><path class="cls-2" d="M146.64,20a1.57,1.57,0,0,0,1.1-.23,2.36,2.36,0,0,1,1.55,0,4.18,4.18,0,0,0,1.05.22c.45,0,.57-.14.54-.59a.25.25,0,0,1,.32-.29,5.66,5.66,0,0,1,1.66.39,1.78,1.78,0,0,1,.49.46.65.65,0,0,0,1,.17c.62-.4.81-.39,1.25.19.23.3.48.19.7.08a1.59,1.59,0,0,1,1.69.06,19.12,19.12,0,0,1,2.38,1.71,5.45,5.45,0,0,1,.74.55,1.36,1.36,0,0,1,.34.81,1.15,1.15,0,0,0,.38.85.84.84,0,0,1,0,1.39c-.34.33-.34.49,0,.83a3.24,3.24,0,0,1,.45.6,1.35,1.35,0,0,1-.19,1.46c-.41.48-1,.79-1.39,1.24-.2.21-.27.39-.06.65a.72.72,0,0,1,0,1,3.45,3.45,0,0,0-.75,1.49,1.89,1.89,0,0,1-.26.51,3.52,3.52,0,0,0-.67,1.16.67.67,0,0,1-1.19.11c-.15-.23-.29-.24-.47-.1-.49.39-1.08.25-1.63.31a.41.41,0,0,1-.37-.61,2.38,2.38,0,0,1,.68-1c.08,0,.14-.11.12-.2s-.11-.08-.18-.1-.38-.12-.58-.16a.69.69,0,0,1-.44-.92.35.35,0,0,0-.05-.43.84.84,0,0,1,.53-1.4c.34-.05.46-.21.45-.58a14.63,14.63,0,0,1-.16-1.61c0-.09,0-.2-.13-.22s-.23.1-.24.21a1.18,1.18,0,0,1-.41.78,2.68,2.68,0,0,1-.79.49c-.27.12-.54,0-.46-.32.16-.6,0-1.3.53-1.8.23-.2.11-.54-.18-.68a2.67,2.67,0,0,0-.36-.14c-.46-.16-.66,0-.86.45a11.8,11.8,0,0,0-.32,1.43.47.47,0,0,1-.38.37.68.68,0,0,0-.62.63c0,.37-.41.35-.7.34a1.14,1.14,0,0,1-1.18-.79c-.13-.35-.52-.37-.84-.46a1.79,1.79,0,0,1-1.22-.95,2.76,2.76,0,0,1-.32-.84c-.05-.38-.38-.49-.71-.54a4.34,4.34,0,0,0-.51,0c-.41,0-.79-.09-1-.56a.46.46,0,0,0-.65-.22,2.94,2.94,0,0,0-.67.32c-.39.3-.76,0-1.12-.06-.77-.16-1.42-.56-1.49-1.39s-.13-1.25.95-1.5a7.23,7.23,0,0,1,1.22-.39s.11,0,.11-.08c.06-.34.41-.38.58-.57s.66-.55,1-.85a3.73,3.73,0,0,1,1.44-.74,1.75,1.75,0,0,1,.35,0"/><path class="cls-2" d="M151.38,37.06c-.19.31-.25.64-.52.86s-.36.24-.54.15-.44-.23-.45-.5a3,3,0,0,1,.24-1.61.68.68,0,0,1,.79-.38c.2.06.27,0,.35-.17a3.56,3.56,0,0,0,.12-1.21c0-.18-.13-.21-.27-.21-.38,0-.52-.23-.61-.54a12.65,12.65,0,0,1,0-1.51c0-.18.69-.72.88-.7s.29.23.39.38,0,.15,0,.21.15.43.39.41.34-.2.41-.4a.44.44,0,0,1,.42-.32.43.43,0,0,1,.47.26,1.46,1.46,0,0,0,.27.38.83.83,0,0,1,.17.87c-.18.55-.39,1.09-.59,1.64a.82.82,0,0,1-.15.24,1.48,1.48,0,0,0-.4,1.49,8,8,0,0,1,.16,1,.46.46,0,0,1-.63.53c-.21-.06-.47,0-.62-.23s-.11-.41-.31-.6"/><path class="cls-2" d="M121.16,36.88c.15-.52,0-1.15.25-1.73.11-.22,0-.35-.21-.43a1.39,1.39,0,0,1-.68-.79,8.52,8.52,0,0,0-.46-.84,1.25,1.25,0,0,1-.2-.75c0-.16,0-.32.18-.39a.41.41,0,0,1,.46.14,4.3,4.3,0,0,0,.65.55c.17.11.26,0,.28-.12a1.06,1.06,0,0,0-.16-.86c-.16-.19-.29-.41-.07-.64A.58.58,0,0,1,122,31c.2.16.41.29.61.45s.3.23.21.45-.26.19-.43.19c-.43,0-.5.11-.45.53a.75.75,0,0,0,.88.73.47.47,0,0,1,.5.28.44.44,0,0,1-.13.58c-.33.21-.53.69-1,.52a.23.23,0,0,0-.29.21.64.64,0,0,0,.26.49c.12.1.22,0,.32,0l.13-.12a.5.5,0,0,1,.61-.18c.23.1.15.34.12.51-.06.38,0,.62.45.63a.26.26,0,0,1,.25.22c0,.12-.09.2-.18.25a1.28,1.28,0,0,1-1,.27.54.54,0,0,0-.65.3c-.24.43-.42.53-.77.43s-.24-.44-.28-.77"/><path class="cls-2" d="M126.53,15.75c0-.19-.07-.44.08-.68a1.36,1.36,0,0,1,2-.6c.29.17.38,0,.47-.15s.19-.59.56-.59a1,1,0,0,1,.84.56c.25.42.29.91.53,1.32.08.13-.25.48-.48.5a1.47,1.47,0,0,1-1.3-.38.28.28,0,0,0-.3-.06.26.26,0,0,0-.18.28,2.62,2.62,0,0,1-.12,1,.66.66,0,0,1-.79.44c-.89-.15-1.36-.48-1.28-1.6"/><path class="cls-2" d="M128.83,37.31a.45.45,0,0,1-.19.29c-.3.22-.58.5-1,.35a.42.42,0,0,0-.4.09c-.1.06-.24.14-.34.06a.3.3,0,0,1-.06-.36,2.27,2.27,0,0,0,.06-.25c0-.28-.08-.41-.37-.31a1.83,1.83,0,0,0-.84.49c-.51.56-1.26.77-1.79,1.29a.48.48,0,0,1-.16.08c-.24.09-.33,0-.34-.25a.76.76,0,0,1,.37-.63,14.35,14.35,0,0,1,1.86-1.43,1.55,1.55,0,0,1,1.58.16c.12.1.2,0,.28,0a1,1,0,0,1,.41-.27.71.71,0,0,1,.94.74"/><path class="cls-2" d="M123.36,21.4a.56.56,0,0,1-.25.43.4.4,0,0,1-.4-.08,6.07,6.07,0,0,0-1.06-.66.55.55,0,0,1-.2-.94.29.29,0,0,1,.28-.13,2.33,2.33,0,0,1,1.58,1.22,1,1,0,0,1,0,.16"/><path class="cls-2" d="M120.25,34.75c.37,0,.63.27.6.48a.31.31,0,0,1-.41.29A.54.54,0,0,1,120,35c0-.22.17-.25.28-.27"/><path class="cls-2" d="M148.75,35.59c-.11-.14-.34-.11-.48.09a2.06,2.06,0,0,1-.33.33c-.13.13-.24.12-.34-.06a.5.5,0,0,1,.37-.82c.45-.08.86-.4.84-.7-.05-.89,0-1.77,0-2.67a.67.67,0,0,0-.25-.59.35.35,0,0,1-.07-.56.88.88,0,0,0,.15-.72,3.11,3.11,0,0,0-.84-1.29c-.44-.43-1.07-.59-1.55-1a8.6,8.6,0,0,1-.94-.68,1.78,1.78,0,0,0-1.25-.64,11.61,11.61,0,0,0-2,.31.76.76,0,0,1-.8-.18,4.57,4.57,0,0,0-1.05-.75,2.06,2.06,0,0,0-1.69-.33c-.68.22-1.28.63-2,.8a.79.79,0,0,1-.83-.11,7.16,7.16,0,0,1-.77-.69c-.26-.32-.71-.37-1-.62a.73.73,0,0,0-.75-.07c-.94.38-1.89.72-2.83,1.08-1.19.45-2.38.85-3.56,1.3-.37.14-.63-.06-.59-.45.07-.73,0-1.46,0-2.2,0-.2-.06-.4,0-.6a.31.31,0,0,1,.32-.33.24.24,0,0,1,.28.29c0,.07,0,.15.08.19a1.41,1.41,0,0,1,.64,1,1,1,0,0,0,.25.34.8.8,0,0,0,.86.2c.31-.11.24-.41.23-.66a1.09,1.09,0,0,0,0-.18c-.09-.65-.14-1.33-.92-1.6a.2.2,0,0,1-.13-.23c0-.28.05-.55.1-.82.11-.52.18-.56.66-.37.27.1.53.21.77,0a1.48,1.48,0,0,1,.94-.57c.08,0,.16-.17.23-.26a3.17,3.17,0,0,1,1-1c.11-.06.18-.18.13-.27-.15-.29-.19-.64-.46-.87s-.28-.41,0-.64.31-.43.09-.78c-.09-.15-.26-.2-.36-.34a.64.64,0,0,0-.88-.25c-.23.14-.23.53-.1.87s.48.52.54.92c0,.19.09.35-.1.44a.39.39,0,0,1-.52-.19c-.09-.17-.16-.35-.26-.51a.72.72,0,0,0-1.21-.08c-.2.22-.3.53-.58.67-.12.06-.19.27-.35.19s-.17-.28-.19-.44a.86.86,0,0,0-.72-.76c-.36-.08-.55.16-.71.42-.06.08-.1.19-.16.28a2,2,0,0,0-.15.87c0,.13,0,.35-.23.26s-.25-.26-.41-.33h0c0-.19,0-.39.06-.59s.06-.13.08-.19a.72.72,0,0,0,0-.54v0a.9.9,0,0,0-.26-1.09,1,1,0,0,1-.31-.34c-.18-.43-.54-.41-.88-.37s-.61.19-.52.5a2.46,2.46,0,0,1,.08,1,1.51,1.51,0,0,0,.57,1.43,1.81,1.81,0,0,1,.78,1.61.87.87,0,0,0,.44.92c.36.16.39.42.21.79a1.32,1.32,0,0,0-1.09-.38c-.35,0-.52.28-.79.39s-.25.47-.21.73a.4.4,0,0,0,.46.31c.19,0,.4-.05.55.1a1.51,1.51,0,0,0,.62.34c.45.18.49.23.39.72a6.47,6.47,0,0,0-.12,2c0,.34.14.59.54.65.08,0,.25,0,.28.16s-.1.22-.19.29c-.42.3-.85.6-1.29.89-.63.42-1.27.81-1.89,1.23a.44.44,0,0,0-.24.42c0,.14.15.19.26.21a11.15,11.15,0,0,0,1.13.2c.35,0,.49.2.48.54,0,.73,0,1.47,0,2.2a1,1,0,0,0,.08.53,1.41,1.41,0,0,1,.21.89.72.72,0,0,0,.52.69,10.1,10.1,0,0,0,1.32.22.74.74,0,0,1,.66.37c.27.43.53.46,1,.18a.92.92,0,0,1,.53-.16l1.81,0c.11,0,.26,0,.28.15a.3.3,0,0,1-.21.3,3.33,3.33,0,0,1-.45.13.73.73,0,0,0-.46,1c.33.56,1.53.7,1.84.08a1,1,0,0,1,.56-.48c.23-.09.34-.16.16-.4a.13.13,0,0,1,0-.19.28.28,0,0,1,.28,0c.08.05.05.13,0,.19a.53.53,0,0,1-.08.17.52.52,0,0,0,.12.64c.16.19.34.13.51,0a.31.31,0,0,1,.25,0c.29,0,.47-.08.47-.39s.11-.25.3-.25.43.14.66.15c.82,0,1.56.43,2.38.52a14.62,14.62,0,0,0,2.87.42,2,2,0,0,1,.87.17,2,2,0,0,0,1.41,0,.71.71,0,0,1,.72,0,.91.91,0,0,0,.93,0c.21-.12.19-.36.2-.58s-.1-.22-.14-.33a.4.4,0,0,1,0-.41.93.93,0,0,1,.73-.07c.16,0,.18.14.18.27a3.67,3.67,0,0,0,.3,1.09.59.59,0,0,0,.89.29,1.82,1.82,0,0,0,.45-.51.83.83,0,0,1,1-.55c.16,0,.41,0,.44-.19a1,1,0,0,1,.61-.82,3,3,0,0,0,.47-.32.43.43,0,0,0,.05-.59m-25-5.49c-.17,0-.37,0-.42-.2s.14-.34.29-.45a1.7,1.7,0,0,1,.24-.09,2.2,2.2,0,0,0,1-.72,2.21,2.21,0,0,1,1.26-.88A.91.91,0,0,1,127,28c.87.82,1.59,1.78,2.48,2.59.21.18.12.3-.1.38a2.16,2.16,0,0,1-.25.05,1.11,1.11,0,0,1-.44-.09,1.88,1.88,0,0,0-.76-.18,11,11,0,0,1-2.2-.36l-2-.31m2.39,4.52c-.16,0-.2-.14-.2-.28s0-.34.22-.34.14.18.17.29,0,.33-.19.33m1.78.45a.65.65,0,0,1-.55-.67c0-.25.16-.3.35-.31s.48.25.48.63c0,.14,0,.35-.28.35m1.17-1.7c-.89,0-1.76-.27-2.65-.25a.7.7,0,0,1-.73-.46c-.13-.37-.23-.75-.32-1s.14-.48.41-.37a1.2,1.2,0,0,0,.56.05,6.37,6.37,0,0,1,1.85.27,2.22,2.22,0,0,0,.68,0,3.91,3.91,0,0,1,.77.17.19.19,0,0,1,.14.28,1.58,1.58,0,0,0-.13.8c0,.44-.16.54-.58.52m.58,1.82c-.26,0-.45-.11-.43-.37s0-.47.32-.45a.46.46,0,0,1,.46.47c0,.23-.17.32-.35.35m.14-5.7c-.12-.14-.2-.29-.32-.42a4.17,4.17,0,0,0-1.26-1.14c-.12-.06-.27-.15-.24-.33a.5.5,0,0,1,.31-.37c1-.42,2.05-.81,3.05-1.27.39-.19.81-.25,1.18-.47a1.27,1.27,0,0,1,.7-.1c.6-.07,1,.37,1.52.63a6.07,6.07,0,0,1,.73.52c.23.17.27.35,0,.56a14.37,14.37,0,0,1-3.09,2.23.4.4,0,0,0-.24.44.42.42,0,0,1-.28.45l-.71.33a.28.28,0,0,1-.38-.12,7.5,7.5,0,0,0-1-.94m3.09,1.8a12.47,12.47,0,0,1,2.2-1,1.62,1.62,0,0,0,.55-.37c.32-.32.46-.31.78,0s.58.72.93,1a9.14,9.14,0,0,1,1.29,1.42c.06.07.15.14.09.25s-.15,0-.19.06a16.23,16.23,0,0,1-3.56-.67,2.54,2.54,0,0,0-1.14-.12,1.7,1.7,0,0,1-1-.24c-.08-.05-.19-.07-.18-.2s.11-.13.19-.18m-.95,4.22c-.27,0-.27-.18-.27-.29s0-.36.22-.36.28.15.28.34,0,.31-.23.31m1.75.37c-.21,0-.26-.18-.25-.35a.22.22,0,0,1,.25-.24c.22,0,.22.17.23.29s-.06.31-.23.3m.27-1.56s-.07-.06-.07-.11a.18.18,0,0,1,.12-.13.71.71,0,0,1,.65.05,3.44,3.44,0,0,1,.41.3c-.44.14-.76-.14-1.11-.11m1.71,2.15c-.24,0-.59-.35-.6-.62s.09-.32.32-.32.59.18.6.47,0,.43-.32.47m2.32.19c-.3.08-.62.19-.88-.07a.64.64,0,0,1-.15-.54.27.27,0,0,1,.26-.21,3.39,3.39,0,0,1,.84.1.32.32,0,0,1,.19.32c0,.17-.08.34-.26.4m3.21.2c0,.29-.26.37-.54.36a6.67,6.67,0,0,1-1.54-.17.6.6,0,0,1-.27-.85.22.22,0,0,1,.25-.08,3.46,3.46,0,0,0,.43,0,2.56,2.56,0,0,1,1.3.21c.21.1.41.24.37.5m3.3-.76a1.64,1.64,0,0,1-.84-.14,7.11,7.11,0,0,0-1.37-.37c-.23-.05-.33-.1-.21-.39s-.3-.43-.5-.59a.4.4,0,0,0-.58.08c-.09.11,0,.23.09.33s.3.25.52.45a3.16,3.16,0,0,1-1.41,0,11.49,11.49,0,0,0-2.54-.4,2.73,2.73,0,0,1-.93-.21,2.59,2.59,0,0,0-.79-.08,1.77,1.77,0,0,1-.32,0c-.52-.13-.52-.14-.24-.56,0-.05,0-.13.06-.17s.29-.33.12-.54a.77.77,0,0,0-.73-.3,2.21,2.21,0,0,1-.85-.11,4,4,0,0,0-1.46,0,.34.34,0,0,0-.3.5.3.3,0,0,1-.07.4c-.15.12-.24,0-.35-.06a.9.9,0,0,1-.77-1c0-.21-.12-.38-.18-.58s0-.27.21-.25a1.63,1.63,0,0,1,1.11.32.73.73,0,0,0,.5.16c.64,0,1.29.11,1.92.18a5.15,5.15,0,0,1,1.61.44,1.08,1.08,0,0,0,.55.1,6.28,6.28,0,0,1,1.73.24,6.42,6.42,0,0,0,1.95.21,4.08,4.08,0,0,1,1.63.11,1.46,1.46,0,0,0,.72,0,4.62,4.62,0,0,1,1.77.27.28.28,0,0,1,.25.27,4.61,4.61,0,0,0,.16,1.23c.08.46,0,.53-.46.54M139.77,32c.21-.23.54-.31.72-.57a3.11,3.11,0,0,1,1.22-.9.63.63,0,0,1,.78.14A16.65,16.65,0,0,1,144,32.22a6,6,0,0,0,.46.4c.13.13.32.29.23.48s-.34.19-.55.23a6.47,6.47,0,0,1-.73-.18,4.48,4.48,0,0,0-1.31-.2,8.41,8.41,0,0,1-2.17-.25c-.37-.13-.4-.43-.11-.72m5.32-.41a4,4,0,0,0-.76-.77,9.49,9.49,0,0,0-1-.8,1.5,1.5,0,0,0-1.75-.18,9.64,9.64,0,0,1-2.06,1,1.26,1.26,0,0,0-.42.27.44.44,0,0,1-.67,0,12,12,0,0,1-1.72-1.63.7.7,0,0,0-.68-.27c-.39,0-.78,0-1.16,0a2.65,2.65,0,0,0-1.06.28c-.26.13-.55,0-.82.12a2.35,2.35,0,0,1,1.29-.78,3.54,3.54,0,0,0,1.47-.62c.38-.29.87-.37,1.28-.64a.76.76,0,0,0,.4-.69c0-.55.09-.65.61-.69a1.56,1.56,0,0,0,.62-.2.73.73,0,0,1,.83.06c.56.35,1.09.77,1.66,1.09a1.43,1.43,0,0,0,1.42,0c1.14-.63,1.49-.45,2.22.18a3.73,3.73,0,0,0,.7.5,2.48,2.48,0,0,1,.82.69,2.88,2.88,0,0,0,.89.7c.59.34.62.77.11,1.21a10.89,10.89,0,0,1-1.44,1.18.58.58,0,0,1-.8-.12m1.59,4.86c-.05.19-.09.51-.4.52s-.26-.29-.3-.49.4-.44.54-.43.17.1.16.4m-.56-.9c-.07.07-.13.16-.24.11a.32.32,0,0,1-.19-.28,3.8,3.8,0,0,0-.35-1.4.3.3,0,0,1,.15-.4,13.84,13.84,0,0,0,1.91-1.68c.11-.1.2-.29.34-.23s0,.27.07.38c0,.67-.09,1.31-.12,1.94a.34.34,0,0,1-.13.29,6.7,6.7,0,0,0-1.44,1.27"/><path class="cls-2" d="M139,34.94a1.6,1.6,0,0,1-1.42-.55c-.06-.07-.15-.12-.11-.23s.14-.13.24-.14a2.55,2.55,0,0,1,1.06.08,1.75,1.75,0,0,0,.64.07.44.44,0,0,1,.46.4c0,.29-.22.37-.48.37H139"/></svg>